<svg width="32" height="32" viewBox="0 0 32 32" fill="none" xmlns="http://www.w3.org/2000/svg">
    <path d="M18.7647 15.5302C18.9925 15.1254 19.1106 14.6682 19.1072 14.2039C19.1037 13.7395 18.979 13.2841 18.7452 12.8827C18.5114 12.4813 18.1767 12.1479 17.7742 11.9153C17.3717 11.6828 16.9154 11.5592 16.4504 11.5569C16.4504 11.3211 16.3567 11.095 16.1897 10.9283C16.0228 10.7616 15.7964 10.668 15.5604 10.668C15.3243 10.668 15.0979 10.7616 14.931 10.9283C14.764 11.095 14.6703 11.3211 14.6703 11.5569H12.8901C12.654 11.5569 12.4276 11.6505 12.2607 11.8172C12.0938 11.9839 12 12.21 12 12.4457C12 12.6815 12.0938 12.9076 12.2607 13.0743C12.4276 13.241 12.654 13.3346 12.8901 13.3346V18.668C12.654 18.668 12.4276 18.7616 12.2607 18.9283C12.0938 19.095 12 19.3211 12 19.5569C12 19.7926 12.0938 20.0187 12.2607 20.1854C12.4276 20.3521 12.654 20.4457 12.8901 20.4457H14.6703C14.6703 20.6815 14.764 20.9076 14.931 21.0743C15.0979 21.241 15.3243 21.3346 15.5604 21.3346C15.7964 21.3346 16.0228 21.241 16.1897 21.0743C16.3567 20.9076 16.4504 20.6815 16.4504 20.4457H17.3405C17.9174 20.4434 18.4781 20.2546 18.9385 19.9075C19.399 19.5604 19.7345 19.0737 19.8948 18.5203C20.0551 17.9668 20.0317 17.3764 19.828 16.8374C19.6242 16.2984 19.2512 15.8398 18.7647 15.5302ZM17.3405 14.2235C17.3405 14.4593 17.2468 14.6854 17.0798 14.8521C16.9129 15.0188 16.6865 15.1124 16.4504 15.1124H14.6703V13.3346H16.4504C16.6865 13.3346 16.9129 13.4283 17.0798 13.595C17.2468 13.7617 17.3405 13.9878 17.3405 14.2235ZM17.3405 18.668H14.6703V16.8902H17.3405C17.5766 16.8902 17.803 16.9838 17.9699 17.1505C18.1368 17.3172 18.2306 17.5433 18.2306 17.7791C18.2306 18.0148 18.1368 18.2409 17.9699 18.4076C17.803 18.5743 17.5766 18.668 17.3405 18.668Z" fill="#191918"/>
    <circle cx="15.9998" cy="16.0013" r="8.83333" stroke="#1C6252"/>
    <path d="M26.1434 10.1456C27.5313 12.5496 28.0203 15.3685 27.5232 18.0995C27.0261 20.8305 25.5752 23.2962 23.4292 25.057C21.2831 26.8177 18.5815 27.759 15.8059 27.7131C13.0304 27.6671 10.3614 26.6369 8.27486 24.8061C6.18829 22.9753 4.81979 20.4629 4.41337 17.7169C4.00695 14.9709 4.58903 12.1698 6.05581 9.81304C7.5226 7.4563 9.77874 5.69712 12.422 4.84915C15.0652 4.00119 17.9237 4.11957 20.4877 5.18318" stroke="#1C6252" stroke-linecap="round"/>
</svg>