<svg xmlns="http://www.w3.org/2000/svg" width="24" height="24" fill="none"><path fill="currentColor" stroke="currentColor" stroke-width=".2" d="M10.5205 3.1748c.7693-.7686 2.008-.8108 2.8291-.1191l.0039.0029.1143.1064.0019.001 8.5996 8.2832.0733.0703-.0723.0723-.9219.9199-.0693.0694-.0703-.0684-1.0156-.9785.0009 8.5088c-.0001.7341-.5795 1.3331-1.3105 1.3857h-.0029l-.0987.0039H5.4219c-.7444 0-1.3574-.5653-1.4121-1.2861l-.001-.0039-.003-.0967v-.0029l-.001-8.5069-1.0136.9766-.0703.0684-.0693-.0694-.922-.9199-.0722-.0723.0733-.0703 8.5898-8.2744Zm-.3945 16.7676h3.747l.001-6.249h-3.748v6.249Zm5.2627 0h3.0898l-.001-9.8682-6.0859-5.8613c-.2021-.1944-.5201-.209-.7451-.0332l-.0586.0537-6.0674 5.8428.001 9.8662h3.0889v-6.3496c.0001-.7341.5797-1.3323 1.3105-1.3858l.0039-.0009.0986-.003h3.9502c.698.0001 1.2805.4971 1.3955 1.1533l.0166.1329v.0039l.0039.0966v.003l-.0009 6.3496Z"/></svg>
