<svg width="24" height="24" viewBox="0 0 24 24" fill="none" xmlns="http://www.w3.org/2000/svg">
    <path d="M9.15241 3H4.72259C3.77123 3 3 3.77123 3 4.72259V9.15241C3 10.1038 3.77123 10.875 4.72259 10.875H9.15241C10.1038 10.875 10.875 10.1038 10.875 9.15241V4.72259C10.875 3.77123 10.1038 3 9.15241 3Z" stroke="currentColor" stroke-width="1.5" stroke-linecap="round" stroke-linejoin="round"/>
    <path d="M19.2774 3H14.8476C13.8962 3 13.125 3.77123 13.125 4.72259V9.15241C13.125 10.1038 13.8962 10.875 14.8476 10.875H19.2774C20.2288 10.875 21 10.1038 21 9.15241V4.72259C21 3.77123 20.2288 3 19.2774 3Z" stroke="currentColor" stroke-width="1.5" stroke-linecap="round" stroke-linejoin="round"/>
    <path d="M9.15241 13.125H4.72259C3.77123 13.125 3 13.8962 3 14.8476V19.2774C3 20.2288 3.77123 21 4.72259 21H9.15241C10.1038 21 10.875 20.2288 10.875 19.2774V14.8476C10.875 13.8962 10.1038 13.125 9.15241 13.125Z" stroke="currentColor" stroke-width="1.5" stroke-linecap="round" stroke-linejoin="round"/>
    <path d="M19.2774 13.125H14.8476C13.8962 13.125 13.125 13.8962 13.125 14.8476V19.2774C13.125 20.2288 13.8962 21 14.8476 21H19.2774C20.2288 21 21 20.2288 21 19.2774V14.8476C21 13.8962 20.2288 13.125 19.2774 13.125Z" stroke="currentColor" stroke-width="1.5" stroke-linecap="round" stroke-linejoin="round"/>
</svg>