<svg width="24" height="24" viewBox="0 0 24 24" fill="none" xmlns="http://www.w3.org/2000/svg">
    <path d="M11.9995 15.0996C11.8936 15.0995 11.7922 15.0573 11.7173 14.9824C11.6423 14.9074 11.6001 14.8053 11.6001 14.6992L11.6001 4.85742L10.7456 5.71582L8.68506 7.78516C8.6094 7.86075 8.50685 7.90328 8.3999 7.90332C8.29297 7.90332 8.19043 7.86069 8.11475 7.78516C8.03913 7.70954 7.99571 7.60692 7.99561 7.5C7.99561 7.39294 8.03904 7.28957 8.11475 7.21387L11.7065 3.62207C11.7445 3.5857 11.7894 3.55712 11.8384 3.53809L11.8491 3.5332L11.8599 3.5293C11.9039 3.50985 11.9514 3.49905 11.9995 3.49902C12.0476 3.49902 12.0952 3.50989 12.1392 3.5293L12.1499 3.5332L12.1606 3.53809L12.231 3.57324C12.2531 3.58733 12.2744 3.60382 12.2935 3.62207L15.8853 7.21387C15.9227 7.2513 15.9529 7.29582 15.9731 7.34473C15.9934 7.39371 16.0034 7.44699 16.0034 7.5C16.0034 7.55288 15.9934 7.60544 15.9731 7.6543C15.9529 7.70327 15.9227 7.74767 15.8853 7.78516C15.8478 7.82264 15.8034 7.85276 15.7544 7.87305C15.7055 7.89328 15.653 7.90327 15.6001 7.90332C15.5471 7.90332 15.4938 7.89333 15.4448 7.87305C15.4204 7.8629 15.3974 7.84961 15.3755 7.83496L15.314 7.78516L13.2544 5.71582L12.3999 4.85742L12.3999 14.6992C12.3999 14.8053 12.3577 14.9074 12.2827 14.9824C12.2077 15.0574 12.1056 15.0996 11.9995 15.0996Z" stroke="currentColor"/>
    <path d="M4 14V18C4 19.1046 4.89543 20 6 20H18C19.1046 20 20 19.1046 20 18V14" stroke="currentColor" stroke-width="1.5" stroke-linecap="round"/>
</svg>
