<svg width="16" height="16" viewBox="0 0 16 16" fill="none" xmlns="http://www.w3.org/2000/svg">
    <path d="M5.62118 12.8494C5.62118 13.0586 5.79078 13.2282 6 13.2282C6.20922 13.2282 6.37882 13.0586 6.37882 12.8494H5.62118ZM6.26787 2.73213C6.11993 2.58419 5.88007 2.58419 5.73213 2.73213L3.32132 5.14294C3.17338 5.29088 3.17338 5.53074 3.32132 5.67868C3.46926 5.82662 3.70912 5.82662 3.85706 5.67868L6 3.53574L8.14294 5.67868C8.29088 5.82662 8.53074 5.82662 8.67868 5.67868C8.82662 5.53074 8.82662 5.29088 8.67868 5.14294L6.26787 2.73213ZM6 12.8494H6.37882V3H6H5.62118V12.8494H6Z" fill="#FFB80F"/>
    <path d="M10.8671 7.5461C10.8671 7.33688 10.6975 7.16728 10.4883 7.16728C10.2791 7.16728 10.1095 7.33688 10.1095 7.5461L10.8671 7.5461ZM10.2204 13.1175C10.3684 13.2654 10.6082 13.2654 10.7561 13.1175L13.167 10.7067C13.3149 10.5587 13.3149 10.3189 13.167 10.1709C13.019 10.023 12.7792 10.023 12.6312 10.1709L10.4883 12.3139L8.34534 10.1709C8.1974 10.023 7.95754 10.023 7.8096 10.1709C7.66167 10.3189 7.66167 10.5587 7.8096 10.7067L10.2204 13.1175ZM10.4883 7.5461L10.1095 7.5461L10.1095 12.8496L10.4883 12.8496L10.8671 12.8496L10.8671 7.5461L10.4883 7.5461Z" fill="#797E89"/>
</svg>