<svg width="32" height="32" viewBox="0 0 32 32" fill="none" xmlns="http://www.w3.org/2000/svg">
    <path d="M9.33312 9.33507L11.5553 7.11285M11.5553 7.11285L9.33312 4.89062M11.5553 7.11285H9.33312C6.87852 7.11285 4.88867 9.10269 4.88867 11.5573M22.6664 22.6684L20.4442 24.8906M20.4442 24.8906L22.6664 27.1128M20.4442 24.8906H22.6664C25.121 24.8906 27.1109 22.9008 27.1109 20.4462M13.9876 9.89063C14.7277 7.01525 17.3378 4.89062 20.4442 4.89062C24.1261 4.89062 27.1109 7.87539 27.1109 11.5573C27.1109 14.6637 24.9863 17.2738 22.111 18.0139M18.222 20.4462C18.222 24.1281 15.2372 27.1128 11.5553 27.1128C7.87344 27.1128 4.88867 24.1281 4.88867 20.4462C4.88867 16.7643 7.87344 13.7795 11.5553 13.7795C15.2372 13.7795 18.222 16.7643 18.222 20.4462Z" stroke="#1C6252" stroke-width="1.5" stroke-linecap="round" stroke-linejoin="round"/>
    <path d="M9.33312 9.33507L11.5553 7.11285M11.5553 7.11285L9.33312 4.89062M11.5553 7.11285H9.33312C6.87852 7.11285 4.88867 9.10269 4.88867 11.5573M22.6664 22.6684L20.4442 24.8906M20.4442 24.8906L22.6664 27.1128M20.4442 24.8906H22.6664C25.121 24.8906 27.1109 22.9008 27.1109 20.4462" stroke="#1C6252" stroke-width="1.5" stroke-linecap="round" stroke-linejoin="round"/>
</svg>