<svg width="24" height="24" viewBox="0 0 24 24" fill="none" xmlns="http://www.w3.org/2000/svg">
    <path d="M20.7271 12.8008H15.4089L13.6362 15.4007H10.0908L8.31812 12.8008H3" stroke="currentColor" stroke-width="1.5" stroke-linecap="round" stroke-linejoin="round"/>
    <path fill-rule="evenodd" clip-rule="evenodd" d="M6.07564 6.03132L3 12.7999V17.1332C3 17.5929 3.18677 18.0338 3.51921 18.3588C3.85166 18.6839 4.30255 18.8665 4.77271 18.8665H18.9543C19.4245 18.8665 19.8754 18.6839 20.2078 18.3588C20.5403 18.0338 20.7271 17.5929 20.7271 17.1332V12.7999L17.6514 6.03132C17.5123 5.72424 17.2849 5.4633 16.997 5.28021C16.709 5.09712 16.3729 4.99977 16.0294 5H7.69767C7.35418 4.99977 7.01803 5.09712 6.73007 5.28021C6.44211 5.4633 6.21476 5.72424 6.07564 6.03132Z" stroke="currentColor" stroke-width="1.5" stroke-linecap="round" stroke-linejoin="round"/>
</svg>