<svg width="24" height="24" viewBox="0 0 24 24" fill="none" xmlns="http://www.w3.org/2000/svg">
    <path d="M11.9995 3.5C11.8936 3.50006 11.7922 3.54234 11.7173 3.61719C11.6423 3.6922 11.6001 3.7943 11.6001 3.90039L11.6001 13.7422L10.7456 12.8838L8.68506 10.8145C8.6094 10.7389 8.50685 10.6963 8.3999 10.6963C8.29297 10.6963 8.19043 10.7389 8.11475 10.8145C8.03913 10.8901 7.99571 10.9927 7.99561 11.0996C7.99561 11.2067 8.03904 11.31 8.11475 11.3857L11.7065 14.9775C11.7445 15.0139 11.7894 15.0425 11.8384 15.0615L11.8491 15.0664L11.8599 15.0703C11.9039 15.0898 11.9514 15.1006 11.9995 15.1006C12.0476 15.1006 12.0952 15.0897 12.1392 15.0703L12.1499 15.0664L12.1606 15.0615L12.231 15.0264C12.2531 15.0123 12.2744 14.9958 12.2935 14.9775L15.8853 11.3857C15.9227 11.3483 15.9529 11.3038 15.9731 11.2549C15.9934 11.2059 16.0034 11.1526 16.0034 11.0996C16.0034 11.0467 15.9934 10.9942 15.9731 10.9453C15.9529 10.8963 15.9227 10.8519 15.8853 10.8145C15.8478 10.777 15.8034 10.7468 15.7544 10.7266C15.7055 10.7063 15.653 10.6963 15.6001 10.6963C15.5471 10.6963 15.4938 10.7063 15.4448 10.7266C15.4204 10.7367 15.3974 10.75 15.3755 10.7646L15.314 10.8145L13.2544 12.8838L12.3999 13.7422L12.3999 3.90039C12.3999 3.79434 12.3577 3.69219 12.2827 3.61719C12.2077 3.54217 12.1056 3.5 11.9995 3.5Z" stroke="currentColor"/>
    <path d="M4 14V18C4 19.1046 4.89543 20 6 20H18C19.1046 20 20 19.1046 20 18V14" stroke="currentColor" stroke-width="1.5" stroke-linecap="round"/>
</svg>