<svg width="18" height="18" viewBox="0 0 18 18" fill="none" xmlns="http://www.w3.org/2000/svg">
    <path d="M8.74951 12.0996C8.64359 12.0995 8.54223 12.0573 8.46729 11.9824C8.39227 11.9074 8.3501 11.8053 8.3501 11.6992L8.3501 1.85742L7.49561 2.71582L5.43506 4.78516C5.3594 4.86075 5.25685 4.90328 5.1499 4.90332C5.04297 4.90332 4.94043 4.86069 4.86475 4.78516C4.78913 4.70954 4.74571 4.60692 4.74561 4.5C4.74561 4.39294 4.78904 4.28957 4.86475 4.21387L8.45654 0.62207C8.49453 0.585703 8.53935 0.557123 8.58838 0.538086L8.59912 0.533203L8.60986 0.529296C8.65386 0.509852 8.70142 0.499054 8.74951 0.499023C8.79759 0.499023 8.84517 0.509892 8.88916 0.529296L8.8999 0.533203L8.91065 0.538086L8.98096 0.573242C9.00312 0.58733 9.0244 0.603824 9.04346 0.62207L12.6353 4.21387C12.6727 4.2513 12.7029 4.29582 12.7231 4.34473C12.7434 4.39371 12.7534 4.44699 12.7534 4.5C12.7534 4.55288 12.7434 4.60544 12.7231 4.6543C12.7029 4.70327 12.6727 4.74767 12.6353 4.78516C12.5978 4.82264 12.5534 4.85276 12.5044 4.87305C12.4555 4.89328 12.403 4.90327 12.3501 4.90332C12.2971 4.90332 12.2438 4.89333 12.1948 4.87305C12.1704 4.8629 12.1474 4.84961 12.1255 4.83496L12.064 4.78516L10.0044 2.71582L9.1499 1.85742L9.1499 11.6992C9.1499 11.8053 9.10768 11.9074 9.03271 11.9824C8.9577 12.0574 8.8556 12.0996 8.74951 12.0996Z" stroke="#FFB80F"/>
    <path d="M0.75 11V15C0.75 16.1046 1.64543 17 2.75 17H14.75C15.8546 17 16.75 16.1046 16.75 15V11" stroke="#FFB80F" stroke-width="1.5" stroke-linecap="round"/>
</svg>