<svg width="64" height="64" viewBox="0 0 64 64" fill="none" xmlns="http://www.w3.org/2000/svg">
    <path d="M58.6668 61.3333C58.3159 61.3354 57.968 61.2681 57.6431 61.1354C57.3182 61.0027 57.0226 60.8071 56.7735 60.56L41.6535 45.3333C36.8398 49.2335 30.7142 51.1401 24.5374 50.6608C18.3606 50.1815 12.6024 47.3527 8.44799 42.7567C4.29356 38.1607 2.0589 32.147 2.20391 25.9533C2.34891 19.7596 4.86254 13.8571 9.2275 9.46054C13.5925 5.06395 19.4767 2.50777 25.6691 2.31805C31.8616 2.12833 37.8913 4.31951 42.5172 8.44065C47.1431 12.5618 50.0133 18.2993 50.5372 24.4725C51.0611 30.6457 49.1988 36.7849 45.3335 41.6267L60.4801 56.7733C60.7301 57.0212 60.9285 57.3162 61.0639 57.6411C61.1992 57.9661 61.2689 58.3146 61.2689 58.6667C61.2689 59.0187 61.1992 59.3672 61.0639 59.6922C60.9285 60.0172 60.7301 60.3121 60.4801 60.56C59.9967 61.0399 59.3478 61.3166 58.6668 61.3333ZM26.6668 8C22.9749 8 19.3659 9.09478 16.2962 11.1459C13.2264 13.197 10.8339 16.1124 9.42106 19.5232C8.00822 22.9341 7.63856 26.6874 8.35882 30.3083C9.07907 33.9293 10.8569 37.2554 13.4675 39.866C16.0781 42.4766 19.4041 44.2544 23.0251 44.9747C26.6461 45.6949 30.3993 45.3253 33.8102 43.9124C37.2211 42.4996 40.1365 40.107 42.1876 37.0373C44.2387 33.9676 45.3335 30.3586 45.3335 26.6667C45.3335 21.716 43.3668 16.968 39.8661 13.4673C36.3655 9.96666 31.6175 8 26.6668 8Z" fill="#FFB80F"/>
    <path d="M25.5205 17.1754C26.2898 16.4068 27.5285 16.3646 28.3496 17.0563L28.3535 17.0592L28.4678 17.1657L28.4697 17.1667L37.0693 25.4499L37.1426 25.5202L37.0703 25.5924L36.1484 26.5124L36.0791 26.5817L36.0088 26.5133L34.9932 25.5348L34.9941 34.0436C34.994 34.7778 34.4146 35.3767 33.6836 35.4294H33.6807L33.582 35.4333H20.4219C19.6775 35.4333 19.0645 34.868 19.0098 34.1471L19.0088 34.1432L19.0059 34.0465V34.0436L19.0049 25.5368L17.9912 26.5133L17.9209 26.5817L17.8516 26.5124L16.9297 25.5924L16.8574 25.5202L16.9307 25.4499L25.5205 17.1754ZM25.126 33.943H28.873L28.874 27.694H25.126V33.943ZM30.3887 33.943H33.4785L33.4775 24.0749L27.3916 18.2135C27.1895 18.0192 26.8715 18.0046 26.6465 18.1803L26.5879 18.234L20.5205 24.0768L20.5215 33.943H23.6104V27.5934C23.6105 26.8594 24.1901 26.2611 24.9209 26.2077L24.9248 26.2067L25.0234 26.2038H28.9736C29.6716 26.2038 30.2541 26.7009 30.3691 27.3571L30.3857 27.4899V27.4938L30.3896 27.5905V27.5934L30.3887 33.943Z" fill="white" stroke="white" stroke-width="0.2"/>
</svg>