<svg preserveAspectRatio="none" width="100%" height="100%" overflow="visible" style="display: block;" viewBox="0 0 16.2292 16.9764" fill="none" xmlns="http://www.w3.org/2000/svg">
<g id="Frame 2131330579">
<path id="Vector 30" d="M0.768581 15.3436V5.11828C0.768581 4.80016 0.94334 4.50777 1.22351 4.35711L7.7053 0.871651C7.96086 0.734225 8.26834 0.734225 8.5239 0.871651L15.0057 4.35711C15.2859 4.50777 15.4606 4.80016 15.4606 5.11828V15.3436C15.4606 15.8209 15.0737 16.2078 14.5964 16.2078H1.63282C1.15551 16.2078 0.768581 15.8209 0.768581 15.3436Z" stroke="var(--stroke-0, #010101)" stroke-width="1.53716"/>
<path id="Vector 31" d="M11.7482 12.3185H5.95388C5.47657 12.3185 5.08964 11.9315 5.08964 11.4542V8.86152M5.08964 8.86152V7.22574C5.08964 6.91768 5.25362 6.63291 5.52005 6.47828L7.68064 5.22425C7.94891 5.06854 8.28004 5.06855 8.5483 5.22425L10.7089 6.47828C10.9753 6.63291 11.1393 6.91768 11.1393 7.22574V8.86152H5.08964Z" stroke="var(--stroke-0, #010101)" stroke-width="1.53716"/>
</g>
</svg>
