<svg preserveAspectRatio="none" width="100%" height="100%" overflow="visible" style="display: block;" viewBox="0 0 57.8399 15.071" fill="none" xmlns="http://www.w3.org/2000/svg">
<g id="mavryk-text" clip-path="url(#clip0_0_103)">
<path id="Vector" d="M26.1386 9.94307C26.1114 10.0221 26.0669 10.0939 26.0084 10.1532C25.9597 10.1951 25.8972 10.2168 25.8334 10.2141C25.7718 10.2141 25.7121 10.1926 25.6643 10.1532C25.6015 10.095 25.5543 10.0215 25.5273 9.93965L23.2732 3.62484H21.7334L24.2658 10.4636C24.379 10.805 24.5949 11.1019 24.883 11.3125C25.1558 11.5091 25.4827 11.6135 25.8174 11.6109C26.1556 11.6149 26.4864 11.5104 26.7627 11.3125C27.0487 11.098 27.2661 10.8027 27.3875 10.4636L29.9182 3.62484H28.4089L26.1386 9.94307Z" fill="var(--fill-0, #010101)"/>
<path id="Vector_2" d="M57.2669 3.62484H55.7117L53.6706 6.79082H51.4723V3.62484H50.074V11.4283H51.4756V8.01537H53.7317L55.9553 11.4274H57.5422L54.8739 7.28132L57.2669 3.62484Z" fill="var(--fill-0, #010101)"/>
<path id="Vector_3" d="M17.9544 3.76342C17.6811 3.56547 17.3533 3.45986 17.0175 3.46157C16.6794 3.45816 16.3487 3.56254 16.0722 3.75999C15.7861 3.97465 15.5685 4.26987 15.4465 4.60893L12.9167 11.4511H14.4251L15.0567 9.69492H18.9394L19.5659 11.4511H21.1057L18.5708 4.61236C18.4583 4.27077 18.2426 3.97374 17.9544 3.76342ZM15.5023 8.4712L16.7013 5.13288C16.7266 5.05325 16.769 4.98032 16.8256 4.91936C16.8743 4.87744 16.9368 4.85569 17.0006 4.85847C17.0622 4.85832 17.122 4.87984 17.1697 4.91936C17.2328 4.97734 17.28 5.0509 17.3067 5.13288L18.4989 8.4712H15.4981H15.5023Z" fill="var(--fill-0, #010101)"/>
<path id="Vector_4" d="M37.8676 7.9236C38.2588 7.53086 38.4544 6.98777 38.4544 6.29431V5.8424C38.4544 5.14895 38.2588 4.60585 37.8676 4.2131C37.4764 3.82036 36.9352 3.62427 36.2441 3.62484H32.0571V11.4283H33.4598V8.51271H35.6912L37.3729 11.4283H38.9786L37.181 8.3618C37.4387 8.26852 37.6731 8.11891 37.8676 7.9236ZM37.0516 6.20256C37.0516 6.54557 36.9586 6.81912 36.7701 7.01377C36.5815 7.20843 36.3202 7.30448 35.9854 7.30448H33.4598V4.83652H35.9854C36.3202 4.83652 36.5818 4.93314 36.7701 5.12637C36.9586 5.32017 37.0516 5.59029 37.0516 5.93758V6.20256Z" fill="var(--fill-0, #010101)"/>
<path id="Vector_5" d="M44.406 7.04551C44.3433 7.15785 44.2708 7.35165 44.1254 7.35679H44.0908C43.9445 7.35165 43.8725 7.15785 43.8101 7.04551C43.382 6.23343 42.6126 4.78165 41.9861 3.59827H40.3306L41.5988 5.93673L42.3743 7.35765C42.5222 7.61491 42.6692 7.95279 42.8586 8.18003C43.0016 8.35926 43.1808 8.50544 43.3837 8.60878V11.4386H44.8256V8.60793C45.0288 8.50463 45.2081 8.35844 45.3514 8.17914C45.5409 7.95193 45.6895 7.61235 45.8358 7.35679L46.6105 5.93588L47.8878 3.59827H46.2284L44.4044 7.04551H44.406Z" fill="var(--fill-0, #010101)"/>
<path id="Vector_6" d="M10.7058 3.63299H7.57143C7.5201 3.6331 7.47057 3.65198 7.43188 3.68616L5.88372 5.06591C5.86006 5.01532 5.83554 4.96473 5.80764 4.91585C5.56027 4.46889 5.19445 4.10114 4.75157 3.85423C4.29414 3.5944 3.73861 3.46149 3.09939 3.46149H3.07318C2.43396 3.46149 1.87759 3.5944 1.42185 3.85423C0.977854 4.10145 0.611548 4.47058 0.364939 4.91928C0.121445 5.36524 -0.00464602 5.86731 -0.00117656 6.37707V11.4579H1.43623V6.37707C1.43371 6.16058 1.47404 5.94579 1.55485 5.7454C1.63566 5.54502 1.7553 5.36311 1.90668 5.21046C2.05806 5.05782 2.2381 4.93753 2.43615 4.85673C2.63419 4.77593 2.84621 4.73625 3.05965 4.74006H3.11207C3.39612 4.7351 3.6763 4.80731 3.92355 4.9492C4.17081 5.09109 4.3761 5.29749 4.51821 5.54698C4.66253 5.79891 4.73703 6.08572 4.73381 6.37707V11.4579H6.17121V6.70378L8.98684 4.19553C9.0248 4.16178 9.07152 4.13983 9.12146 4.13229C9.17135 4.12476 9.22239 4.13195 9.26838 4.15302C9.31441 4.17408 9.35343 4.20814 9.38088 4.2511C9.40833 4.29407 9.423 4.34414 9.42312 4.39533V11.4536H10.9163V3.84651C10.9161 3.78995 10.8938 3.73577 10.8544 3.69578C10.815 3.65579 10.7616 3.63322 10.7058 3.63299Z" fill="var(--fill-0, #010101)"/>
</g>
<defs>
<clipPath id="clip0_0_103">
<rect width="57.8399" height="15.071" fill="white"/>
</clipPath>
</defs>
</svg>
