<svg xmlns="http://www.w3.org/2000/svg" width="24" height="24" fill="none"><path fill="currentColor" stroke="currentColor" stroke-width=".3" d="M12.1924 2.3496c2.8441 0 5.1504 2.3062 5.1504 5.1504 0 2.8445-2.3063 5.1504-5.1504 5.1504-2.8442 0-5.1504-2.3063-5.1504-5.1504 0-2.8441 2.3062-5.1504 5.1504-5.1504Zm0 1.3408c-2.1044 0-3.8106 1.7056-3.8106 3.8096 0 2.1044 1.7062 3.8105 3.8106 3.8105 2.1043 0 3.8105-1.7061 3.8105-3.8105 0-2.104-1.7061-3.8096-3.8105-3.8096Z"/><path fill="currentColor" stroke="currentColor" stroke-width=".3" d="M12 12.3496c5.0157 0 9.1503 3.8363 9.1504 8.6504a.6513.6513 0 0 1-.1904.46.6509.6509 0 0 1-.92 0 .6509.6509 0 0 1-.1904-.46c-.0001-4.023-3.4768-7.3496-7.8496-7.3496-4.3731 0-7.8495 3.3266-7.8496 7.3496a.651.651 0 0 1-.1904.46.6508.6508 0 0 1-.92 0 .6511.6511 0 0 1-.1904-.46c0-4.8141 4.135-8.6504 9.1504-8.6504Z"/></svg>
