<svg width="86" height="63" viewBox="0 0 86 63" fill="none" xmlns="http://www.w3.org/2000/svg">
<g id="Group 87">
<g id="Group 86">
<path id="Vector 1" d="M1 3.56845V62.413H85V14.738C83.1775 11.0148 79.0852 3.07852 77.2959 1.11879C75.0592 -1.33088 74.3136 4.98598 70.5858 14.738C67.6036 22.5397 64.2071 17.9887 62.8817 14.738L56.4201 8.93725C55.0947 12.0254 52.0462 16.8196 50.4556 11.2912C48.8651 5.76275 44.9882 3.83918 43.2485 3.56845C41.1249 5.89049 36.1664 11.3753 33.3211 14.738C29.7645 18.9415 28.6238 14.3177 25.5369 8.93725C22.4501 3.5568 19.0948 10.0302 17.0146 11.2912C14.9343 12.5522 12.854 6.41516 12.3843 4.98598C11.9146 3.5568 9.16324 5.40633 7.75403 4.98598C6.62666 4.6497 6.21219 0.382514 4.63113 0.602598L1 3.56845Z" fill="url(#paint0_linear_9784_10800)"/>
<path id="Vector 2" d="M1 3.56845L4.63113 0.602598C6.21219 0.382514 6.62666 4.6497 7.75403 4.98598C9.16324 5.40633 11.9146 3.5568 12.3843 4.98598C12.854 6.41516 14.9343 12.5522 17.0146 11.2912C19.0948 10.0302 22.4501 3.5568 25.5369 8.93725C28.6238 14.3177 29.7645 18.9415 33.3211 14.738C36.1664 11.3753 41.1249 5.89049 43.2485 3.56845C44.9882 3.83918 48.8651 5.76275 50.4556 11.2912C52.0462 16.8196 55.0947 12.0254 56.4201 8.93725L62.8817 14.738C64.2071 17.9887 67.6036 22.5397 70.5858 14.738C74.3136 4.98598 75.0592 -1.33088 77.2959 1.11879C79.0852 3.07852 83.1775 11.0148 85 14.738" stroke="#37794E"/>
</g>
</g>
<defs>
<linearGradient id="paint0_linear_9784_10800" x1="43" y1="0.589844" x2="43" y2="62.413" gradientUnits="userSpaceOnUse">
<stop stop-color="#85B194"/>
<stop offset="1" stop-color="#459761" stop-opacity="0"/>
</linearGradient>
</defs>
</svg>
