<svg width="18" height="19" viewBox="0 0 18 19" fill="none" xmlns="http://www.w3.org/2000/svg">
    <path d="M0.800781 15.9232V5.84017C0.800781 5.25123 1.12432 4.70991 1.64302 4.43099L8.04302 0.989504C8.51616 0.735081 9.0854 0.735081 9.55854 0.989504L15.9585 4.43099C16.4772 4.70991 16.8008 5.25123 16.8008 5.84017V15.9232C16.8008 16.8069 16.0844 17.5232 15.2008 17.5232H2.40078C1.51713 17.5232 0.800781 16.8069 0.800781 15.9232Z" fill="white" stroke="#ED6C18" stroke-width="1.6"/>
    <path d="M9.59924 5.75523L11.2934 6.73851C11.7866 7.0248 12.0902 7.552 12.0902 8.12232V9.52436H5.50195V8.12232C5.50195 7.552 5.80553 7.0248 6.29878 6.73851L7.9929 5.75523C8.48955 5.46697 9.10259 5.46697 9.59924 5.75523Z" fill="white"/>
    <path d="M13.0314 13.2891H7.10195C6.2183 13.2891 5.50195 12.5727 5.50195 11.6891V9.52436M5.50195 9.52436V8.12232C5.50195 7.552 5.80553 7.0248 6.29878 6.73851L7.9929 5.75523C8.48955 5.46697 9.10259 5.46697 9.59924 5.75523L11.2934 6.73851C11.7866 7.0248 12.0902 7.552 12.0902 8.12232V9.52436H5.50195Z" stroke="#ED6C18" stroke-width="1.6"/>
</svg>