<svg id="error" viewBox="0 0 12 12">
    <path fill-rule="evenodd" clip-rule="evenodd" d="M0.442536 0.998283C0.71963 0.6904 1.19385 0.665442 1.50173 0.942536L11.5017 9.94254C11.8096 10.2196 11.8346 10.6938 11.5575 11.0017C11.2804 11.3096 10.8062 11.3346 10.4983 11.0575L0.498283 2.05748C0.1904 1.78038 0.165442 1.30617 0.442536 0.998283Z" fill="#e83736"/>
    <path fill-rule="evenodd" clip-rule="evenodd" d="M11.5575 0.998283C11.8346 1.30617 11.8096 1.78038 11.5017 2.05748L1.50173 11.0575C1.19385 11.3346 0.71963 11.3096 0.442536 11.0017C0.165442 10.6938 0.1904 10.2196 0.498283 9.94254L10.4983 0.942536C10.8062 0.665442 11.2804 0.6904 11.5575 0.998283Z" fill="#e83736"/>
</svg>