<svg width="24" height="24" viewBox="0 0 24 24" fill="none" xmlns="http://www.w3.org/2000/svg">
    <path d="M4 19.5V8.36437C4 8.01794 4.19032 7.69951 4.49543 7.53544L11.5543 3.73969C11.8326 3.59003 12.1674 3.59003 12.4457 3.73969L19.5046 7.53544C19.8097 7.69951 20 8.01794 20 8.36437V19.5C20 20.0198 19.5786 20.4412 19.0588 20.4412H4.94118C4.42138 20.4412 4 20.0198 4 19.5Z" stroke="currentColor" stroke-width="1.5"/>
    <path d="M16.2325 16.207H9.6443C9.1245 16.207 8.70312 15.7857 8.70312 15.2659V12.4423M8.70312 12.4423V10.6609C8.70312 10.3254 8.8817 10.0153 9.17185 9.84692L11.5248 8.48125C11.8169 8.31168 12.1775 8.31168 12.4697 8.48125L14.8226 9.84692C15.1128 10.0153 15.2914 10.3254 15.2914 10.6609V12.4423H8.70312Z" stroke="currentColor" stroke-width="1.5"/>
</svg>