<svg width="30" height="30" viewBox="0 0 30 30" fill="none" xmlns="http://www.w3.org/2000/svg">
<g id="icons8-github">
<path id="Vector" d="M15 3.48047C8.63806 3.48047 3.47998 8.63855 3.47998 15.0005C3.47998 20.3985 7.1971 24.9153 12.2083 26.1653C12.1545 26.0097 12.12 25.8293 12.12 25.6056V23.6366C11.6525 23.6366 10.8691 23.6366 10.6723 23.6366C9.88414 23.6366 9.18334 23.2977 8.8435 22.668C8.46622 21.9681 8.40094 20.8977 7.4659 20.243C7.18846 20.0251 7.39966 19.7765 7.71934 19.8101C8.30974 19.9771 8.79934 20.3822 9.26014 20.9832C9.71902 21.5851 9.93502 21.7214 10.7923 21.7214C11.208 21.7214 11.8301 21.6974 12.4157 21.6053C12.7305 20.8056 13.2749 20.0693 13.9401 19.7217C10.104 19.3272 8.27326 17.4187 8.27326 14.8277C8.27326 13.7121 8.74846 12.6331 9.55582 11.724C9.29086 10.8216 8.95774 8.98127 9.65758 8.28047C11.3837 8.28047 12.4272 9.39983 12.6777 9.70223C13.5379 9.40751 14.4825 9.24047 15.4752 9.24047C16.4697 9.24047 17.4182 9.40751 18.2803 9.70415C18.528 9.40367 19.5725 8.28047 21.3024 8.28047C22.0051 8.98223 21.6681 10.8302 21.4003 11.7307C22.2029 12.6379 22.6752 13.7141 22.6752 14.8277C22.6752 17.4168 20.8473 19.3243 17.0169 19.7208C18.071 20.2709 18.84 21.8165 18.84 22.9809V25.6056C18.84 25.7054 18.8179 25.7774 18.8064 25.8629C23.2953 24.2894 26.52 20.027 26.52 15.0005C26.52 8.63855 21.3619 3.48047 15 3.48047Z" fill="white"/>
</g>
</svg>
