<svg id="info-reg" viewBox="0 0 12 12">
    <path d="M7.75 10.4998H7V5.24976C7 4.83515 6.66414 4.49976 6.25 4.49976H4.75C4.33586 4.49976 4 4.83515 4 5.24976C4 5.66437 4.33586 5.97867 4.75 5.97867H5.5V10.4787H4.75C4.33586 10.4787 4 10.8141 4 11.2287C4 11.6433 4.33586 11.9787 4.75 11.9787H7.75C8.16414 11.9787 8.5 11.6433 8.5 11.2287C8.5 10.8141 8.16484 10.4998 7.75 10.4998ZM6.25 2.99976C6.87133 2.99976 7.375 2.49609 7.375 1.87476C7.375 1.25344 6.87109 0.75 6.25 0.75C5.62891 0.75 5.125 1.25367 5.125 1.875C5.125 2.49633 5.62867 2.99976 6.25 2.99976Z"/>
</svg>