<svg width="150" height="26" viewBox="0 0 150 26" fill="none" xmlns="http://www.w3.org/2000/svg">
    <path d="M36.058 6.2016V9.8936H42.012V13.3256H36.058V17.3296H42.792V20.8916H31.612V2.6396H42.792V6.2016H36.058ZM58.6784 24.0116L56.3384 20.8656C55.6451 21.0043 54.9691 21.0736 54.3104 21.0736C52.5944 21.0736 51.0171 20.6749 49.5784 19.8776C48.1571 19.0803 47.0217 17.9709 46.1724 16.5496C45.3404 15.1109 44.9244 13.4989 44.9244 11.7136C44.9244 9.92827 45.3404 8.32493 46.1724 6.9036C47.0217 5.48227 48.1571 4.37293 49.5784 3.5756C51.0171 2.77827 52.5944 2.3796 54.3104 2.3796C56.0264 2.3796 57.5951 2.77827 59.0164 3.5756C60.4551 4.37293 61.5817 5.48227 62.3964 6.9036C63.2284 8.32493 63.6444 9.92827 63.6444 11.7136C63.6444 13.2736 63.3237 14.7036 62.6824 16.0036C62.0584 17.2863 61.1831 18.3523 60.0564 19.2016L64.0604 24.0116H58.6784ZM49.4744 11.7136C49.4744 13.3256 49.9077 14.6169 50.7744 15.5876C51.6584 16.5409 52.8371 17.0176 54.3104 17.0176C55.7664 17.0176 56.9277 16.5323 57.7944 15.5616C58.6784 14.5909 59.1204 13.3083 59.1204 11.7136C59.1204 10.1016 58.6784 8.81893 57.7944 7.8656C56.9277 6.89493 55.7664 6.4096 54.3104 6.4096C52.8371 6.4096 51.6584 6.88627 50.7744 7.8396C49.9077 8.79293 49.4744 10.0843 49.4744 11.7136ZM70.5366 2.6396V13.5596C70.5366 14.6516 70.8053 15.4923 71.3426 16.0816C71.88 16.6709 72.6686 16.9656 73.7086 16.9656C74.7486 16.9656 75.546 16.6709 76.1006 16.0816C76.6553 15.4923 76.9326 14.6516 76.9326 13.5596V2.6396H81.3786V13.5336C81.3786 15.1629 81.032 16.5409 80.3386 17.6676C79.6453 18.7943 78.7093 19.6436 77.5306 20.2156C76.3693 20.7876 75.0693 21.0736 73.6306 21.0736C72.192 21.0736 70.9006 20.7963 69.7566 20.2416C68.63 19.6696 67.7373 18.8203 67.0786 17.6936C66.42 16.5496 66.0906 15.1629 66.0906 13.5336V2.6396H70.5366ZM88.9467 2.6396V20.8916H84.5007V2.6396H88.9467ZM105.299 2.6396V6.2016H100.463V20.8916H96.0166V6.2016H91.1806V2.6396H105.299ZM111.976 6.2016V9.8936H117.93V13.3256H111.976V17.3296H118.71V20.8916H107.53V2.6396H118.71V6.2016H111.976ZM126.042 6.2016V9.8936H131.996V13.3256H126.042V17.3296H132.776V20.8916H121.596V2.6396H132.776V6.2016H126.042ZM140.395 17.2516H148.247V20.8916H135.351V17.5116L143.151 6.2796H135.351V2.6396H148.247V6.0196L140.395 17.2516Z" fill="#FCFAF5"/>
    <path d="M2 18.8916V7.06C2 6.69191 2.20221 6.35358 2.5264 6.17926L10.0264 2.14627C10.3221 1.98726 10.6779 1.98726 10.9736 2.14627L18.4736 6.17926C18.7978 6.35359 19 6.69191 19 7.06V18.8916C19 19.4439 18.5523 19.8916 18 19.8916H3C2.44772 19.8916 2 19.4439 2 18.8916Z" stroke="#FCFAF5" stroke-width="3"/>
    <path d="M15 15.3916H8C7.44772 15.3916 7 14.9439 7 14.3916V11.3916M7 11.3916V9.49886C7 9.14241 7.18973 8.81291 7.49802 8.63398L9.99802 7.18296C10.3084 7.00279 10.6916 7.00279 11.002 7.18296L13.502 8.63398C13.8103 8.81291 14 9.14241 14 9.49886V11.3916H7Z" stroke="#FCFAF5" stroke-width="3"/>
</svg>