<svg width="129" height="25" viewBox="0 0 129 25" fill="none" xmlns="http://www.w3.org/2000/svg">
    <g clip-path="url(#clip0_13646_49461)">
        <path d="M77.2468 15.8964C77.2029 16.024 77.1311 16.1402 77.0366 16.2364C76.9562 16.3042 76.8534 16.3394 76.7484 16.335C76.6482 16.3355 76.5509 16.3006 76.4738 16.2364C76.3708 16.1447 76.2936 16.0274 76.25 15.8964L72.5577 5.69873H70.042L74.1852 16.7362C74.3746 17.2849 74.7302 17.7604 75.2023 18.0964C75.6533 18.4105 76.1892 18.5789 76.7382 18.5789C77.2873 18.5789 77.8232 18.4105 78.2741 18.0964C78.7386 17.7526 79.0922 17.2797 79.2913 16.7362L83.4073 5.69873H80.9458L77.2468 15.8964Z" fill="white"/>
        <path d="M128.049 5.69873H125.513L122.18 10.7992H118.6V5.69873H116.312V18.28H118.6V12.785H122.282L125.91 18.2936H128.5L124.147 11.6017L128.049 5.69873Z" fill="white"/>
        <path d="M63.887 5.92634C63.441 5.60691 62.9059 5.43675 62.3579 5.44009C61.8063 5.43421 61.2668 5.60189 60.8152 5.91954C60.3515 6.26405 59.998 6.73673 59.7981 7.27968L55.665 18.3342H58.1265L59.1437 15.5017H65.4738L66.4909 18.3342H69.0033L64.894 7.29668C64.7084 6.74611 64.3564 6.26717 63.887 5.92634ZM59.876 13.5261L61.8358 8.13656C61.8804 8.00929 61.9522 7.89327 62.046 7.79653C62.1272 7.7301 62.2294 7.69511 62.3342 7.69792C62.4341 7.69911 62.5308 7.73382 62.6088 7.79653C62.7106 7.88927 62.7876 8.0062 62.8326 8.13656L64.7787 13.5261H59.876Z" fill="white"/>
        <path d="M96.3885 12.6394C96.7177 12.2888 96.9722 11.8746 97.1366 11.4222C97.301 10.9697 97.3718 10.4884 97.3446 10.0075V9.27987C97.3722 8.79902 97.3016 8.3176 97.1372 7.86506C96.9728 7.41252 96.718 6.99838 96.3885 6.64801C96.0323 6.32004 95.6141 6.06709 95.1587 5.90414C94.7033 5.74118 94.2199 5.67153 93.7371 5.69931H86.9053V18.2806H89.1939V13.6017H92.8353L95.5816 18.3044H98.1956L95.273 13.3433C95.6943 13.1945 96.0775 12.9542 96.3953 12.6394H96.3885ZM95.056 9.86133C95.0697 10.0993 95.0359 10.3376 94.9568 10.5624C94.8776 10.7872 94.7546 10.9939 94.5949 11.1705C94.4244 11.3321 94.2228 11.4571 94.0024 11.5378C93.782 11.6185 93.5475 11.6532 93.3133 11.6397H89.1939V7.64771H93.3167C93.5503 7.63552 93.7839 7.67081 94.0036 7.75145C94.2232 7.83208 94.4244 7.95641 94.5949 8.11696C94.7541 8.29371 94.8766 8.50052 94.9552 8.7253C95.0338 8.95008 95.0669 9.18832 95.0526 9.42609L95.056 9.86133Z" fill="white"/>
        <path d="M107.06 11.2211C106.955 11.4014 106.839 11.7142 106.602 11.721H106.544C106.307 11.721 106.188 11.4014 106.087 11.2211C105.388 9.90861 104.134 7.56578 103.11 5.65479H100.397L102.479 9.42916L103.747 11.7278C103.976 12.1895 104.24 12.6329 104.537 13.0539C104.772 13.3387 105.065 13.5704 105.395 13.734V18.3007H107.748V13.7408C108.078 13.5763 108.37 13.3447 108.606 13.0607C108.903 12.6402 109.168 12.1967 109.396 11.7346L110.661 9.43937L112.742 5.66499H110.03L107.056 11.2211H107.06Z" fill="white"/>
        <path d="M52.0574 5.71971H46.9412C46.8576 5.71899 46.7767 5.74927 46.714 5.80472L44.1881 8.03194C44.1474 7.95033 44.1101 7.86873 44.0626 7.78712C43.6564 7.07152 43.0601 6.48297 42.3402 6.08695C41.5119 5.64321 40.5837 5.42072 39.6448 5.44088H39.6007C38.6573 5.41282 37.7227 5.63074 36.8883 6.07335C36.1668 6.46829 35.5692 7.05702 35.1626 7.77352C34.7608 8.50145 34.5551 9.32182 34.5658 10.1538V18.3622H36.9154V10.1504C36.9032 9.67451 37.0205 9.20432 37.2545 8.79022C37.486 8.38714 37.8211 8.0537 38.2248 7.82464C38.6285 7.59559 39.0861 7.4793 39.5499 7.48789H39.6685C40.1323 7.4793 40.5899 7.59559 40.9936 7.82464C41.3973 8.0537 41.7324 8.38714 41.9639 8.79022C42.1984 9.20413 42.3157 9.67446 42.303 10.1504V18.3622H44.6526V10.674L49.2467 6.6242C49.3089 6.57034 49.3851 6.53546 49.4665 6.52365C49.5478 6.51185 49.6307 6.52362 49.7056 6.55759C49.7805 6.59155 49.8441 6.64628 49.8889 6.71532C49.9338 6.78437 49.958 6.86484 49.9587 6.94723V18.3418H52.3931V6.06314C52.3935 6.01849 52.3852 5.97418 52.3686 5.93276C52.352 5.89133 52.3274 5.85359 52.2962 5.8217C52.265 5.78981 52.2279 5.76439 52.1869 5.74689C52.146 5.72939 52.1019 5.72015 52.0574 5.71971Z" fill="white"/>
        <path fill-rule="evenodd" clip-rule="evenodd" d="M18.4596 21.7967C16.5081 23.1044 14.2138 23.8024 11.8668 23.8024C8.7195 23.8024 5.70114 22.5485 3.47569 20.3166C1.25024 18.0847 0 15.0576 0 11.9012C0 9.54737 0.695973 7.24639 1.99991 5.28925C3.30384 3.33211 5.15718 1.8067 7.32554 0.90593C9.49391 0.00515653 11.8799 -0.230527 14.1818 0.228684C16.4838 0.687894 18.5982 1.82137 20.2578 3.48579C21.9174 5.1502 23.0476 7.27079 23.5055 9.57939C23.9634 11.888 23.7284 14.2809 22.8302 16.4556C21.932 18.6303 20.4111 20.489 18.4596 21.7967ZM13.9169 8.37121H16.9209H16.9243C16.9507 8.37075 16.9769 8.37562 17.0014 8.38554C17.0259 8.39546 17.0481 8.41022 17.0668 8.42894C17.0855 8.44767 17.1002 8.46997 17.1101 8.49451C17.12 8.51906 17.1248 8.54536 17.1244 8.57183V15.784H15.6936V9.09208C15.6931 9.04346 15.6787 8.996 15.6522 8.95529C15.6257 8.91458 15.5881 8.88231 15.544 8.8623C15.4998 8.84229 15.4508 8.83536 15.4028 8.84233C15.3548 8.84931 15.3098 8.86989 15.2731 8.90166L12.5777 11.2819V15.7806H11.1876V10.9283C11.1912 10.7234 11.154 10.5199 11.0782 10.3296C11.0025 10.1394 10.8896 9.9662 10.7463 9.82023C10.6029 9.67425 10.432 9.55842 10.2434 9.47952C10.0549 9.40062 9.85259 9.36022 9.6483 9.36071H9.59745C9.32145 9.35787 9.04976 9.42951 8.81085 9.56813C8.57381 9.70573 8.37777 9.9044 8.24304 10.1435C8.10831 10.3827 8.0398 10.6536 8.0446 10.9283V15.7806H6.66127V10.9283C6.6526 10.4431 6.76941 9.96395 7.00032 9.53753C7.23879 9.11405 7.59127 8.76643 8.01747 8.53443C8.50412 8.27449 9.04967 8.14561 9.60084 8.16039H9.62796C10.178 8.14589 10.7224 8.27477 11.2079 8.53443C11.6346 8.76583 11.9872 9.1136 12.2251 9.53753C12.2536 9.58614 12.2773 9.63716 12.3003 9.68654C12.3046 9.69588 12.3089 9.70515 12.3132 9.71434L13.7813 8.42221C13.8188 8.3891 13.867 8.37095 13.9169 8.37121Z" fill="white"/>
    </g>
    <defs>
        <clipPath id="clip0_13646_49461">
            <rect width="128.5" height="24.1424" fill="white"/>
        </clipPath>
    </defs>
</svg>