<svg
  width="16"
  height="16"
  viewBox="0 0 13.5 13.5"
  fill="none"
  xmlns="http://www.w3.org/2000/svg"
>
  <path
    d="M8.75 12.75V7.41667C8.75 7.23986 8.67976 7.07029 8.55474 6.94526C8.42971 6.82024 8.26014 6.75 8.08333 6.75H5.41667C5.23986 6.75 5.07029 6.82024 4.94526 6.94526C4.82024 7.07029 4.75 7.23986 4.75 7.41667V12.75"
    stroke="currentColor"
    stroke-width="1.5"
    stroke-linecap="round"
    stroke-linejoin="round"
  />
  <path
    d="M0.75 5.80244C0.749954 5.61869 0.792223 5.43714 0.873858 5.27046C0.955494 5.10378 1.07453 4.95597 1.22267 4.83736L5.88933 1.04842C6.12999 0.855722 6.4349 0.75 6.75 0.75C7.0651 0.75 7.37001 0.855722 7.61067 1.04842L12.2773 4.83736C12.4255 4.95597 12.5445 5.10378 12.6261 5.27046C12.7078 5.43714 12.75 5.61869 12.75 5.80244V11.4868C12.75 11.8218 12.6095 12.1431 12.3595 12.38C12.1094 12.6169 11.7703 12.75 11.4167 12.75H2.08333C1.72971 12.75 1.39057 12.6169 1.14052 12.38C0.890476 12.1431 0.75 11.8218 0.75 11.4868V5.80244Z"
    stroke="currentColor"
    stroke-width="1.5"
    stroke-linecap="round"
    stroke-linejoin="round"
  />
</svg>
