<svg xmlns="http://www.w3.org/2000/svg" width="50" height="63" fill="none"><path fill="#ED6C18" d="M23.1627 51.5552a32.8585 32.8585 0 0 1-9.6653-1.662c-1.3906-.446-2.6751-1.1624-3.7768-2.1063A4.2509 4.2509 0 0 1 8.5794 46.22a4.1732 4.1732 0 0 1-.3186-1.8999c.0853-2.7774.8863-5.4885 2.3283-7.8805 1.4421-2.392 3.4783-4.387 5.9189-5.7991.047-.0272.0955-.0514.1618-.0862 1.2265 1.0065 2.6398 1.771 4.1621 2.2515 2.07.694 4.2853.8639 6.4402.494 2.1548-.37 4.1795-1.2678 5.8858-2.6102a.3002.3002 0 0 1 .4016-.0181c1.9494 1.1328 3.643 2.6432 4.9776 4.439 1.3345 1.7957 2.282 3.8392 2.7847 6.0058.2674 1.1434.41 2.3113.4255 3.4842a3.9912 3.9912 0 0 1-.361 1.7472 4.0661 4.0661 0 0 1-1.0896 1.4271c-1.1011.947-2.3856 1.6667-3.7767 2.1161a28.0186 28.0186 0 0 1-5.9549 1.3552 42.7682 42.7682 0 0 1-5.4971.3514 40.1653 40.1653 0 0 1-1.9053-.0423ZM13.939 20.5584c.0035-2.1463.6562-4.2434 1.8754-6.0258 1.2192-1.7825 2.9502-3.1704 4.974-3.988 2.0238-.8176 4.2494-1.0282 6.3953-.6053 2.1459.423 4.1157 1.4606 5.6601 2.9815 1.5444 1.521 2.594 3.4569 3.0161 5.5629.4221 2.106.1976 4.2874-.6449 6.2683-.8426 1.9809-2.2654 3.6723-4.0885 4.8601-1.823 1.1878-3.9645 1.8187-6.1533 1.8129-2.9316-.01-5.7395-1.1596-7.808-3.1967-2.0684-2.037-3.2287-4.7953-3.2262-7.6699Z"/><defs><linearGradient id="userIcon" x1="8.2515" x2="41.7483" y1="30.6621" y2="30.6621" gradientUnits="userSpaceOnUse"><stop stop-color="#FCC678"/><stop offset="1" stop-color="#BB9040"/></linearGradient></defs></svg>