<svg width="24" height="25" viewBox="0 0 24 25" fill="none" xmlns="http://www.w3.org/2000/svg">
    <path d="M17.5365 13.9202C17.1515 14.296 16.9315 14.8368 16.9865 15.4143C17.069 16.4043 17.9765 17.1285 18.9665 17.1285H20.7082V18.2193C20.7082 21.666 20.7082 21.666 17.2615 21.666H6.73817C3.5 21.666 3.2915 21.666 3.2915 18.2193V12.0502C3.2915 8.60352 3.2915 8.60352 6.73817 8.60352H17.2615C20.7082 8.60352 20.7082 8.60352 20.7082 12.0502V13.3702H18.8565C18.3432 13.3702 17.8757 13.5718 17.5365 13.9202Z" stroke="currentColor" stroke-width="1.5" stroke-linecap="round" stroke-linejoin="round"/>
    <path d="M3.2915 12.8752V8.68605C3.2915 6.99934 3.2915 6.90377 4.97817 6.23852L12.2565 3.48852C14.5 2.49935 14.5 2.49934 14.6123 5.12021V8.60353" stroke="currentColor" stroke-width="1.5" stroke-linecap="round" stroke-linejoin="round"/>
    <path d="M21.6787 14.3061V16.1944C21.6787 17.1294 21.6787 17.1294 20.7621 17.1294H18.9654C17.9754 17.1294 17.0679 16.4052 16.9854 15.4152C16.9304 14.8377 17.1504 14.2969 17.5354 13.9211C17.8746 13.5727 18.3421 13.3711 18.8554 13.3711H20.7621C21.6787 13.3711 21.6787 13.3711 21.6787 14.3061Z" stroke="currentColor" stroke-width="1.5" stroke-linecap="round" stroke-linejoin="round"/>
    <path d="M7.4165 12.5H13.8332" stroke="currentColor" stroke-width="1.5" stroke-linecap="round" stroke-linejoin="round"/>
</svg>