<svg width="16" height="16" viewBox="0 0 16 16" fill="none" xmlns="http://www.w3.org/2000/svg">
    <path d="M14.2651 7.81097H14.1922V5.82111C14.1922 5.20006 13.7323 4.68595 13.1355 4.59767V4.14999C13.1355 3.46718 12.58 2.9117 11.8972 2.9117H11.3485L11.0596 2.14177C11.0399 2.08919 11.0007 2.04622 10.9501 2.02178C10.8996 1.99734 10.8415 1.9933 10.7881 2.01051L7.99085 2.9117H2.28057C1.69945 2.9117 1.22656 3.38458 1.22656 3.9657V12.7835C1.22656 13.4663 1.78205 14.0218 2.46486 14.0218H7.7094H12.9539C13.6367 14.0218 14.1922 13.4663 14.1922 12.7835V10.7937H14.2651C14.5462 10.7937 14.775 10.5649 14.775 10.2838V8.32086C14.775 8.03984 14.5462 7.81097 14.2651 7.81097ZM11.5126 3.34889H11.8972C12.3389 3.34889 12.6984 3.70828 12.6984 4.15014V4.58296H11.9757L11.5126 3.34889ZM11.5089 4.58296H4.22892L10.7237 2.49068L11.5089 4.58296ZM2.28057 3.34889H6.63412L2.80371 4.58296H2.28057C1.9404 4.58296 1.66361 4.30616 1.66361 3.96599C1.66361 3.62583 1.9404 3.34889 2.28057 3.34889ZM13.7552 12.7835C13.7552 13.2254 13.3956 13.5848 12.9539 13.5848H7.7094H2.46486C2.25242 13.5845 2.04876 13.5001 1.89854 13.3498C1.74833 13.1996 1.66384 12.996 1.66361 12.7835V4.81998C1.66667 4.82231 1.67031 4.82377 1.67351 4.8261C1.71168 4.85305 1.75145 4.87767 1.79312 4.89952C1.80084 4.9036 1.809 4.9071 1.81686 4.91103C1.85547 4.93012 1.89524 4.94687 1.93632 4.96115C1.94332 4.96362 1.95002 4.96639 1.95701 4.96872C2.00246 4.98344 2.04923 4.99451 2.09716 5.00296C2.10779 5.00485 2.11857 5.00631 2.12935 5.00791C2.17888 5.01505 2.22914 5.02 2.28057 5.02H12.9539C13.3956 5.02 13.7552 5.3794 13.7552 5.82125V7.81112H12.3074C11.6246 7.81112 11.0691 8.3666 11.0691 9.04941V9.55551C11.0691 10.2383 11.6246 10.7938 12.3074 10.7938H13.7552V12.7835ZM14.3379 10.2838C14.3379 10.3031 14.3302 10.3216 14.3166 10.3353C14.3029 10.3489 14.2844 10.3566 14.2651 10.3566H12.3074C12.095 10.3564 11.8913 10.2719 11.7411 10.1217C11.5909 9.97146 11.5064 9.7678 11.5062 9.55536V9.04927C11.5062 8.60741 11.8657 8.24802 12.3074 8.24802H14.2651C14.2844 8.24802 14.3029 8.25569 14.3166 8.26935C14.3302 8.28301 14.3379 8.30154 14.3379 8.32086V10.2838Z" fill="#656462"/>
    <mask id="path-2-outside-1_14170_20313" maskUnits="userSpaceOnUse" x="0" y="1" width="16" height="14" fill="black">
        <rect fill="white" y="1" width="16" height="14"/>
        <path fill-rule="evenodd" clip-rule="evenodd" d="M1.66285 4.81998C1.66443 4.82119 1.66617 4.82216 1.66792 4.82314C1.66956 4.82405 1.67121 4.82498 1.67275 4.8261C1.71092 4.85305 1.75069 4.87767 1.79236 4.89952C1.79683 4.90188 1.80144 4.90405 1.80606 4.90622C1.80942 4.90779 1.81279 4.90937 1.8161 4.91103C1.83984 4.92276 1.86401 4.93361 1.88865 4.94355C1.9041 4.94978 1.91973 4.95565 1.93556 4.96115C1.93852 4.96219 1.94143 4.96329 1.94433 4.96439C1.94828 4.96589 1.95222 4.96738 1.95625 4.96872C2.0017 4.98344 2.04847 4.99451 2.0964 5.00296C2.10447 5.00439 2.11262 5.00558 2.1208 5.00677C2.12339 5.00715 2.12599 5.00752 2.12859 5.00791C2.17812 5.01505 2.22838 5.02 2.27981 5.02H12.9532C13.3949 5.02 13.7544 5.3794 13.7544 5.82125V7.81112H12.3066C11.6238 7.81112 11.0683 8.3666 11.0683 9.04941V9.55551C11.0683 10.2383 11.6238 10.7938 12.3066 10.7938H13.7544V12.7835C13.7544 13.2254 13.3949 13.5848 12.9532 13.5848H2.4641C2.25166 13.5845 2.048 13.5001 1.89778 13.3498C1.74757 13.1996 1.66308 12.996 1.66285 12.7835V4.81998ZM1.88865 12.7834V5.18418C1.94496 5.20229 2.00135 5.21548 2.057 5.2253M1.88865 12.7834C1.88885 12.936 1.94955 13.0823 2.05745 13.1902C2.16538 13.2981 2.31171 13.3588 2.46434 13.359H12.9532C13.2702 13.359 13.5286 13.1006 13.5286 12.7835V11.0196H12.3066C11.4991 11.0196 10.8425 10.363 10.8425 9.55551V9.04941C10.8425 8.24189 11.4991 7.58531 12.3066 7.58531H13.5286V5.82125C13.5286 5.50413 13.2702 5.2458 12.9532 5.2458H2.27981C2.21408 5.2458 2.15241 5.23948 2.09638 5.2314L2.09539 5.23126C2.09413 5.23107 2.09252 5.23084 2.09063 5.23056C2.08247 5.22938 2.06902 5.22743 2.057 5.2253M10.7873 2.01051C10.8408 1.9933 10.8988 1.99734 10.9494 2.02178C10.9999 2.04622 11.0392 2.08919 11.0589 2.14177L11.3478 2.9117H11.8964C12.5792 2.9117 13.1347 3.46718 13.1347 4.14999V4.59767C13.7316 4.68595 14.1915 5.20006 14.1915 5.82111V7.81097H14.2643C14.5455 7.81097 14.7742 8.03984 14.7742 8.32086V10.2838C14.7742 10.5649 14.5455 10.7937 14.2643 10.7937H14.1915V12.7835C14.1915 13.4663 13.636 14.0218 12.9532 14.0218H2.4641C1.78129 14.0218 1.2258 13.4663 1.2258 12.7835V3.9657C1.2258 3.38458 1.69869 2.9117 2.27981 2.9117H7.99009L10.7873 2.01051ZM7.95462 2.68589H2.27981C1.57398 2.68589 1 3.25987 1 3.9657V12.7835C1 13.591 1.65658 14.2476 2.4641 14.2476H12.9532C13.7607 14.2476 14.4173 13.591 14.4173 12.7835V11.0035C14.7499 10.933 15 10.6372 15 10.2838V8.32086C15 7.96758 14.7499 7.6717 14.4173 7.60114V5.82111C14.4173 5.15442 13.9698 4.59297 13.3605 4.41629V4.14999C13.3605 3.34247 12.7039 2.68589 11.8964 2.68589H11.5042L11.2703 2.06246M2.27981 3.34889C1.93964 3.34889 1.66285 3.62583 1.66285 3.96599C1.66285 4.30616 1.93964 4.58296 2.27981 4.58296H2.80295L6.63336 3.34889H2.27981ZM5.19615 3.57469H2.27981C2.06442 3.57469 1.88865 3.75047 1.88865 3.96599C1.88865 4.18145 2.06435 4.35715 2.27981 4.35715H2.76748L5.19615 3.57469ZM4.22816 4.58296H11.5082L10.7229 2.49068L4.22816 4.58296ZM10.5872 2.77163L5.66549 4.35715H11.1822L10.5872 2.77163ZM11.5118 3.34889L11.9749 4.58296H12.6977V4.15014C12.6977 3.70828 12.3381 3.34889 11.8964 3.34889H11.5118ZM11.8377 3.57469L12.1314 4.35715H12.4718V4.15014C12.4718 3.83302 12.2134 3.57469 11.8964 3.57469H11.8377ZM14.1114 10.1308V8.47382H12.3066C11.9896 8.47382 11.7312 8.73215 11.7312 9.04927V9.55512C11.7314 9.70775 11.7921 9.85408 11.9 9.96201C12.0079 10.0699 12.1543 10.1306 12.3069 10.1308H14.1114ZM11.5054 9.55536C11.5056 9.7678 11.5901 9.97146 11.7403 10.1217C11.8905 10.2719 12.0942 10.3564 12.3066 10.3566H14.2643C14.2836 10.3566 14.3022 10.3489 14.3158 10.3353C14.3295 10.3216 14.3372 10.3031 14.3372 10.2838V8.32086C14.3372 8.30154 14.3295 8.28301 14.3158 8.26935C14.3022 8.25569 14.2836 8.24802 14.2643 8.24802H12.3066C11.8649 8.24802 11.5054 8.60741 11.5054 9.04927V9.55536Z"/>
    </mask>
    <path fill-rule="evenodd" clip-rule="evenodd" d="M1.66285 4.81998C1.66443 4.82119 1.66617 4.82216 1.66792 4.82314C1.66956 4.82405 1.67121 4.82498 1.67275 4.8261C1.71092 4.85305 1.75069 4.87767 1.79236 4.89952C1.79683 4.90188 1.80144 4.90405 1.80606 4.90622C1.80942 4.90779 1.81279 4.90937 1.8161 4.91103C1.83984 4.92276 1.86401 4.93361 1.88865 4.94355C1.9041 4.94978 1.91973 4.95565 1.93556 4.96115C1.93852 4.96219 1.94143 4.96329 1.94433 4.96439C1.94828 4.96589 1.95222 4.96738 1.95625 4.96872C2.0017 4.98344 2.04847 4.99451 2.0964 5.00296C2.10447 5.00439 2.11262 5.00558 2.1208 5.00677C2.12339 5.00715 2.12599 5.00752 2.12859 5.00791C2.17812 5.01505 2.22838 5.02 2.27981 5.02H12.9532C13.3949 5.02 13.7544 5.3794 13.7544 5.82125V7.81112H12.3066C11.6238 7.81112 11.0683 8.3666 11.0683 9.04941V9.55551C11.0683 10.2383 11.6238 10.7938 12.3066 10.7938H13.7544V12.7835C13.7544 13.2254 13.3949 13.5848 12.9532 13.5848H2.4641C2.25166 13.5845 2.048 13.5001 1.89778 13.3498C1.74757 13.1996 1.66308 12.996 1.66285 12.7835V4.81998ZM1.88865 12.7834V5.18418C1.94496 5.20229 2.00135 5.21548 2.057 5.2253M1.88865 12.7834C1.88885 12.936 1.94955 13.0823 2.05745 13.1902C2.16538 13.2981 2.31171 13.3588 2.46434 13.359H12.9532C13.2702 13.359 13.5286 13.1006 13.5286 12.7835V11.0196H12.3066C11.4991 11.0196 10.8425 10.363 10.8425 9.55551V9.04941C10.8425 8.24189 11.4991 7.58531 12.3066 7.58531H13.5286V5.82125C13.5286 5.50413 13.2702 5.2458 12.9532 5.2458H2.27981C2.21408 5.2458 2.15241 5.23948 2.09638 5.2314L2.09539 5.23126C2.09413 5.23107 2.09252 5.23084 2.09063 5.23056C2.08247 5.22938 2.06902 5.22743 2.057 5.2253M10.7873 2.01051C10.8408 1.9933 10.8988 1.99734 10.9494 2.02178C10.9999 2.04622 11.0392 2.08919 11.0589 2.14177L11.3478 2.9117H11.8964C12.5792 2.9117 13.1347 3.46718 13.1347 4.14999V4.59767C13.7316 4.68595 14.1915 5.20006 14.1915 5.82111V7.81097H14.2643C14.5455 7.81097 14.7742 8.03984 14.7742 8.32086V10.2838C14.7742 10.5649 14.5455 10.7937 14.2643 10.7937H14.1915V12.7835C14.1915 13.4663 13.636 14.0218 12.9532 14.0218H2.4641C1.78129 14.0218 1.2258 13.4663 1.2258 12.7835V3.9657C1.2258 3.38458 1.69869 2.9117 2.27981 2.9117H7.99009L10.7873 2.01051ZM7.95462 2.68589H2.27981C1.57398 2.68589 1 3.25987 1 3.9657V12.7835C1 13.591 1.65658 14.2476 2.4641 14.2476H12.9532C13.7607 14.2476 14.4173 13.591 14.4173 12.7835V11.0035C14.7499 10.933 15 10.6372 15 10.2838V8.32086C15 7.96758 14.7499 7.6717 14.4173 7.60114V5.82111C14.4173 5.15442 13.9698 4.59297 13.3605 4.41629V4.14999C13.3605 3.34247 12.7039 2.68589 11.8964 2.68589H11.5042L11.2703 2.06246M2.27981 3.34889C1.93964 3.34889 1.66285 3.62583 1.66285 3.96599C1.66285 4.30616 1.93964 4.58296 2.27981 4.58296H2.80295L6.63336 3.34889H2.27981ZM5.19615 3.57469H2.27981C2.06442 3.57469 1.88865 3.75047 1.88865 3.96599C1.88865 4.18145 2.06435 4.35715 2.27981 4.35715H2.76748L5.19615 3.57469ZM4.22816 4.58296H11.5082L10.7229 2.49068L4.22816 4.58296ZM10.5872 2.77163L5.66549 4.35715H11.1822L10.5872 2.77163ZM11.5118 3.34889L11.9749 4.58296H12.6977V4.15014C12.6977 3.70828 12.3381 3.34889 11.8964 3.34889H11.5118ZM11.8377 3.57469L12.1314 4.35715H12.4718V4.15014C12.4718 3.83302 12.2134 3.57469 11.8964 3.57469H11.8377ZM14.1114 10.1308V8.47382H12.3066C11.9896 8.47382 11.7312 8.73215 11.7312 9.04927V9.55512C11.7314 9.70775 11.7921 9.85408 11.9 9.96201C12.0079 10.0699 12.1543 10.1306 12.3069 10.1308H14.1114ZM11.5054 9.55536C11.5056 9.7678 11.5901 9.97146 11.7403 10.1217C11.8905 10.2719 12.0942 10.3564 12.3066 10.3566H14.2643C14.2836 10.3566 14.3022 10.3489 14.3158 10.3353C14.3295 10.3216 14.3372 10.3031 14.3372 10.2838V8.32086C14.3372 8.30154 14.3295 8.28301 14.3158 8.26935C14.3022 8.25569 14.2836 8.24802 14.2643 8.24802H12.3066C11.8649 8.24802 11.5054 8.60741 11.5054 9.04927V9.55536Z" fill="#656462"/>
    <path d="M2.057 5.2253L2.00701 5.22418L1.83866 12.7823L1.88865 12.7834L1.93864 12.7845L2.10699 5.22641L2.057 5.2253ZM11.2703 2.06246L11.2611 2.01332L7.94538 2.63675L7.95462 2.68589L7.96386 2.73503L11.2795 2.1116L11.2703 2.06246ZM1.66285 4.81998L1.72345 4.74044L1.56285 4.61807V4.81998H1.66285ZM1.66792 4.82314L1.71672 4.73585L1.71671 4.73585L1.66792 4.82314ZM1.67275 4.8261L1.61393 4.90698L1.61507 4.90779L1.67275 4.8261ZM1.79236 4.89952L1.83907 4.8111L1.83881 4.81096L1.79236 4.89952ZM1.80606 4.90622L1.84854 4.81569L1.84854 4.81569L1.80606 4.90622ZM1.8161 4.91103L1.77138 5.00047L1.77179 5.00068L1.8161 4.91103ZM1.88865 4.94355L1.92604 4.8508L1.92604 4.8508L1.88865 4.94355ZM1.93556 4.96115L1.96895 4.86688L1.96839 4.86669L1.93556 4.96115ZM1.94433 4.96439L1.97973 4.87087L1.97972 4.87087L1.94433 4.96439ZM1.95625 4.96872L1.92463 5.06359L1.92545 5.06386L1.95625 4.96872ZM2.0964 5.00296L2.11393 4.90451L2.11376 4.90448L2.0964 5.00296ZM2.1208 5.00677L2.10641 5.10573H2.10641L2.1208 5.00677ZM2.12859 5.00791L2.11389 5.10682L2.11433 5.10689L2.12859 5.00791ZM13.7544 7.81112V7.91112H13.8544V7.81112H13.7544ZM13.7544 10.7938H13.8544V10.6938H13.7544V10.7938ZM2.4641 13.5848L2.46399 13.6848H2.4641V13.5848ZM1.66285 12.7835H1.56285L1.56285 12.7836L1.66285 12.7835ZM1.88865 12.7834H1.78865L1.78865 12.7835L1.88865 12.7834ZM1.88865 5.18418L1.91927 5.08898L1.78865 5.04696V5.18418H1.88865ZM2.057 5.2253L2.07446 5.12683L2.07438 5.12682L2.057 5.2253ZM2.05745 13.1902L2.12816 13.1195L2.05745 13.1902ZM2.46434 13.359L2.46423 13.459H2.46434V13.359ZM13.5286 11.0196H13.6286V10.9196H13.5286V11.0196ZM13.5286 7.58531V7.68531H13.6286V7.58531H13.5286ZM2.09638 5.2314L2.11065 5.13243L2.11064 5.13243L2.09638 5.2314ZM2.09539 5.23126L2.08051 5.33015L2.08113 5.33024L2.09539 5.23126ZM2.09063 5.23056L2.10498 5.1316L2.10497 5.1316L2.09063 5.23056ZM10.7873 2.01051L10.7567 1.91532L10.7567 1.91533L10.7873 2.01051ZM11.0589 2.14177L10.9653 2.17689L10.9653 2.1769L11.0589 2.14177ZM11.3478 2.9117L11.2541 2.94683L11.2785 3.0117H11.3478V2.9117ZM13.1347 4.59767H13.0347V4.68397L13.1201 4.69659L13.1347 4.59767ZM14.1915 7.81097H14.0915V7.91097H14.1915V7.81097ZM14.1915 10.7937V10.6937H14.0915V10.7937H14.1915ZM7.99009 2.9117V3.0117H8.00581L8.02076 3.00688L7.99009 2.9117ZM14.4173 11.0035L14.3965 10.9057L14.3173 10.9225V11.0035H14.4173ZM14.4173 7.60114H14.3173V7.68216L14.3965 7.69897L14.4173 7.60114ZM13.3605 4.41629H13.2605V4.49141L13.3327 4.51233L13.3605 4.41629ZM11.5042 2.68589L11.4106 2.72102L11.4349 2.78589H11.5042V2.68589ZM2.80295 4.58296V4.68296H2.81866L2.83362 4.67814L2.80295 4.58296ZM6.63336 3.34889L6.66403 3.44407L6.63336 3.24889V3.34889ZM5.19615 3.57469L5.22682 3.66987L5.19615 3.47469V3.57469ZM2.76748 4.35715V4.45715H2.78319L2.79814 4.45234L2.76748 4.35715ZM4.22816 4.58296L4.19749 4.48777L4.22816 4.68296V4.58296ZM11.5082 4.58296V4.68296H11.6525L11.6018 4.54782L11.5082 4.58296ZM10.7229 2.49068L10.8166 2.45554L10.7831 2.36625L10.6923 2.39549L10.7229 2.49068ZM5.66549 4.35715L5.63482 4.26197L5.66549 4.45715V4.35715ZM10.5872 2.77163L10.6808 2.7365L10.6473 2.64721L10.5565 2.67645L10.5872 2.77163ZM11.1822 4.35715V4.45715H11.3266L11.2759 4.32202L11.1822 4.35715ZM11.5118 3.34889V3.24889H11.3675L11.4182 3.38402L11.5118 3.34889ZM11.9749 4.58296L11.8813 4.61809L11.9056 4.68296H11.9749V4.58296ZM12.6977 4.58296V4.68296H12.7977V4.58296H12.6977ZM12.1314 4.35715L12.0377 4.39229L12.0621 4.45715H12.1314V4.35715ZM11.8377 3.57469V3.47469H11.6934L11.7441 3.60982L11.8377 3.57469ZM12.4718 4.35715V4.45715H12.5718V4.35715H12.4718ZM14.1114 8.47382H14.2114V8.37382H14.1114V8.47382ZM14.1114 10.1308V10.2308H14.2114V10.1308H14.1114ZM11.7312 9.55512H11.6312V9.55523L11.7312 9.55512ZM11.9 9.96201L11.9707 9.8913V9.8913L11.9 9.96201ZM12.3069 10.1308L12.3068 10.2308H12.3069V10.1308ZM11.5054 9.55536H11.4054L11.4054 9.55547L11.5054 9.55536ZM12.3066 10.3566L12.3065 10.4566H12.3066V10.3566ZM1.66285 4.81998L1.60224 4.89952C1.61041 4.90574 1.61844 4.91004 1.61914 4.91043L1.66792 4.82314L1.71671 4.73585C1.71557 4.73521 1.71624 4.73558 1.71715 4.73613C1.71824 4.73678 1.72057 4.73824 1.72345 4.74044L1.66285 4.81998ZM1.66792 4.82314L1.61913 4.91043C1.62017 4.91101 1.61967 4.91074 1.61898 4.91032C1.61813 4.90982 1.61628 4.90868 1.61394 4.90697L1.67275 4.8261L1.73157 4.74522C1.72442 4.74002 1.71753 4.73631 1.71672 4.73585L1.66792 4.82314ZM1.67275 4.8261L1.61507 4.90779C1.65654 4.93707 1.70006 4.96403 1.74591 4.98808L1.79236 4.89952L1.83881 4.81096C1.80133 4.79131 1.7653 4.76903 1.73043 4.74441L1.67275 4.8261ZM1.79236 4.89952L1.74565 4.98794C1.75256 4.99159 1.75933 4.99475 1.76358 4.99674L1.80606 4.90622L1.84854 4.81569C1.84355 4.81335 1.84109 4.81217 1.83907 4.8111L1.79236 4.89952ZM1.80606 4.90622L1.76358 4.99674C1.76713 4.99841 1.76937 4.99947 1.77138 5.00047L1.8161 4.91103L1.86083 4.82159C1.85621 4.81928 1.85171 4.81718 1.84854 4.81569L1.80606 4.90622ZM1.8161 4.91103L1.77179 5.00068C1.79775 5.01351 1.82423 5.0254 1.85126 5.03629L1.88865 4.94355L1.92604 4.8508C1.90379 4.84183 1.88192 4.83202 1.86042 4.82139L1.8161 4.91103ZM1.88865 4.94355L1.85126 5.03629C1.8682 5.04313 1.88536 5.04957 1.90274 5.05561L1.93556 4.96115L1.96839 4.86669C1.95411 4.86172 1.93999 4.85643 1.92604 4.8508L1.88865 4.94355ZM1.93556 4.96115L1.90218 5.05541C1.90396 5.05604 1.90588 5.05676 1.90893 5.05792L1.94433 4.96439L1.97972 4.87087C1.97698 4.86983 1.97308 4.86835 1.96895 4.86688L1.93556 4.96115ZM1.94433 4.96439L1.90893 5.05792C1.91258 5.0593 1.91838 5.06151 1.92463 5.06359L1.95625 4.96872L1.98787 4.87385C1.98605 4.87325 1.98398 4.87248 1.97973 4.87087L1.94433 4.96439ZM1.95625 4.96872L1.92545 5.06386C1.97603 5.08023 2.02737 5.09233 2.07904 5.10144L2.0964 5.00296L2.11376 4.90448C2.06956 4.89668 2.02738 4.88664 1.98705 4.87358L1.95625 4.96872ZM2.0964 5.00296L2.07886 5.10141C2.08877 5.10317 2.0985 5.10458 2.10641 5.10573L2.1208 5.00677L2.13519 4.90781C2.12674 4.90658 2.12017 4.90562 2.11393 4.90451L2.0964 5.00296ZM2.1208 5.00677L2.10641 5.10573C2.10904 5.10611 2.11147 5.10646 2.11389 5.10682L2.12859 5.00791L2.1433 4.909C2.14051 4.90858 2.13775 4.90818 2.13519 4.90781L2.1208 5.00677ZM2.12859 5.00791L2.11433 5.10689C2.16673 5.11444 2.22205 5.12 2.27981 5.12V5.02V4.92C2.23472 4.92 2.18951 4.91566 2.14286 4.90893L2.12859 5.00791ZM2.27981 5.02V5.12H12.9532V5.02V4.92H2.27981V5.02ZM12.9532 5.02V5.12C13.3397 5.12 13.6544 5.43464 13.6544 5.82125H13.7544H13.8544C13.8544 5.32416 13.4501 4.92 12.9532 4.92V5.02ZM12.3066 7.81112V7.71112C11.5686 7.71112 10.9683 8.31137 10.9683 9.04941H11.0683H11.1683C11.1683 8.42183 11.6791 7.91112 12.3066 7.91112V7.81112ZM11.0683 9.04941H10.9683V9.55551H11.0683H11.1683V9.04941H11.0683ZM11.0683 9.55551H10.9683C10.9683 10.2935 11.5686 10.8938 12.3066 10.8938V10.7938V10.6938C11.6791 10.6938 11.1683 10.1831 11.1683 9.55551H11.0683ZM13.7544 12.7835H13.6544C13.6544 13.1701 13.3397 13.4848 12.9532 13.4848V13.5848V13.6848C13.4501 13.6848 13.8544 13.2806 13.8544 12.7835H13.7544ZM2.4641 13.5848L2.46421 13.4848C2.27826 13.4846 2.09998 13.4106 1.96849 13.2791L1.89778 13.3498L1.82707 13.4205C1.99601 13.5895 2.22507 13.6845 2.46399 13.6848L2.4641 13.5848ZM1.89778 13.3498L1.96849 13.2791C1.83701 13.1476 1.76305 12.9694 1.76285 12.7834L1.66285 12.7835L1.56285 12.7836C1.56311 13.0226 1.65813 13.2516 1.82707 13.4205L1.89778 13.3498ZM1.88865 12.7834H1.98865V5.18418H1.88865H1.78865V12.7834H1.88865ZM1.88865 5.18418L1.85803 5.27937C1.91938 5.29911 1.98029 5.31331 2.03963 5.32378L2.057 5.2253L2.07438 5.12682C2.02241 5.11765 1.97054 5.10547 1.91927 5.08898L1.88865 5.18418ZM2.05745 13.1902L2.12816 13.1195C2.03898 13.0303 1.98881 12.9094 1.98865 12.7833L1.88865 12.7834L1.78865 12.7835C1.78888 12.9626 1.86012 13.1343 1.98674 13.2609L2.05745 13.1902ZM2.46434 13.359L2.46445 13.259C2.3383 13.2588 2.21736 13.2087 2.12816 13.1195L2.05745 13.1902L1.98674 13.2609C2.11339 13.3875 2.28512 13.4588 2.46423 13.459L2.46434 13.359ZM13.5286 12.7835H13.4286C13.4286 13.0454 13.215 13.259 12.9532 13.259V13.359V13.459C13.3254 13.459 13.6286 13.1559 13.6286 12.7835H13.5286ZM13.5286 11.0196H13.4286V12.7835H13.5286H13.6286V11.0196H13.5286ZM12.3066 11.0196V11.1196H13.5286V11.0196V10.9196H12.3066V11.0196ZM10.8425 9.55551H10.7425C10.7425 10.4183 11.4439 11.1196 12.3066 11.1196V11.0196V10.9196C11.5544 10.9196 10.9425 10.3078 10.9425 9.55551H10.8425ZM10.8425 9.04941H10.7425V9.55551H10.8425H10.9425V9.04941H10.8425ZM12.3066 7.58531V7.48531C11.4439 7.48531 10.7425 8.18667 10.7425 9.04941H10.8425H10.9425C10.9425 8.29712 11.5544 7.68531 12.3066 7.68531V7.58531ZM13.5286 7.58531V7.48531H12.3066V7.58531V7.68531H13.5286V7.58531ZM13.5286 5.82125H13.4286V7.58531H13.5286H13.6286V5.82125H13.5286ZM12.9532 5.2458V5.3458C13.215 5.3458 13.4286 5.55937 13.4286 5.82125H13.5286H13.6286C13.6286 5.44889 13.3254 5.1458 12.9532 5.1458V5.2458ZM2.27981 5.2458V5.3458H12.9532V5.2458V5.1458H2.27981V5.2458ZM2.09638 5.2314L2.08212 5.33038C2.14102 5.33887 2.20775 5.3458 2.27981 5.3458V5.2458V5.1458C2.22041 5.1458 2.16379 5.14009 2.11065 5.13243L2.09638 5.2314ZM2.09539 5.23126L2.08113 5.33024L2.08212 5.33038L2.09638 5.2314L2.11064 5.13243L2.10965 5.13228L2.09539 5.23126ZM2.09063 5.23056L2.07629 5.32953C2.07827 5.32982 2.07957 5.33001 2.08051 5.33015L2.09539 5.23126L2.11027 5.13237C2.10868 5.13213 2.10676 5.13186 2.10498 5.1316L2.09063 5.23056ZM2.057 5.2253L2.03954 5.32376C2.05335 5.32621 2.0683 5.32837 2.0763 5.32953L2.09063 5.23056L2.10497 5.1316C2.09663 5.13039 2.08469 5.12865 2.07446 5.12683L2.057 5.2253ZM10.9494 2.02178L10.9929 1.93175C10.9192 1.89612 10.8346 1.89024 10.7567 1.91532L10.7873 2.01051L10.818 2.1057C10.847 2.09637 10.8784 2.09856 10.9059 2.11181L10.9494 2.02178ZM11.0589 2.14177L11.1525 2.10664C11.1238 2.03 11.0666 1.96737 10.9929 1.93175L10.9494 2.02178L10.9059 2.11181C10.9333 2.12507 10.9546 2.14837 10.9653 2.17689L11.0589 2.14177ZM11.3478 2.9117L11.4414 2.87657L11.1525 2.10664L11.0589 2.14177L10.9653 2.1769L11.2541 2.94683L11.3478 2.9117ZM11.8964 2.9117V2.8117H11.3478V2.9117V3.0117H11.8964V2.9117ZM13.1347 4.14999H13.2347C13.2347 3.41195 12.6344 2.8117 11.8964 2.8117V2.9117V3.0117C12.524 3.0117 13.0347 3.52241 13.0347 4.14999H13.1347ZM13.1347 4.59767H13.2347V4.14999H13.1347H13.0347V4.59767H13.1347ZM14.1915 5.82111H14.2915C14.2915 5.14949 13.7942 4.59414 13.1493 4.49875L13.1347 4.59767L13.1201 4.69659C13.6689 4.77777 14.0915 5.25064 14.0915 5.82111H14.1915ZM14.2643 7.81097V7.71097H14.1915V7.81097V7.91097H14.2643V7.81097ZM14.7742 8.32086H14.8742C14.8742 7.98463 14.6007 7.71097 14.2643 7.71097V7.81097V7.91097C14.4902 7.91097 14.6742 8.09505 14.6742 8.32086H14.7742ZM14.7742 10.2838H14.8742V8.32086H14.7742H14.6742V10.2838H14.7742ZM14.2643 10.7937V10.8937C14.6007 10.8937 14.8742 10.6202 14.8742 10.2838H14.7742H14.6742C14.6742 10.5097 14.4902 10.6937 14.2643 10.6937V10.7937ZM14.1915 10.7937V10.8937H14.2643V10.7937V10.6937H14.1915V10.7937ZM12.9532 14.0218V14.1218C13.6912 14.1218 14.2915 13.5216 14.2915 12.7835H14.1915H14.0915C14.0915 13.4111 13.5808 13.9218 12.9532 13.9218V14.0218ZM1.2258 12.7835H1.1258C1.1258 13.5216 1.72606 14.1218 2.4641 14.1218V14.0218V13.9218C1.83652 13.9218 1.3258 13.4111 1.3258 12.7835H1.2258ZM1.2258 3.9657H1.1258V12.7835H1.2258H1.3258V3.9657H1.2258ZM2.27981 2.9117V2.8117C1.64346 2.8117 1.1258 3.32935 1.1258 3.9657H1.2258H1.3258C1.3258 3.43981 1.75391 3.0117 2.27981 3.0117V2.9117ZM7.99009 2.9117V2.8117H2.27981V2.9117V3.0117H7.99009V2.9117ZM10.7873 2.01051L10.7567 1.91533L7.95943 2.81651L7.99009 2.9117L8.02076 3.00688L10.818 2.10569L10.7873 2.01051ZM7.95462 2.68589V2.58589H2.27981V2.68589V2.78589H7.95462V2.68589ZM2.27981 2.68589V2.58589C1.51875 2.58589 0.9 3.20464 0.9 3.9657H1H1.1C1.1 3.3151 1.62921 2.78589 2.27981 2.78589V2.68589ZM1 3.9657H0.9V12.7835H1H1.1V3.9657H1ZM1 12.7835H0.9C0.9 13.6463 1.60135 14.3476 2.4641 14.3476V14.2476V14.1476C1.71181 14.1476 1.1 13.5358 1.1 12.7835H1ZM12.9532 14.2476V14.3476C13.8159 14.3476 14.5173 13.6463 14.5173 12.7835H14.4173H14.3173C14.3173 13.5358 13.7055 14.1476 12.9532 14.1476V14.2476ZM14.4173 12.7835H14.5173V11.0035H14.4173H14.3173V12.7835H14.4173ZM14.4173 11.0035L14.438 11.1013C14.8158 11.0212 15.1 10.6855 15.1 10.2838H15H14.9C14.9 10.589 14.684 10.8447 14.3965 10.9057L14.4173 11.0035ZM15 10.2838H15.1V8.32086H15H14.9V10.2838H15ZM15 8.32086H15.1C15.1 7.91934 14.8159 7.58346 14.438 7.50332L14.4173 7.60114L14.3965 7.69897C14.684 7.75993 14.9 8.01583 14.9 8.32086H15ZM14.4173 7.60114H14.5173V5.82111H14.4173H14.3173V7.60114H14.4173ZM14.4173 5.82111H14.5173C14.5173 5.10846 14.039 4.50891 13.3883 4.32024L13.3605 4.41629L13.3327 4.51233C13.9007 4.67702 14.3173 5.20037 14.3173 5.82111H14.4173ZM13.3605 4.41629H13.4605V4.14999H13.3605H13.2605V4.41629H13.3605ZM13.3605 4.14999H13.4605C13.4605 3.28724 12.7591 2.58589 11.8964 2.58589V2.68589V2.78589C12.6487 2.78589 13.2605 3.3977 13.2605 4.14999H13.3605ZM11.8964 2.68589V2.58589H11.5042V2.68589V2.78589H11.8964V2.68589ZM11.5042 2.68589L11.5978 2.65076L11.3639 2.02733L11.2703 2.06246L11.1767 2.09759L11.4106 2.72102L11.5042 2.68589ZM1.66285 3.96599H1.76285C1.76285 3.68103 1.9949 3.44889 2.27981 3.44889V3.34889V3.24889C1.88438 3.24889 1.56285 3.57063 1.56285 3.96599H1.66285ZM2.27981 4.58296V4.48296C1.99487 4.48296 1.76285 4.25093 1.76285 3.96599H1.66285H1.56285C1.56285 4.36139 1.88441 4.68296 2.27981 4.68296V4.58296ZM2.80295 4.58296V4.48296H2.27981V4.58296V4.68296H2.80295V4.58296ZM2.27981 3.57469V3.67469H5.19615V3.57469V3.47469H2.27981V3.57469ZM1.88865 3.96599H1.98865C1.98865 3.80567 2.11967 3.67469 2.27981 3.67469V3.57469V3.47469C2.00917 3.47469 1.78865 3.69526 1.78865 3.96599H1.88865ZM2.27981 4.35715V4.25715C2.11958 4.25715 1.98865 4.12623 1.98865 3.96599H1.88865H1.78865C1.78865 4.23668 2.00912 4.45715 2.27981 4.45715V4.35715ZM2.76748 4.35715V4.25715H2.27981V4.35715V4.45715H2.76748V4.35715ZM5.19615 3.57469L5.16549 3.47951L2.73681 4.26197L2.76748 4.35715L2.79814 4.45234L5.22682 3.66987L5.19615 3.57469ZM5.66549 4.35715L5.69615 4.45234L10.6179 2.86682L10.5872 2.77163L10.5565 2.67645L5.63482 4.26197L5.66549 4.35715ZM11.1822 4.35715V4.25715H5.66549V4.35715V4.45715H11.1822V4.35715ZM10.5872 2.77163L10.4936 2.80677L11.0886 4.39229L11.1822 4.35715L11.2759 4.32202L10.6808 2.7365L10.5872 2.77163ZM11.8964 3.34889V3.44889C12.2829 3.44889 12.5977 3.76352 12.5977 4.15014H12.6977H12.7977C12.7977 3.65304 12.3933 3.24889 11.8964 3.24889V3.34889ZM12.1314 4.35715L12.225 4.32202L11.9313 3.53955L11.8377 3.57469L11.7441 3.60982L12.0377 4.39229L12.1314 4.35715ZM12.4718 4.35715V4.25715H12.1314V4.35715V4.45715H12.4718V4.35715ZM12.4718 4.15014H12.3719V4.35715H12.4718H12.5718V4.15014H12.4718ZM11.8964 3.57469V3.67469C12.1582 3.67469 12.3719 3.88826 12.3719 4.15014H12.4718H12.5718C12.5718 3.77778 12.2686 3.47469 11.8964 3.47469V3.57469ZM11.8377 3.57469V3.67469H11.8964V3.57469V3.47469H11.8377V3.57469ZM14.1114 8.47382H14.0114V10.1308H14.1114H14.2114V8.47382H14.1114ZM12.3066 8.47382V8.57382H14.1114V8.47382V8.37382H12.3066V8.47382ZM11.7312 9.04927H11.8312C11.8312 8.78739 12.0448 8.57382 12.3066 8.57382V8.47382V8.37382C11.9344 8.37382 11.6312 8.67691 11.6312 9.04927H11.7312ZM11.7312 9.55512H11.8312V9.04927H11.7312H11.6312V9.55512H11.7312ZM11.9 9.96201L11.9707 9.8913C11.8815 9.8021 11.8313 9.68116 11.8312 9.55501L11.7312 9.55512L11.6312 9.55523C11.6314 9.73434 11.7026 9.90607 11.8293 10.0327L11.9 9.96201ZM12.3069 10.1308L12.307 10.0308C12.1808 10.0307 12.0599 9.9805 11.9707 9.8913L11.9 9.96201L11.8293 10.0327C11.9559 10.1594 12.1277 10.2306 12.3068 10.2308L12.3069 10.1308ZM14.1114 10.1308V10.0308H12.3069V10.1308V10.2308H14.1114V10.1308ZM11.7403 10.1217L11.811 10.051C11.6796 9.91948 11.6056 9.7412 11.6054 9.55526L11.5054 9.55536L11.4054 9.55547C11.4057 9.79439 11.5007 10.0234 11.6696 10.1924L11.7403 10.1217ZM12.3066 10.3566L12.3068 10.2566C12.1208 10.2564 11.9425 10.1825 11.811 10.051L11.7403 10.1217L11.6696 10.1924C11.8386 10.3613 12.0676 10.4564 12.3065 10.4566L12.3066 10.3566ZM14.2643 10.3566V10.2566H12.3066V10.3566V10.4566H14.2643V10.3566ZM14.3158 10.3353L14.2451 10.2646C14.2502 10.2595 14.2571 10.2566 14.2643 10.2566V10.3566V10.4566C14.3102 10.4566 14.3541 10.4384 14.3865 10.406L14.3158 10.3353ZM14.3372 10.2838H14.2372C14.2372 10.2766 14.24 10.2697 14.2451 10.2646L14.3158 10.3353L14.3865 10.406C14.4189 10.3736 14.4372 10.3296 14.4372 10.2838H14.3372ZM14.3372 8.32086H14.2372V10.2838H14.3372H14.4372V8.32086H14.3372ZM14.3158 8.26935L14.2451 8.34006C14.24 8.33497 14.2372 8.32806 14.2372 8.32086H14.3372H14.4372C14.4372 8.27502 14.4189 8.23105 14.3865 8.19864L14.3158 8.26935ZM14.2643 8.24802V8.34802C14.2571 8.34802 14.2502 8.34515 14.2451 8.34006L14.3158 8.26935L14.3865 8.19864C14.3541 8.16623 14.3102 8.14802 14.2643 8.14802V8.24802ZM12.3066 8.24802V8.34802H14.2643V8.24802V8.14802H12.3066V8.24802ZM11.5054 9.04927H11.6054C11.6054 8.66265 11.9202 8.34802 12.3066 8.34802V8.24802V8.14802C11.8097 8.14802 11.4054 8.55217 11.4054 9.04927H11.5054ZM11.5054 9.55536H11.6054V9.04927H11.5054H11.4054V9.55536H11.5054ZM1.66285 12.7835H1.76285V4.81998H1.66285H1.56285V12.7835H1.66285ZM13.7544 5.82125H13.6544V7.81112H13.7544H13.8544V5.82125H13.7544ZM13.7544 7.81112V7.71112H12.3066V7.81112V7.91112H13.7544V7.81112ZM12.3066 10.7938V10.8938H13.7544V10.7938V10.6938H12.3066V10.7938ZM13.7544 10.7938H13.6544V12.7835H13.7544H13.8544V10.7938H13.7544ZM12.9532 13.5848V13.4848H2.4641V13.5848V13.6848H12.9532V13.5848ZM12.9532 13.359V13.259H2.46434V13.359V13.459H12.9532V13.359ZM14.1915 7.81097H14.2915V5.82111H14.1915H14.0915V7.81097H14.1915ZM14.1915 12.7835H14.2915V10.7937H14.1915H14.0915V12.7835H14.1915ZM2.4641 14.0218V14.1218H12.9532V14.0218V13.9218H2.4641V14.0218ZM2.4641 14.2476V14.3476H12.9532V14.2476V14.1476H2.4641V14.2476ZM2.27981 3.34889V3.44889H6.63336V3.34889V3.24889H2.27981V3.34889ZM6.63336 3.34889L6.6027 3.2537L2.77229 4.48777L2.80295 4.58296L2.83362 4.67814L6.66403 3.44407L6.63336 3.34889ZM4.22816 4.58296L4.25882 4.67814L10.7536 2.58586L10.7229 2.49068L10.6923 2.39549L4.19749 4.48777L4.22816 4.58296ZM11.5082 4.58296V4.48296H4.22816V4.58296V4.68296H11.5082V4.58296ZM10.7229 2.49068L10.6293 2.52581L11.4145 4.61809L11.5082 4.58296L11.6018 4.54782L10.8166 2.45554L10.7229 2.49068ZM11.5118 3.34889V3.44889H11.8964V3.34889V3.24889H11.5118V3.34889ZM11.9749 4.58296L12.0686 4.54782L11.6054 3.31375L11.5118 3.34889L11.4182 3.38402L11.8813 4.61809L11.9749 4.58296ZM12.6977 4.58296V4.48296H11.9749V4.58296V4.68296H12.6977V4.58296ZM12.6977 4.15014H12.5977V4.58296H12.6977H12.7977V4.15014H12.6977Z" fill="#656462" mask="url(#path-2-outside-1_14170_20313)"/>
    <path d="M12.8729 8.66797C12.7052 8.66812 12.5444 8.73481 12.4258 8.8534C12.3072 8.97199 12.2404 9.13279 12.2402 9.30052C12.2402 9.64943 12.524 9.93307 12.8729 9.93307C13.2218 9.93307 13.5055 9.64928 13.5055 9.30052C13.5053 9.13282 13.4386 8.97204 13.32 8.85345C13.2014 8.73487 13.0406 8.66816 12.8729 8.66797ZM12.8729 9.49617C12.7651 9.49617 12.6773 9.40847 12.6773 9.30066C12.6787 9.24972 12.6999 9.20133 12.7364 9.16578C12.7729 9.13024 12.8219 9.11035 12.8729 9.11035C12.9238 9.11035 12.9728 9.13024 13.0093 9.16578C13.0458 9.20133 13.067 9.24972 13.0684 9.30066C13.0684 9.40832 12.9807 9.49617 12.8729 9.49617Z" fill="#656462"/>
</svg>
