<svg width="46" height="57" viewBox="0 0 46 57" fill="none" xmlns="http://www.w3.org/2000/svg">
<path d="M5.00002 9.00002L18 9.00008L34 9.00002C36.7614 9.00001 39 11.2386 39 14V52C39 54.7614 36.7614 57 34 57H5C2.23858 57 0 54.7614 0 52V14C0 11.2386 2.23859 9.00001 5.00002 9.00002Z" fill="#1C6252"/>
<rect x="20" width="26" height="36" rx="5" fill="#24816C" fill-opacity="0.5"/>
<g clip-path="url(#clip0_8916_102495)">
<path d="M20 36C23.3137 36 26 33.3137 26 30C26 26.6863 23.3137 24 20 24C16.6863 24 14 26.6863 14 30C14 33.3137 16.6863 36 20 36Z" stroke="white" stroke-width="3" stroke-miterlimit="10"/>
<path d="M10.9053 41.2491C11.8274 39.6531 13.1532 38.3278 14.7497 37.4064C16.3461 36.485 18.1569 36 20.0002 36C21.8434 36 23.6542 36.4851 25.2506 37.4065C26.8471 38.3279 28.1729 39.6533 29.0949 41.2493" stroke="white" stroke-width="3" stroke-linecap="square" stroke-linejoin="round"/>
</g>
<defs>
<clipPath id="clip0_8916_102495">
<rect width="24" height="24" fill="white" transform="translate(8 21)"/>
</clipPath>
</defs>
</svg>
