<svg width="41" height="50" viewBox="0 0 41 50" fill="none" xmlns="http://www.w3.org/2000/svg">
    <path d="M5.15763 7.93752L16.1251 7.93757L29.7176 7.93752C32.359 7.93751 34.5003 10.0788 34.5003 12.7201V45.1552C34.5003 47.7966 32.359 49.9378 29.7177 49.9378H5.15761C2.51625 49.9378 0.375 47.7966 0.375 45.1552V12.7201C0.375 10.0788 2.51626 7.93751 5.15763 7.93752Z" fill="#ED6C18"/>
    <rect x="17.875" y="0.0625" width="22.7502" height="31.5003" rx="4.78261" fill="#ED6C18" fill-opacity="0.5"/>
    <g clip-path="url(#clip0_13558_15019)">
        <path d="M17.875 31.5587C20.7746 31.5587 23.1251 29.2082 23.1251 26.3086C23.1251 23.4091 20.7746 21.0586 17.875 21.0586C14.9755 21.0586 12.625 23.4091 12.625 26.3086C12.625 29.2082 14.9755 31.5587 17.875 31.5587Z" stroke="white" stroke-width="2.86957" stroke-miterlimit="10"/>
        <path d="M9.91602 36.1516C10.7228 34.7551 11.883 33.5954 13.2799 32.7892C14.6768 31.983 16.2612 31.5586 17.8741 31.5586C19.487 31.5586 21.0714 31.9831 22.4683 32.7893C23.8652 33.5956 25.0253 34.7552 25.8321 36.1518" stroke="white" stroke-width="2.86957" stroke-linecap="square" stroke-linejoin="round"/>
    </g>
    <defs>
        <clipPath id="clip0_13558_15019">
            <rect width="21.0002" height="21.0002" fill="white" transform="translate(7.375 18.4336)"/>
        </clipPath>
    </defs>
</svg>
