<svg width="41" height="50" viewBox="0 0 41 50" fill="none" xmlns="http://www.w3.org/2000/svg">
    <circle cx="17.2843" cy="29.1241" r="17.2843" fill="#ED6C18"/>
    <path d="M40.9992 26.3136C40.9992 13.4379 30.5613 3 17.6855 3V26.3136H40.9992Z" fill="#ED6C18" fill-opacity="0.5"/>
    <path d="M15.8555 39.8374V37.6089C15.0066 37.5028 14.177 37.3147 13.3666 37.0446C12.5659 36.7648 11.8617 36.3741 11.2539 35.8724L12.2958 33.5282C12.537 33.7501 12.8987 34.0009 13.3811 34.2807C13.8634 34.5508 14.423 34.7872 15.0597 34.9897C15.6964 35.1923 16.3668 35.2936 17.0711 35.2936C17.5438 35.2936 17.9972 35.2213 18.4313 35.0766C18.8751 34.9319 19.2368 34.6955 19.5166 34.3675C19.7963 34.0395 19.9362 33.5957 19.9362 33.0362C19.9362 32.5732 19.7626 32.1921 19.4153 31.893C19.068 31.594 18.6291 31.348 18.0985 31.155C17.5679 30.9525 17.0228 30.7692 16.4633 30.6052C15.5951 30.3543 14.7702 30.0312 13.9888 29.6356C13.2171 29.2305 12.5852 28.6902 12.0932 28.0149C11.6108 27.33 11.3697 26.4377 11.3697 25.3379C11.3697 24.1802 11.7556 23.177 12.5273 22.328C13.2991 21.4791 14.4085 20.9292 15.8555 20.6784V17.8711H19.2995V20.6928C20.1774 20.8568 20.9154 21.1028 21.5135 21.4308C22.1116 21.7588 22.5216 22.0675 22.7435 22.357L21.5859 24.5854C21.4894 24.4504 21.2579 24.2622 20.8913 24.0211C20.5247 23.7702 20.0761 23.5484 19.5455 23.3554C19.0149 23.1528 18.4602 23.0515 17.8814 23.0515C17.1193 23.0515 16.444 23.2204 15.8555 23.558C15.2767 23.8957 14.9873 24.4214 14.9873 25.1353C14.9873 25.6755 15.161 26.1145 15.5082 26.4521C15.8652 26.7801 16.2993 27.0406 16.8106 27.2335C17.3219 27.4265 17.8139 27.576 18.2866 27.6821C19.2802 27.9136 20.1871 28.2561 21.007 28.7095C21.8367 29.1533 22.4975 29.7128 22.9895 30.3881C23.4815 31.0538 23.7275 31.84 23.7275 32.7468C23.7275 34.0106 23.332 35.0621 22.5409 35.9014C21.7499 36.731 20.6694 37.2761 19.2995 37.5366V39.8374H15.8555Z" fill="white"/>
</svg>
