<svg width="51" height="54" viewBox="0 0 51 54" fill="none" xmlns="http://www.w3.org/2000/svg">
<circle cx="21.5" cy="32.5" r="21.5" fill="#1C6252"/>
<path d="M51 29C51 12.9837 38.0163 0 22 0V29H51Z" fill="#24816C" fill-opacity="0.5"/>
<path d="M19.724 45.824V43.052C18.668 42.92 17.636 42.686 16.628 42.35C15.632 42.002 14.756 41.516 14 40.892L15.296 37.976C15.596 38.252 16.046 38.564 16.646 38.912C17.246 39.248 17.942 39.542 18.734 39.794C19.526 40.046 20.36 40.172 21.236 40.172C21.824 40.172 22.388 40.082 22.928 39.902C23.48 39.722 23.93 39.428 24.278 39.02C24.626 38.612 24.8 38.06 24.8 37.364C24.8 36.788 24.584 36.314 24.152 35.942C23.72 35.57 23.174 35.264 22.514 35.024C21.854 34.772 21.176 34.544 20.48 34.34C19.4 34.028 18.374 33.626 17.402 33.134C16.442 32.63 15.656 31.958 15.044 31.118C14.444 30.266 14.144 29.156 14.144 27.788C14.144 26.348 14.624 25.1 15.584 24.044C16.544 22.988 17.924 22.304 19.724 21.992V18.5H24.008V22.01C25.1 22.214 26.018 22.52 26.762 22.928C27.506 23.336 28.016 23.72 28.292 24.08L26.852 26.852C26.732 26.684 26.444 26.45 25.988 26.15C25.532 25.838 24.974 25.562 24.314 25.322C23.654 25.07 22.964 24.944 22.244 24.944C21.296 24.944 20.456 25.154 19.724 25.574C19.004 25.994 18.644 26.648 18.644 27.536C18.644 28.208 18.86 28.754 19.292 29.174C19.736 29.582 20.276 29.906 20.912 30.146C21.548 30.386 22.16 30.572 22.748 30.704C23.984 30.992 25.112 31.418 26.132 31.982C27.164 32.534 27.986 33.23 28.598 34.07C29.21 34.898 29.516 35.876 29.516 37.004C29.516 38.576 29.024 39.884 28.04 40.928C27.056 41.96 25.712 42.638 24.008 42.962V45.824H19.724Z" fill="white"/>
</svg>
