<svg width="51" height="54" viewBox="0 0 51 54" fill="none" xmlns="http://www.w3.org/2000/svg">
<circle cx="21.5" cy="32.5" r="21.5" fill="#1C6252"/>
<path d="M51 29C51 12.9837 38.0163 0 22 0V29H51Z" fill="#24816C" fill-opacity="0.5"/>
<path d="M22.3291 21C23.7585 21 25.0278 21.2667 26.1371 21.8C27.2465 22.3333 28.1105 23.1013 28.7291 24.104C29.3478 25.1067 29.6571 26.3227 29.6571 27.752C29.6571 29.2027 29.3371 30.408 28.6971 31.368C28.0571 32.3067 27.1825 33.0107 26.0731 33.48C24.9638 33.9493 23.7051 34.1947 22.2971 34.216L22.1371 36.68H18.3611L18.2011 31.304H19.5771C20.4091 31.304 21.1771 31.2613 21.8811 31.176C22.5851 31.0693 23.1825 30.888 23.6731 30.632C24.1851 30.376 24.5798 30.0133 24.8571 29.544C25.1345 29.0747 25.2731 28.4667 25.2731 27.72C25.2731 27.08 25.1558 26.536 24.9211 26.088C24.6865 25.64 24.3451 25.2987 23.8971 25.064C23.4705 24.808 22.9265 24.68 22.2651 24.68C21.2838 24.68 20.5051 24.9467 19.9291 25.48C19.3745 25.992 19.0971 26.7387 19.0971 27.72H15.0011C14.9798 26.4187 15.2571 25.2667 15.8331 24.264C16.4091 23.2613 17.2411 22.472 18.3291 21.896C19.4385 21.2987 20.7718 21 22.3291 21ZM20.3771 43.848C19.5878 43.848 18.9371 43.6027 18.4251 43.112C17.9345 42.6213 17.6891 42.0133 17.6891 41.288C17.6891 40.5627 17.9345 39.9547 18.4251 39.464C18.9371 38.952 19.5878 38.696 20.3771 38.696C21.1451 38.696 21.7745 38.952 22.2651 39.464C22.7771 39.9547 23.0331 40.5627 23.0331 41.288C23.0331 42.0133 22.7771 42.6213 22.2651 43.112C21.7745 43.6027 21.1451 43.848 20.3771 43.848Z" fill="white"/>
</svg>
