<svg width="41" height="50" viewBox="0 0 41 50" fill="none" xmlns="http://www.w3.org/2000/svg">
    <circle cx="17.2843" cy="29.1241" r="17.2843" fill="#ED6C18"/>
    <path d="M40.9992 26.3136C40.9992 13.4379 30.5613 3 17.6855 3V26.3136H40.9992Z" fill="#ED6C18" fill-opacity="0.5"/>
    <path d="M17.9506 19.8789C19.0997 19.8789 20.1201 20.0933 21.012 20.522C21.9038 20.9508 22.5984 21.5682 23.0957 22.3743C23.5931 23.1803 23.8417 24.1579 23.8417 25.307C23.8417 26.4732 23.5845 27.4422 23.07 28.2139C22.5555 28.9685 21.8523 29.5345 20.9605 29.9118C20.0687 30.2891 19.0568 30.4863 17.9249 30.5035L17.7963 32.4844H14.7607L14.6321 28.1625H15.7382C16.4071 28.1625 17.0245 28.1282 17.5905 28.0596C18.1564 27.9738 18.6366 27.8281 19.0311 27.6223C19.4427 27.4164 19.76 27.1249 19.9829 26.7476C20.2059 26.3703 20.3174 25.8815 20.3174 25.2812C20.3174 24.7667 20.223 24.3294 20.0344 23.9692C19.8457 23.6091 19.5713 23.3347 19.2112 23.146C18.8682 22.9402 18.4308 22.8373 17.8992 22.8373C17.1103 22.8373 16.4843 23.0517 16.0212 23.4805C15.5753 23.8921 15.3524 24.4923 15.3524 25.2812H12.0595C12.0424 24.2351 12.2653 23.309 12.7284 22.5029C13.1914 21.6968 13.8603 21.0623 14.735 20.5992C15.6268 20.119 16.6987 19.8789 17.9506 19.8789ZM16.3814 38.2468C15.7468 38.2468 15.2237 38.0496 14.8121 37.6552C14.4177 37.2607 14.2204 36.7719 14.2204 36.1888C14.2204 35.6057 14.4177 35.1169 14.8121 34.7225C15.2237 34.3109 15.7468 34.1051 16.3814 34.1051C16.9988 34.1051 17.5047 34.3109 17.8992 34.7225C18.3108 35.1169 18.5166 35.6057 18.5166 36.1888C18.5166 36.7719 18.3108 37.2607 17.8992 37.6552C17.5047 38.0496 16.9988 38.2468 16.3814 38.2468Z" fill="white"/>
</svg>
