<svg width="41" height="50" viewBox="0 0 41 50" fill="none" xmlns="http://www.w3.org/2000/svg">
    <rect x="14.6426" y="4.13281" width="26.3565" height="26.3565" rx="3.92857" fill="#ED6C18" fill-opacity="0.5"/>
    <path d="M3.92858 14.3828L14.5298 14.3829L27.5527 14.3828C29.7224 14.3828 31.4813 16.1417 31.4813 18.3114V41.9356C31.4813 44.1052 29.7224 45.8641 27.5527 45.8641H3.92857C1.75888 45.8641 0 44.1052 0 41.9356V18.3114C0 16.1417 1.75889 14.3828 3.92858 14.3828Z" fill="#ED6C18"/>
    <path d="M8.947 20.9688L10.2162 20.9688L12.0898 20.9688C13.3917 20.9688 14.447 22.0241 14.447 23.3259V26.4688C14.447 27.7706 13.3917 28.8259 12.0898 28.8259H8.94699C7.64517 28.8259 6.58984 27.7706 6.58984 26.4688V23.3259C6.58984 22.0241 7.64518 20.9688 8.947 20.9688Z" stroke="white" stroke-width="2.35714"/>
    <path d="M20.7322 20.9688L22.0014 20.9688L23.875 20.9688C25.1768 20.9688 26.2321 22.0241 26.2321 23.3259V26.4688C26.2321 27.7706 25.1768 28.8259 23.875 28.8259H20.7321C19.4303 28.8259 18.375 27.7706 18.375 26.4688V23.3259C18.375 22.0241 19.4303 20.9688 20.7322 20.9688Z" stroke="white" stroke-width="2.35714"/>
    <path d="M8.947 32.7539L10.2162 32.7539L12.0898 32.7539C13.3917 32.7539 14.447 33.8092 14.447 35.1111V38.2539C14.447 39.5557 13.3917 40.611 12.0898 40.611H8.94699C7.64517 40.611 6.58984 39.5557 6.58984 38.2539V35.1111C6.58984 33.8092 7.64518 32.7539 8.947 32.7539Z" stroke="white" stroke-width="2.35714"/>
    <path d="M20.7322 32.7539L22.0014 32.7539L23.875 32.7539C25.1768 32.7539 26.2321 33.8092 26.2321 35.1111V38.2539C26.2321 39.5557 25.1768 40.611 23.875 40.611H20.7321C19.4303 40.611 18.375 39.5557 18.375 38.2539V35.1111C18.375 33.8092 19.4303 32.7539 20.7322 32.7539Z" stroke="white" stroke-width="2.35714"/>
</svg>
