<svg width="56" height="63" viewBox="0 0 56 63" fill="none" xmlns="http://www.w3.org/2000/svg">
<rect x="20" y="3" width="36" height="36" rx="5" fill="#24816C" fill-opacity="0.5"/>
<path d="M5.00002 17L19.8462 17.0001L38 17C40.7614 17 43 19.2386 43 22V55C43 57.7614 40.7614 60 38 60H5C2.23858 60 0 57.7614 0 55V22C0 19.2386 2.23859 17 5.00002 17Z" fill="#1C6252"/>
<path d="M12 26L13.6154 26L16 26C17.6568 26 19 27.3432 19 29V33C19 34.6569 17.6569 36 16 36H12C10.3431 36 9 34.6569 9 33V29C9 27.3432 10.3432 26 12 26Z" stroke="white" stroke-width="3"/>
<path d="M27 26L28.6154 26L31 26C32.6568 26 34 27.3432 34 29V33C34 34.6569 32.6569 36 31 36H27C25.3431 36 24 34.6569 24 33V29C24 27.3432 25.3432 26 27 26Z" stroke="white" stroke-width="3"/>
<path d="M12 41L13.6154 41L16 41C17.6568 41 19 42.3432 19 44V48C19 49.6569 17.6569 51 16 51H12C10.3431 51 9 49.6569 9 48V44C9 42.3432 10.3432 41 12 41Z" stroke="white" stroke-width="3"/>
<path d="M27 41L28.6154 41L31 41C32.6568 41 34 42.3432 34 44V48C34 49.6569 32.6569 51 31 51H27C25.3431 51 24 49.6569 24 48V44C24 42.3432 25.3432 41 27 41Z" stroke="white" stroke-width="3"/>
</svg>
