<svg width="39" height="23" viewBox="0 0 39 23" fill="none" xmlns="http://www.w3.org/2000/svg">
<path id="Vector" opacity="0.5" d="M29.5737 4.14649L29.5737 4.14653C29.0185 4.77962 28.1759 5.0875 27.0982 5.0875C26.9711 5.0875 26.8491 5.03737 26.7589 4.94782C26.6687 4.85823 26.6179 4.73651 26.6179 4.60938C26.6179 4.48224 26.6687 4.36052 26.7589 4.27093C26.8491 4.18138 26.9711 4.13125 27.0982 4.13125C27.9251 4.13125 28.5022 3.91372 28.8507 3.51684C29.1414 3.18494 29.2386 2.77145 29.2664 2.4625H23.3609L27.6249 8.9613C28.6441 8.39638 29.8143 8.06875 31.0625 8.06875C34.9699 8.06875 38.15 11.2259 38.15 15.1094C38.15 18.9929 34.9699 22.15 31.0625 22.15C27.1551 22.15 23.975 18.9929 23.975 15.1094C23.975 12.8075 25.0963 10.7666 26.8185 9.48243L24.5737 6.06079L20.1472 14.6956H22.4969C22.497 14.6956 22.497 14.6956 22.497 14.6956C22.6133 14.6955 22.7258 14.7375 22.8135 14.8139C22.9013 14.8903 22.9582 14.996 22.9734 15.1114L22.9736 15.1126L22.9736 15.1131C22.981 15.1722 23.1293 16.3648 22.3307 17.2705L22.3306 17.2706C21.7712 17.9043 20.9201 18.2125 19.8304 18.2125C19.7033 18.2125 19.5812 18.1624 19.4911 18.0728C19.4009 17.9832 19.35 17.8615 19.35 17.7344C19.35 17.6072 19.4009 17.4855 19.4911 17.3959C19.5812 17.3064 19.7033 17.2563 19.8304 17.2563C20.6686 17.2563 21.2536 17.039 21.6052 16.6432L21.7174 16.7428L21.6052 16.6432C21.8904 16.3221 21.9867 15.921 21.9949 15.5875H14.9638C14.7159 19.2799 11.6617 22.15 7.9375 22.15C4.03008 22.15 0.85 18.9929 0.85 15.1094C0.85 11.2259 4.03008 8.06875 7.9375 8.06875H7.93763C8.9916 8.06965 10.0313 8.30558 10.9804 8.75843L12.8847 5.42022L10.692 1.80625H9.25893C9.13186 1.80625 9.00979 1.75612 8.91962 1.66657C8.82943 1.57698 8.77857 1.45526 8.77857 1.32812C8.77857 1.20099 8.82943 1.07927 8.91962 0.989681M29.5737 4.14649L8.91962 0.989681C8.91962 0.989681 8.91962 0.989681 8.91962 0.989681M29.5737 4.14649C29.9835 3.67895 30.1449 3.13326 30.204 2.70409C30.2626 2.27911 30.2223 1.95861 30.2167 1.91922M29.5737 4.14649L30.2167 1.91922M8.91962 0.989681C9.00979 0.900128 9.13186 0.85 9.25893 0.85H15.2054C15.3324 0.85 15.4545 0.900128 15.5447 0.989681M8.91962 0.989681L30.2167 1.91922M30.2167 1.91922C30.2009 1.80453 30.1438 1.69964 30.0563 1.62381L29.9581 1.73716L30.0563 1.62381C29.9689 1.54801 29.8569 1.50633 29.7412 1.50625H29.7411H22.544C22.5069 1.46793 22.4634 1.43595 22.4153 1.41179C22.3417 1.37475 22.2597 1.3573 22.1773 1.36108C22.0949 1.36485 22.0149 1.38973 21.9449 1.43338C21.875 1.47703 21.8174 1.53799 21.778 1.61044C21.7387 1.68288 21.7188 1.76429 21.7204 1.84673C21.722 1.92918 21.7451 2.00974 21.7873 2.08058C21.8295 2.15142 21.8894 2.21009 21.961 2.25097C22.0076 2.27761 22.0582 2.29612 22.1106 2.30595L23.7897 4.86494H13.6697L11.8147 1.80625H15.2054C15.3324 1.80625 15.4545 1.75612 15.5447 1.66657C15.6349 1.57698 15.6857 1.45526 15.6857 1.32812C15.6857 1.20099 15.6349 1.07927 15.5447 0.989681M15.5447 0.989681C15.5447 0.989681 15.5447 0.98968 15.5447 0.98968L15.439 1.09611L15.5447 0.989681ZM7.45865 15.4144C7.50062 15.486 7.56548 15.553 7.65203 15.5883C7.73164 15.6208 7.82059 15.6223 7.90688 15.5868H14.0329C13.7565 18.751 11.132 21.1938 7.9375 21.1938C4.55856 21.1938 1.81071 18.463 1.81071 15.1094C1.81071 11.7557 4.55856 9.025 7.9375 9.025C8.85426 9.025 9.72215 9.23168 10.5048 9.5926L7.45586 14.937L7.586 15.0116L7.45571 14.9373L7.45582 14.9371C7.41413 15.0098 7.3924 15.0923 7.39291 15.1762C7.39342 15.26 7.41612 15.3422 7.45865 15.4144ZM7.45865 15.4144C7.45862 15.4143 7.45858 15.4143 7.45855 15.4142L7.58798 15.3384L7.45876 15.4146C7.45872 15.4145 7.45869 15.4145 7.45865 15.4144ZM31.5295 14.9122L28.151 9.76336C29.0432 9.27944 30.0442 9.02513 31.0625 9.025C34.4414 9.025 37.1893 11.7557 37.1893 15.1094C37.1893 18.463 34.4414 21.1938 31.0625 21.1938C27.6836 21.1938 24.9357 18.463 24.9357 15.1094C24.9357 13.1444 25.8824 11.3976 27.3454 10.2844L30.725 15.4351L30.7253 15.4356C30.7953 15.5414 30.9043 15.6151 31.0284 15.6411C31.1525 15.6671 31.2819 15.6434 31.3886 15.5749L31.3896 15.5743C31.4958 15.505 31.5704 15.3966 31.5968 15.2725C31.6231 15.1484 31.599 15.0191 31.5298 14.9127L31.5295 14.9122ZM23.6195 5.74375L19.3284 14.1884L14.249 5.74375H23.6195ZM13.4538 6.35874L18.512 14.6956H15.0046C14.9395 13.6011 14.6177 12.5362 14.064 11.5864C13.5102 10.6363 12.7406 9.82894 11.8174 9.22812L13.4538 6.35874ZM13.2342 12.0673C13.7025 12.8713 13.9786 13.7704 14.0425 14.6956H8.69854L11.3423 10.0603C12.1185 10.5767 12.7659 11.2631 13.2342 12.0673Z" fill="#33CB98" stroke="#33CB98" stroke-width="0.3"/>
</svg>
