<svg xmlns="http://www.w3.org/2000/svg" width="23" height="30" viewBox="0 0 23 30" fill="none">
    <mask id="path-1-outside-1_10619_33780" maskUnits="userSpaceOnUse" x="-0.632812" y="-0.117188" width="24" height="30" fill="black">
        <rect fill="white" x="-0.632812" y="-0.117188" width="24" height="30"/>
        <path d="M15.0726 29.1172H12.7198C12.5638 29.1172 12.4141 29.0552 12.3038 28.9449C12.1935 28.8346 12.1315 28.685 12.1315 28.529V25.5879H9.77868V28.529C9.77868 28.685 9.71671 28.8346 9.60639 28.9449C9.49608 29.0552 9.34647 29.1172 9.19046 29.1172H6.8376C6.68159 29.1172 6.53198 29.0552 6.42167 28.9449C6.31135 28.8346 6.24938 28.685 6.24938 28.529V25.5879H0.955435C0.862249 25.5881 0.770365 25.566 0.687472 25.5234C0.604579 25.4809 0.533088 25.4191 0.47898 25.3432C0.424063 25.2677 0.388035 25.1801 0.373913 25.0878C0.35979 24.9955 0.367983 24.9011 0.397806 24.8126L1.57424 21.2833C1.61343 21.1665 1.68835 21.0649 1.78841 20.9929C1.88847 20.9209 2.00861 20.8822 2.13187 20.8822H4.48473V9.11784H2.13187C1.97586 9.11784 1.82625 9.05587 1.71594 8.94555C1.60562 8.83524 1.54365 8.68563 1.54365 8.52962V5.00033C1.54365 4.84432 1.60562 4.69471 1.71594 4.58439C1.82625 4.47408 1.97586 4.41211 2.13187 4.41211H6.24938V1.47103C6.24938 1.31502 6.31135 1.16541 6.42167 1.0551C6.53198 0.944785 6.68159 0.882813 6.8376 0.882813H9.19046C9.34647 0.882813 9.49608 0.944785 9.60639 1.0551C9.71671 1.16541 9.77868 1.31502 9.77868 1.47103V4.40858L12.1315 4.41211V1.47103C12.1315 1.31502 12.1935 1.16541 12.3038 1.0551C12.4141 0.944785 12.5638 0.882813 12.7198 0.882813H15.0726C15.2284 0.882812 15.3779 0.944623 15.4881 1.05468C15.5984 1.16474 15.6605 1.31405 15.6608 1.46985L15.6655 4.49211C16.6585 4.53328 18.6184 4.7921 20.0125 6.10029C21.0277 7.05438 21.543 8.3661 21.543 10.0002C21.543 12.426 20.5866 13.6824 19.676 14.3283C21.1289 15.0294 22.6677 16.4917 22.6677 19.1175C22.6677 21.3574 21.7406 25.1044 15.6608 25.5385V28.529C15.6608 28.685 15.5989 28.8346 15.4886 28.9449C15.3782 29.0552 15.2286 29.1172 15.0726 29.1172ZM13.308 27.9408H14.4844V24.9809C14.4843 24.8284 14.5434 24.682 14.6491 24.5722C14.7549 24.4625 14.8991 24.3981 15.0514 24.3926C19.3243 24.2397 21.4912 22.4645 21.4912 19.1163C21.4912 15.5706 18.0737 15.0141 17.9278 14.9929C17.786 14.9719 17.6568 14.8997 17.5645 14.7901C17.4721 14.6804 17.423 14.5408 17.4263 14.3975C17.4296 14.2542 17.4852 14.117 17.5825 14.0117C17.6798 13.9065 17.8123 13.8404 17.9549 13.8259C18.049 13.8153 20.3666 13.5024 20.3666 10.0002C20.3666 8.70373 19.976 7.68024 19.2078 6.95908C17.6772 5.52266 15.142 5.66383 15.115 5.66736C15.0348 5.67286 14.9543 5.66177 14.8786 5.63479C14.8029 5.6078 14.7336 5.5655 14.675 5.51052C14.6164 5.45554 14.5697 5.38907 14.5379 5.31526C14.5062 5.24144 14.4899 5.16187 14.4903 5.0815L14.4856 2.05924H13.308V5.00033C13.308 5.15679 13.2456 5.3062 13.1362 5.41678C13.0254 5.5266 12.8758 5.58831 12.7198 5.58854L9.18929 5.58384C9.03348 5.58352 8.88417 5.52141 8.77411 5.41114C8.66406 5.30086 8.60225 5.15142 8.60225 4.99562V2.05924H7.42581V5.00033C7.42581 5.15633 7.36384 5.30594 7.25353 5.41626C7.14322 5.52657 6.9936 5.58854 6.8376 5.58854H2.72008V7.94141H5.07295C5.22895 7.94141 5.37857 8.00338 5.48888 8.11369C5.59919 8.224 5.66116 8.37362 5.66116 8.52962V21.4704C5.66116 21.6264 5.59919 21.776 5.48888 21.8863C5.37857 21.9966 5.22895 22.0586 5.07295 22.0586H2.55538L1.7707 24.4115H6.8376C6.9936 24.4115 7.14322 24.4734 7.25353 24.5837C7.36384 24.6941 7.42581 24.8437 7.42581 24.9997V27.9408H8.60225V24.9997C8.60225 24.8437 8.66422 24.6941 8.77453 24.5837C8.88484 24.4734 9.03446 24.4115 9.19046 24.4115H12.7198C12.8758 24.4115 13.0254 24.4734 13.1357 24.5837C13.246 24.6941 13.308 24.8437 13.308 24.9997V27.9408Z"/>
    </mask>
    <path d="M15.0726 29.1172H12.7198C12.5638 29.1172 12.4141 29.0552 12.3038 28.9449C12.1935 28.8346 12.1315 28.685 12.1315 28.529V25.5879H9.77868V28.529C9.77868 28.685 9.71671 28.8346 9.60639 28.9449C9.49608 29.0552 9.34647 29.1172 9.19046 29.1172H6.8376C6.68159 29.1172 6.53198 29.0552 6.42167 28.9449C6.31135 28.8346 6.24938 28.685 6.24938 28.529V25.5879H0.955435C0.862249 25.5881 0.770365 25.566 0.687472 25.5234C0.604579 25.4809 0.533088 25.4191 0.47898 25.3432C0.424063 25.2677 0.388035 25.1801 0.373913 25.0878C0.35979 24.9955 0.367983 24.9011 0.397806 24.8126L1.57424 21.2833C1.61343 21.1665 1.68835 21.0649 1.78841 20.9929C1.88847 20.9209 2.00861 20.8822 2.13187 20.8822H4.48473V9.11784H2.13187C1.97586 9.11784 1.82625 9.05587 1.71594 8.94555C1.60562 8.83524 1.54365 8.68563 1.54365 8.52962V5.00033C1.54365 4.84432 1.60562 4.69471 1.71594 4.58439C1.82625 4.47408 1.97586 4.41211 2.13187 4.41211H6.24938V1.47103C6.24938 1.31502 6.31135 1.16541 6.42167 1.0551C6.53198 0.944785 6.68159 0.882813 6.8376 0.882813H9.19046C9.34647 0.882813 9.49608 0.944785 9.60639 1.0551C9.71671 1.16541 9.77868 1.31502 9.77868 1.47103V4.40858L12.1315 4.41211V1.47103C12.1315 1.31502 12.1935 1.16541 12.3038 1.0551C12.4141 0.944785 12.5638 0.882813 12.7198 0.882813H15.0726C15.2284 0.882812 15.3779 0.944623 15.4881 1.05468C15.5984 1.16474 15.6605 1.31405 15.6608 1.46985L15.6655 4.49211C16.6585 4.53328 18.6184 4.7921 20.0125 6.10029C21.0277 7.05438 21.543 8.3661 21.543 10.0002C21.543 12.426 20.5866 13.6824 19.676 14.3283C21.1289 15.0294 22.6677 16.4917 22.6677 19.1175C22.6677 21.3574 21.7406 25.1044 15.6608 25.5385V28.529C15.6608 28.685 15.5989 28.8346 15.4886 28.9449C15.3782 29.0552 15.2286 29.1172 15.0726 29.1172ZM13.308 27.9408H14.4844V24.9809C14.4843 24.8284 14.5434 24.682 14.6491 24.5722C14.7549 24.4625 14.8991 24.3981 15.0514 24.3926C19.3243 24.2397 21.4912 22.4645 21.4912 19.1163C21.4912 15.5706 18.0737 15.0141 17.9278 14.9929C17.786 14.9719 17.6568 14.8997 17.5645 14.7901C17.4721 14.6804 17.423 14.5408 17.4263 14.3975C17.4296 14.2542 17.4852 14.117 17.5825 14.0117C17.6798 13.9065 17.8123 13.8404 17.9549 13.8259C18.049 13.8153 20.3666 13.5024 20.3666 10.0002C20.3666 8.70373 19.976 7.68024 19.2078 6.95908C17.6772 5.52266 15.142 5.66383 15.115 5.66736C15.0348 5.67286 14.9543 5.66177 14.8786 5.63479C14.8029 5.6078 14.7336 5.5655 14.675 5.51052C14.6164 5.45554 14.5697 5.38907 14.5379 5.31526C14.5062 5.24144 14.4899 5.16187 14.4903 5.0815L14.4856 2.05924H13.308V5.00033C13.308 5.15679 13.2456 5.3062 13.1362 5.41678C13.0254 5.5266 12.8758 5.58831 12.7198 5.58854L9.18929 5.58384C9.03348 5.58352 8.88417 5.52141 8.77411 5.41114C8.66406 5.30086 8.60225 5.15142 8.60225 4.99562V2.05924H7.42581V5.00033C7.42581 5.15633 7.36384 5.30594 7.25353 5.41626C7.14322 5.52657 6.9936 5.58854 6.8376 5.58854H2.72008V7.94141H5.07295C5.22895 7.94141 5.37857 8.00338 5.48888 8.11369C5.59919 8.224 5.66116 8.37362 5.66116 8.52962V21.4704C5.66116 21.6264 5.59919 21.776 5.48888 21.8863C5.37857 21.9966 5.22895 22.0586 5.07295 22.0586H2.55538L1.7707 24.4115H6.8376C6.9936 24.4115 7.14322 24.4734 7.25353 24.5837C7.36384 24.6941 7.42581 24.8437 7.42581 24.9997V27.9408H8.60225V24.9997C8.60225 24.8437 8.66422 24.6941 8.77453 24.5837C8.88484 24.4734 9.03446 24.4115 9.19046 24.4115H12.7198C12.8758 24.4115 13.0254 24.4734 13.1357 24.5837C13.246 24.6941 13.308 24.8437 13.308 24.9997V27.9408Z" fill="#1C6252"/>
    <path d="M15.0726 29.1172H12.7198C12.5638 29.1172 12.4141 29.0552 12.3038 28.9449C12.1935 28.8346 12.1315 28.685 12.1315 28.529V25.5879H9.77868V28.529C9.77868 28.685 9.71671 28.8346 9.60639 28.9449C9.49608 29.0552 9.34647 29.1172 9.19046 29.1172H6.8376C6.68159 29.1172 6.53198 29.0552 6.42167 28.9449C6.31135 28.8346 6.24938 28.685 6.24938 28.529V25.5879H0.955435C0.862249 25.5881 0.770365 25.566 0.687472 25.5234C0.604579 25.4809 0.533088 25.4191 0.47898 25.3432C0.424063 25.2677 0.388035 25.1801 0.373913 25.0878C0.35979 24.9955 0.367983 24.9011 0.397806 24.8126L1.57424 21.2833C1.61343 21.1665 1.68835 21.0649 1.78841 20.9929C1.88847 20.9209 2.00861 20.8822 2.13187 20.8822H4.48473V9.11784H2.13187C1.97586 9.11784 1.82625 9.05587 1.71594 8.94555C1.60562 8.83524 1.54365 8.68563 1.54365 8.52962V5.00033C1.54365 4.84432 1.60562 4.69471 1.71594 4.58439C1.82625 4.47408 1.97586 4.41211 2.13187 4.41211H6.24938V1.47103C6.24938 1.31502 6.31135 1.16541 6.42167 1.0551C6.53198 0.944785 6.68159 0.882813 6.8376 0.882813H9.19046C9.34647 0.882813 9.49608 0.944785 9.60639 1.0551C9.71671 1.16541 9.77868 1.31502 9.77868 1.47103V4.40858L12.1315 4.41211V1.47103C12.1315 1.31502 12.1935 1.16541 12.3038 1.0551C12.4141 0.944785 12.5638 0.882813 12.7198 0.882813H15.0726C15.2284 0.882812 15.3779 0.944623 15.4881 1.05468C15.5984 1.16474 15.6605 1.31405 15.6608 1.46985L15.6655 4.49211C16.6585 4.53328 18.6184 4.7921 20.0125 6.10029C21.0277 7.05438 21.543 8.3661 21.543 10.0002C21.543 12.426 20.5866 13.6824 19.676 14.3283C21.1289 15.0294 22.6677 16.4917 22.6677 19.1175C22.6677 21.3574 21.7406 25.1044 15.6608 25.5385V28.529C15.6608 28.685 15.5989 28.8346 15.4886 28.9449C15.3782 29.0552 15.2286 29.1172 15.0726 29.1172ZM13.308 27.9408H14.4844V24.9809C14.4843 24.8284 14.5434 24.682 14.6491 24.5722C14.7549 24.4625 14.8991 24.3981 15.0514 24.3926C19.3243 24.2397 21.4912 22.4645 21.4912 19.1163C21.4912 15.5706 18.0737 15.0141 17.9278 14.9929C17.786 14.9719 17.6568 14.8997 17.5645 14.7901C17.4721 14.6804 17.423 14.5408 17.4263 14.3975C17.4296 14.2542 17.4852 14.117 17.5825 14.0117C17.6798 13.9065 17.8123 13.8404 17.9549 13.8259C18.049 13.8153 20.3666 13.5024 20.3666 10.0002C20.3666 8.70373 19.976 7.68024 19.2078 6.95908C17.6772 5.52266 15.142 5.66383 15.115 5.66736C15.0348 5.67286 14.9543 5.66177 14.8786 5.63479C14.8029 5.6078 14.7336 5.5655 14.675 5.51052C14.6164 5.45554 14.5697 5.38907 14.5379 5.31526C14.5062 5.24144 14.4899 5.16187 14.4903 5.0815L14.4856 2.05924H13.308V5.00033C13.308 5.15679 13.2456 5.3062 13.1362 5.41678C13.0254 5.5266 12.8758 5.58831 12.7198 5.58854L9.18929 5.58384C9.03348 5.58352 8.88417 5.52141 8.77411 5.41114C8.66406 5.30086 8.60225 5.15142 8.60225 4.99562V2.05924H7.42581V5.00033C7.42581 5.15633 7.36384 5.30594 7.25353 5.41626C7.14322 5.52657 6.9936 5.58854 6.8376 5.58854H2.72008V7.94141H5.07295C5.22895 7.94141 5.37857 8.00338 5.48888 8.11369C5.59919 8.224 5.66116 8.37362 5.66116 8.52962V21.4704C5.66116 21.6264 5.59919 21.776 5.48888 21.8863C5.37857 21.9966 5.22895 22.0586 5.07295 22.0586H2.55538L1.7707 24.4115H6.8376C6.9936 24.4115 7.14322 24.4734 7.25353 24.5837C7.36384 24.6941 7.42581 24.8437 7.42581 24.9997V27.9408H8.60225V24.9997C8.60225 24.8437 8.66422 24.6941 8.77453 24.5837C8.88484 24.4734 9.03446 24.4115 9.19046 24.4115H12.7198C12.8758 24.4115 13.0254 24.4734 13.1357 24.5837C13.246 24.6941 13.308 24.8437 13.308 24.9997V27.9408Z" stroke="#1C6252" stroke-width="0.4" mask="url(#path-1-outside-1_10619_33780)"/>
    <path d="M8.70314 16.2819L8.77364 16.3524L8.70314 16.2819C8.57407 16.411 8.50156 16.586 8.50156 16.7686V21.4743C8.50156 21.6568 8.57407 21.8319 8.70314 21.9609C8.8322 22.09 9.00725 22.1625 9.18978 22.1625H13.8955C15.5731 22.1625 16.9366 20.7977 16.9366 19.1214C16.9366 17.4451 15.5731 16.0803 13.8955 16.0803H9.18978C9.00725 16.0803 8.8322 16.1528 8.70314 16.2819ZM9.18978 13.9275H12.7191C14.3966 13.9275 15.7602 12.5627 15.7602 10.8864C15.7602 9.21007 14.3966 7.84531 12.7191 7.84531H9.18978C9.00725 7.84531 8.8322 7.91782 8.70314 8.04689C8.57407 8.17595 8.50156 8.351 8.50156 8.53353V13.2393C8.50156 13.4218 8.57407 13.5968 8.70314 13.7259C8.8322 13.855 9.00725 13.9275 9.18978 13.9275ZM12.7191 12.551H9.87799V9.22174H12.7191C13.6368 9.22174 14.3837 9.96871 14.3837 10.8864C14.3837 11.8041 13.6368 12.551 12.7191 12.551ZM13.8955 20.7861H9.87799V17.4568H13.8955C14.8132 17.4568 15.5602 18.2037 15.5602 19.1214C15.5602 20.0391 14.8132 20.7861 13.8955 20.7861Z" fill="#1C6252" stroke="#1C6252" stroke-width="0.2"/>
</svg>