<svg xmlns="http://www.w3.org/2000/svg" width="32" height="32" viewBox="0 0 32 32" fill="none">
    <path d="M11.5956 16.0004C11.4427 16.0004 11.1941 15.9328 11.0953 15.8153C10.2145 14.767 8.92591 14.1659 7.55831 14.1659C6.19071 14.1659 4.90216 14.767 4.02128 15.8153C3.73632 16.1533 3 15.9214 3 15.4804C3 8.31174 8.83127 2.48047 16 2.48047C16.1379 2.48047 16.2702 2.53525 16.3677 2.63277C16.4652 2.73029 16.52 2.86256 16.52 3.00047C16.52 3.13838 16.4652 3.27064 16.3677 3.36816C16.2702 3.46568 16.1379 3.52047 16 3.52047C14.1623 3.52047 12.1156 8.43238 12.1156 15.4804C12.1156 15.6184 12.0608 15.7506 11.9633 15.8481C11.8658 15.9457 11.7335 16.0004 11.5956 16.0004ZM7.55727 13.1259C8.85623 13.1259 10.0969 13.5689 11.0922 14.3666C11.2295 10.0652 12.1582 5.7731 13.8004 3.72431C8.62847 4.68942 4.6172 8.99502 4.09616 14.3084C5.08651 13.5407 6.30426 13.1247 7.55727 13.1259Z" fill="#1C6252"/>
    <path d="M28.48 16.0004H28.377C28.3011 16.0005 28.2262 15.9839 28.1574 15.9519C28.0886 15.9199 28.0276 15.8733 27.9787 15.8153C27.0978 14.767 25.8092 14.1659 24.4416 14.1659C23.0741 14.1659 21.7855 14.767 20.9046 15.8153C20.6197 16.1533 19.8844 15.9214 19.8844 15.4804C19.8844 8.43238 17.8366 3.52047 16 3.52047C15.8621 3.52047 15.7298 3.46568 15.6323 3.36816C15.5348 3.27064 15.48 3.13838 15.48 3.00047C15.48 2.86256 15.5348 2.73029 15.6323 2.63277C15.7298 2.53525 15.8621 2.48047 16 2.48047C23.1687 2.48047 29 8.31174 29 15.4804C29 15.6184 28.9452 15.7506 28.8477 15.8481C28.7501 15.9457 28.6179 16.0004 28.48 16.0004ZM18.1996 3.72327C19.8407 5.7731 20.7694 10.0641 20.9077 14.3656C21.9104 13.5615 23.1575 13.1238 24.4427 13.1249C25.6955 13.1238 26.9131 13.5395 27.9038 14.3063C27.3828 8.99398 23.3704 4.68839 18.1996 3.72327Z" fill="#1C6252"/>
    <path d="M28.48 16.0004C28.342 16.0004 28.2098 15.9457 28.1123 15.8481C28.0147 15.7506 27.96 15.6184 27.96 15.4804C27.96 8.88582 22.5946 3.52047 16 3.52047C9.40535 3.52047 4.04 8.88582 4.04 15.4804C4.04 15.6184 3.98521 15.7506 3.88769 15.8481C3.79018 15.9457 3.65791 16.0004 3.52 16.0004C3.38209 16.0004 3.24982 15.9457 3.1523 15.8481C3.05479 15.7506 3 15.6184 3 15.4804C3 8.31174 8.83127 2.48047 16 2.48047C23.1687 2.48047 29 8.31174 29 15.4804C29 15.6184 28.9452 15.7506 28.8477 15.8481C28.7501 15.9457 28.6179 16.0004 28.48 16.0004Z" fill="#1C6252"/>
    <path d="M20.4043 16.0004C20.2664 16.0004 20.1342 15.9457 20.0367 15.8481C19.9391 15.7506 19.8844 15.6184 19.8844 15.4804C19.8844 8.43238 17.8366 3.52047 16 3.52047C14.1633 3.52047 12.1156 8.43238 12.1156 15.4804C12.1156 15.6184 12.0608 15.7506 11.9633 15.8481C11.8658 15.9457 11.7335 16.0004 11.5956 16.0004C11.4577 16.0004 11.3254 15.9457 11.2279 15.8481C11.1303 15.7506 11.0756 15.6184 11.0756 15.4804C11.0756 9.17806 12.802 2.48047 16 2.48047C19.198 2.48047 20.9243 9.17806 20.9243 15.4804C20.9243 15.7685 20.6924 16.0004 20.4043 16.0004Z" fill="#1C6252"/>
    <path d="M20.4034 15.8039C20.3297 15.8038 20.2568 15.7881 20.1896 15.7578C20.1224 15.7275 20.0623 15.6833 20.0134 15.6281C18.9963 14.4758 17.534 13.8144 16 13.8144C14.4661 13.8144 13.0038 14.4758 11.9867 15.6281C11.9169 15.7081 11.8242 15.7648 11.7212 15.7905C11.6182 15.8162 11.5098 15.8097 11.4106 15.7718C11.3113 15.734 11.2262 15.6666 11.1665 15.5788C11.1068 15.491 11.0754 15.3869 11.0767 15.2808C11.11 9.07614 12.8467 2.48047 16 2.48047C19.1533 2.48047 20.8901 9.0751 20.9234 15.2808C20.9238 15.3493 20.9107 15.4173 20.8847 15.4807C20.8588 15.5442 20.8205 15.6019 20.7722 15.6505C20.7239 15.6991 20.6664 15.7377 20.6031 15.764C20.5398 15.7903 20.472 15.8039 20.4034 15.8039ZM16 12.7744C17.402 12.7744 18.754 13.2361 19.8564 14.0702C19.6036 7.79486 17.6993 3.52047 16 3.52047C14.3006 3.52047 12.3965 7.79382 12.1437 14.0702C13.2538 13.2299 14.6078 12.7749 16 12.7744Z" fill="#1C6252"/>
    <path d="M16 3.52047C15.8621 3.52047 15.7298 3.46568 15.6323 3.36816C15.5348 3.27064 15.48 3.13838 15.48 3.00047V1.95994C15.48 1.82203 15.5348 1.68976 15.6323 1.59225C15.7298 1.49473 15.8621 1.43994 16 1.43994C16.1379 1.43994 16.2702 1.49473 16.3677 1.59225C16.4652 1.68976 16.52 1.82203 16.52 1.95994L16.52 3.00047C16.52 3.13838 16.4652 3.27064 16.3677 3.36816C16.2702 3.46568 16.1379 3.52047 16 3.52047Z" fill="#1C6252"/>
    <path fill-rule="evenodd" clip-rule="evenodd" d="M16 17.6667C13.0545 17.6667 10.6667 20.0545 10.6667 23C10.6667 25.9455 13.0545 28.3333 16 28.3333C18.9455 28.3333 21.3333 25.9455 21.3333 23C21.3333 20.0545 18.9455 17.6667 16 17.6667ZM9.66667 23C9.66667 19.5022 12.5022 16.6667 16 16.6667C19.4978 16.6667 22.3333 19.5022 22.3333 23C22.3333 26.4978 19.4978 29.3333 16 29.3333C12.5022 29.3333 9.66667 26.4978 9.66667 23ZM15.996 19.5C16.2721 19.5 16.496 19.7239 16.496 20V20.1919H16.6667C17.6345 20.1919 18.5 20.9197 18.5 21.9144C18.5 22.1906 18.2761 22.4144 18 22.4144C17.7239 22.4144 17.5 22.1906 17.5 21.9144C17.5 21.5539 17.1679 21.1919 16.6667 21.1919H16.496V22.7691L17.3503 23.0299C17.6161 23.1127 17.9176 23.241 18.1465 23.4974C18.3876 23.7676 18.492 24.1146 18.492 24.5202C18.492 25.4282 17.7095 26.0891 16.8343 26.0891H16.496V26.2874C16.496 26.5636 16.2721 26.7874 15.996 26.7874C15.7198 26.7874 15.496 26.5636 15.496 26.2874V26.0891H15.3333C14.3655 26.0891 13.5 25.3613 13.5 24.3665C13.5 24.0904 13.7239 23.8665 14 23.8665C14.2761 23.8665 14.5 24.0904 14.5 24.3665C14.5 24.727 14.8321 25.0891 15.3333 25.0891H15.496V23.5094L14.6497 23.2511C14.3869 23.1693 14.0842 23.0433 13.8544 22.7872C13.6117 22.5167 13.508 22.1686 13.508 21.7608C13.508 20.8618 14.2882 20.1919 15.1657 20.1919H15.496V20C15.496 19.7239 15.7198 19.5 15.996 19.5ZM15.496 21.1919H15.1657C14.7657 21.1919 14.508 21.4861 14.508 21.7608C14.508 21.9957 14.564 22.0806 14.5987 22.1193C14.6462 22.1722 14.7385 22.2312 14.9458 22.2959L15.496 22.4639V21.1919ZM16.496 23.8146V25.0891H16.8343C17.2365 25.0891 17.492 24.7999 17.492 24.5202C17.492 24.2901 17.4367 24.204 17.4004 24.1633C17.3519 24.109 17.2585 24.0488 17.0542 23.9851L16.496 23.8146Z" fill="#1C6252"/>
    <path d="M11.0953 15.8153L11.0188 15.8797L11.0188 15.8797L11.0953 15.8153ZM4.02128 15.8153L4.09773 15.8798L4.09784 15.8797L4.02128 15.8153ZM7.55727 13.1259L7.55718 13.2259H7.55727V13.1259ZM11.0922 14.3666L11.0297 14.4446C11.0592 14.4683 11.0997 14.4733 11.1341 14.4574C11.1685 14.4416 11.191 14.4077 11.1922 14.3698L11.0922 14.3666ZM13.8004 3.72431L13.8784 3.78685C13.9046 3.75422 13.9077 3.70878 13.8862 3.67291C13.8647 3.63704 13.8231 3.61833 13.782 3.626L13.8004 3.72431ZM4.09616 14.3084L3.99664 14.2986C3.99274 14.3384 4.01286 14.3766 4.04781 14.3959C4.08277 14.4152 4.12586 14.4119 4.15742 14.3874L4.09616 14.3084ZM28.377 16.0004V15.9004H28.377L28.377 16.0004ZM27.9787 15.8153L27.9021 15.8797L27.9022 15.8798L27.9787 15.8153ZM20.9046 15.8153L20.9811 15.8798L20.9812 15.8797L20.9046 15.8153ZM28.48 15.3804C28.4247 15.3804 28.38 15.4252 28.38 15.4804C28.38 15.5357 28.4247 15.5805 28.48 15.5805V15.3804ZM28.4904 15.5805C28.5456 15.5805 28.5904 15.5357 28.5904 15.4804C28.5904 15.4252 28.5456 15.3804 28.4904 15.3804V15.5805ZM18.1996 3.72327L18.2179 3.62496C18.1768 3.61729 18.1353 3.63599 18.1138 3.67184C18.0923 3.7077 18.0954 3.75313 18.1215 3.78577L18.1996 3.72327ZM20.9077 14.3656L20.8078 14.3688C20.809 14.4066 20.8315 14.4406 20.8659 14.4564C20.9003 14.4722 20.9407 14.4673 20.9703 14.4436L20.9077 14.3656ZM24.4427 13.1249L24.4426 13.2249H24.4428L24.4427 13.1249ZM27.9038 14.3063L27.8426 14.3854C27.8742 14.4098 27.9172 14.4131 27.9522 14.3938C27.9871 14.3745 28.0072 14.3363 28.0033 14.2965L27.9038 14.3063ZM20.4034 15.8039L20.4033 15.9039H20.4034L20.4034 15.8039ZM20.0134 15.6281L19.9384 15.6943L19.9386 15.6945L20.0134 15.6281ZM11.9867 15.6281L11.9117 15.562L11.9113 15.5624L11.9867 15.6281ZM11.0767 15.2808L11.1767 15.282L11.1767 15.2813L11.0767 15.2808ZM20.9234 15.2808L20.8234 15.2813V15.2814L20.9234 15.2808ZM16 12.7744V12.6744H16L16 12.7744ZM19.8564 14.0702L19.796 14.15C19.8269 14.1733 19.8684 14.1768 19.9027 14.1588C19.937 14.1409 19.9578 14.1048 19.9563 14.0662L19.8564 14.0702ZM12.1437 14.0702L12.0438 14.0662C12.0423 14.1048 12.0631 14.1409 12.0974 14.1588C12.1317 14.1768 12.1733 14.1733 12.2041 14.1499L12.1437 14.0702ZM16 1.43994V1.33994V1.43994ZM16.52 1.95994L16.62 1.95994V1.95994H16.52ZM16.496 20.1919H16.396C16.396 20.2471 16.4407 20.2919 16.496 20.2919V20.1919ZM16.496 21.1919V21.0919C16.4407 21.0919 16.396 21.1367 16.396 21.1919H16.496ZM16.496 22.7691H16.396C16.396 22.8131 16.4247 22.8519 16.4668 22.8647L16.496 22.7691ZM17.3503 23.0299L17.38 22.9344L17.3795 22.9342L17.3503 23.0299ZM18.1465 23.4974L18.2211 23.4309L18.1465 23.4974ZM16.496 26.0891V25.9891C16.4407 25.9891 16.396 26.0339 16.396 26.0891H16.496ZM15.496 26.0891H15.596C15.596 26.0339 15.5512 25.9891 15.496 25.9891V26.0891ZM15.496 25.0891V25.1891C15.5512 25.1891 15.596 25.1443 15.596 25.0891H15.496ZM15.496 23.5094H15.596C15.596 23.4654 15.5672 23.4266 15.5252 23.4138L15.496 23.5094ZM14.6497 23.2511L14.62 23.3466L14.6205 23.3468L14.6497 23.2511ZM13.8544 22.7872L13.9289 22.7204L13.8544 22.7872ZM15.496 20.1919V20.2919C15.5512 20.2919 15.596 20.2471 15.596 20.1919H15.496ZM15.496 21.1919H15.596C15.596 21.1367 15.5512 21.0919 15.496 21.0919V21.1919ZM14.5987 22.1193L14.6731 22.0525L14.5987 22.1193ZM14.9458 22.2959L14.916 22.3914L14.9166 22.3916L14.9458 22.2959ZM15.496 22.4639L15.4668 22.5595C15.4971 22.5688 15.53 22.5631 15.5555 22.5442C15.5809 22.5254 15.596 22.4956 15.596 22.4639H15.496ZM16.496 25.0891H16.396C16.396 25.1443 16.4407 25.1891 16.496 25.1891V25.0891ZM16.496 23.8146L16.5252 23.719C16.4949 23.7098 16.4619 23.7154 16.4365 23.7343C16.411 23.7531 16.396 23.783 16.396 23.8146H16.496ZM17.4004 24.1633L17.475 24.0967L17.475 24.0967L17.4004 24.1633ZM17.0542 23.9851L17.084 23.8896L17.0834 23.8894L17.0542 23.9851ZM11.5956 15.9004C11.5316 15.9004 11.442 15.8858 11.3572 15.8572C11.2698 15.8277 11.2037 15.7888 11.1719 15.751L11.0188 15.8797C11.0858 15.9593 11.1934 16.013 11.2932 16.0467C11.3955 16.0812 11.5067 16.1004 11.5956 16.1004V15.9004ZM11.1719 15.751C10.2721 14.6801 8.9555 14.0659 7.55831 14.0659V14.2659C8.89632 14.2659 10.1569 14.8539 11.0188 15.8797L11.1719 15.751ZM7.55831 14.0659C6.16112 14.0659 4.84456 14.6801 3.94472 15.751L4.09784 15.8797C4.95975 14.8539 6.22031 14.2659 7.55831 14.2659V14.0659ZM3.94482 15.7509C3.83874 15.8767 3.63327 15.9089 3.43447 15.8448C3.23516 15.7805 3.1 15.639 3.1 15.4804H2.9C2.9 15.7629 3.133 15.9577 3.37309 16.0352C3.61368 16.1128 3.91885 16.092 4.09773 15.8798L3.94482 15.7509ZM3.1 15.4804C3.1 8.36697 8.8865 2.58047 16 2.58047V2.38047C8.77604 2.38047 2.9 8.25651 2.9 15.4804H3.1ZM16 2.58047C16.1114 2.58047 16.2182 2.62472 16.297 2.70348L16.4384 2.56206C16.3221 2.44579 16.1644 2.38047 16 2.38047V2.58047ZM16.297 2.70348C16.3757 2.78225 16.42 2.88908 16.42 3.00047H16.62C16.62 2.83603 16.5547 2.67833 16.4384 2.56206L16.297 2.70348ZM16.42 3.00047C16.42 3.11186 16.3757 3.21869 16.297 3.29745L16.4384 3.43887C16.5547 3.3226 16.62 3.1649 16.62 3.00047H16.42ZM16.297 3.29745C16.2182 3.37622 16.1114 3.42047 16 3.42047V3.62047C16.1644 3.62047 16.3221 3.55515 16.4384 3.43887L16.297 3.29745ZM16 3.42047C15.4947 3.42047 14.9965 3.75671 14.5393 4.33613C14.0797 4.91848 13.6471 5.76385 13.2743 6.82427C12.5284 8.94611 12.0156 11.9477 12.0156 15.4804H12.2156C12.2156 11.9651 12.7261 8.98673 13.463 6.8906C13.8316 5.84203 14.2552 5.01892 14.6963 4.46003C15.1396 3.89822 15.5864 3.62047 16 3.62047V3.42047ZM12.0156 15.4804C12.0156 15.5918 11.9713 15.6987 11.8926 15.7774L12.034 15.9189C12.1503 15.8026 12.2156 15.6449 12.2156 15.4804H12.0156ZM11.8926 15.7774C11.8138 15.8562 11.707 15.9004 11.5956 15.9004V16.1004C11.76 16.1004 11.9177 16.0351 12.034 15.9189L11.8926 15.7774ZM7.55727 13.2259C8.83333 13.2259 10.052 13.6611 11.0297 14.4446L11.1548 14.2886C10.1419 13.4768 8.87913 13.0259 7.55727 13.0259V13.2259ZM11.1922 14.3698C11.2606 12.2247 11.5264 10.0833 11.9791 8.22438C12.4324 6.36317 13.0707 4.79451 13.8784 3.78685L13.7224 3.66176C12.8879 4.7029 12.2408 6.30467 11.7848 8.17706C11.3283 10.0517 11.0611 12.2071 10.9923 14.3634L11.1922 14.3698ZM13.782 3.626C8.56676 4.59921 4.52206 8.94058 3.99664 14.2986L4.19568 14.3181C4.71234 9.04946 8.69018 4.77964 13.8187 3.82261L13.782 3.626ZM4.15742 14.3874C5.13022 13.6334 6.32638 13.2247 7.55718 13.2259L7.55737 13.0259C6.28214 13.0247 5.04281 13.4481 4.0349 14.2293L4.15742 14.3874ZM28.48 15.9004H28.377V16.1004H28.48V15.9004ZM28.377 15.9004C28.3157 15.9005 28.2551 15.8871 28.1995 15.8612L28.1152 16.0426C28.1972 16.0807 28.2866 16.1005 28.377 16.1004L28.377 15.9004ZM28.1995 15.8612C28.1439 15.8354 28.0946 15.7977 28.0551 15.7509L27.9022 15.8798C27.9605 15.9489 28.0332 16.0045 28.1152 16.0426L28.1995 15.8612ZM28.0552 15.751C27.1554 14.6801 25.8388 14.0659 24.4416 14.0659V14.2659C25.7797 14.2659 27.0402 14.8539 27.9021 15.8797L28.0552 15.751ZM24.4416 14.0659C23.0445 14.0659 21.7279 14.6801 20.8281 15.751L20.9812 15.8797C21.8431 14.8539 23.1036 14.2659 24.4416 14.2659V14.0659ZM20.8282 15.7509C20.7221 15.8767 20.5168 15.9089 20.3184 15.8448C20.1194 15.7806 19.9844 15.6391 19.9844 15.4804H19.7844C19.7844 15.7628 20.017 15.9577 20.2569 16.0352C20.4973 16.1128 20.8022 16.0919 20.9811 15.8798L20.8282 15.7509ZM19.9844 15.4804C19.9844 11.9477 19.4713 8.9461 18.7253 6.82426C18.3524 5.76385 17.9198 4.91848 17.4603 4.33613C17.0031 3.75673 16.505 3.42047 16 3.42047V3.62047C16.4133 3.62047 16.8599 3.8982 17.3032 4.46002C17.7442 5.01892 18.1679 5.84203 18.5366 6.8906C19.2736 8.98673 19.7844 11.9651 19.7844 15.4804H19.9844ZM16 3.42047C15.8886 3.42047 15.7818 3.37622 15.703 3.29745L15.5616 3.43887C15.6778 3.55515 15.8355 3.62047 16 3.62047V3.42047ZM15.703 3.29745C15.6242 3.21869 15.58 3.11186 15.58 3.00047H15.38C15.38 3.1649 15.4453 3.3226 15.5616 3.43887L15.703 3.29745ZM15.58 3.00047C15.58 2.88908 15.6242 2.78225 15.703 2.70348L15.5616 2.56206C15.4453 2.67833 15.38 2.83603 15.38 3.00047H15.58ZM15.703 2.70348C15.7818 2.62472 15.8886 2.58047 16 2.58047V2.38047C15.8355 2.38047 15.6778 2.44579 15.5616 2.56206L15.703 2.70348ZM16 2.58047C23.1135 2.58047 28.9 8.36697 28.9 15.4804H29.1C29.1 8.25651 23.2239 2.38047 16 2.38047V2.58047ZM28.9 15.4804C28.9 15.5918 28.8557 15.6987 28.7769 15.7774L28.9184 15.9189C29.0346 15.8026 29.1 15.6449 29.1 15.4804H28.9ZM28.7769 15.7774C28.6982 15.8562 28.5914 15.9004 28.48 15.9004V16.1004C28.6444 16.1004 28.8021 16.0351 28.9184 15.9189L28.7769 15.7774ZM28.48 15.5805H28.4904V15.3804H28.48V15.5805ZM18.1215 3.78577C18.9287 4.79396 19.5668 6.36265 20.02 8.22373C20.4727 10.0826 20.7388 12.2237 20.8078 14.3688L21.0077 14.3624C20.9383 12.206 20.6709 10.0509 20.2144 8.17641C19.7584 6.30416 19.1116 4.70241 18.2776 3.66077L18.1215 3.78577ZM20.9703 14.4436C21.9552 13.6538 23.1802 13.2238 24.4426 13.2249L24.4428 13.0249C23.1348 13.0238 21.8656 13.4693 20.8452 14.2876L20.9703 14.4436ZM24.4428 13.2249C25.6734 13.2239 26.8694 13.6321 27.8426 14.3854L27.965 14.2272C26.9568 13.4468 25.7176 13.0238 24.4426 13.0249L24.4428 13.2249ZM28.0033 14.2965C27.4779 8.93953 23.4321 4.59817 18.2179 3.62496L18.1812 3.82157C23.3088 4.7786 27.2876 9.04843 27.8043 14.3161L28.0033 14.2965ZM28.48 15.9004C28.3686 15.9004 28.2617 15.8562 28.183 15.7774L28.0416 15.9189C28.1578 16.0351 28.3155 16.1004 28.48 16.1004V15.9004ZM28.183 15.7774C28.1042 15.6987 28.06 15.5918 28.06 15.4804H27.86C27.86 15.6449 27.9253 15.8026 28.0416 15.9189L28.183 15.7774ZM28.06 15.4804C28.06 8.83059 22.6498 3.42047 16 3.42047V3.62047C22.5394 3.62047 27.86 8.94105 27.86 15.4804H28.06ZM16 3.42047C9.35012 3.42047 3.94 8.83059 3.94 15.4804H4.14C4.14 8.94105 9.46058 3.62047 16 3.62047V3.42047ZM3.94 15.4804C3.94 15.5918 3.89575 15.6987 3.81698 15.7774L3.9584 15.9189C4.07468 15.8026 4.14 15.6449 4.14 15.4804H3.94ZM3.81698 15.7774C3.73822 15.8562 3.63139 15.9004 3.52 15.9004V16.1004C3.68443 16.1004 3.84213 16.0351 3.9584 15.9189L3.81698 15.7774ZM3.52 15.9004C3.40861 15.9004 3.30178 15.8562 3.22301 15.7774L3.08159 15.9189C3.19787 16.0351 3.35557 16.1004 3.52 16.1004V15.9004ZM3.22301 15.7774C3.14425 15.6987 3.1 15.5918 3.1 15.4804H2.9C2.9 15.6449 2.96532 15.8026 3.08159 15.9189L3.22301 15.7774ZM20.4043 15.9004C20.293 15.9004 20.1861 15.8562 20.1074 15.7774L19.9659 15.9189C20.0822 16.0351 20.2399 16.1004 20.4043 16.1004V15.9004ZM20.1074 15.7774C20.0286 15.6987 19.9844 15.5919 19.9844 15.4804H19.7844C19.7844 15.6449 19.8497 15.8026 19.9659 15.9189L20.1074 15.7774ZM16 3.42047C15.495 3.42047 14.9969 3.75673 14.5397 4.33613C14.0802 4.91848 13.6475 5.76385 13.2747 6.82426C12.5287 8.9461 12.0156 11.9477 12.0156 15.4804H12.2156C12.2156 11.9651 12.7264 8.98673 13.4634 6.8906C13.8321 5.84203 14.2557 5.01892 14.6967 4.46002C15.14 3.8982 15.5867 3.62047 16 3.62047V3.42047ZM11.5956 15.9004C11.4842 15.9004 11.3773 15.8562 11.2986 15.7774L11.1572 15.9189C11.2734 16.0351 11.4312 16.1004 11.5956 16.1004V15.9004ZM11.2986 15.7774C11.2198 15.6987 11.1756 15.5918 11.1756 15.4804H10.9756C10.9756 15.6449 11.0409 15.8026 11.1572 15.9189L11.2986 15.7774ZM11.1756 15.4804C11.1756 12.3367 11.6063 9.09811 12.4333 6.64905C12.8469 5.42411 13.3575 4.40294 13.9579 3.68985C14.5576 2.9776 15.2395 2.58047 16 2.58047V2.38047C15.1615 2.38047 14.4284 2.82053 13.8049 3.56104C13.1821 4.30069 12.6615 5.34781 12.2438 6.58507C11.408 9.0604 10.9756 12.3218 10.9756 15.4804H11.1756ZM16 2.58047C16.7605 2.58047 17.4424 2.9776 18.0421 3.68985C18.6424 4.40294 19.1531 5.42411 19.5667 6.64905C20.3936 9.09811 20.8243 12.3367 20.8243 15.4804H21.0243C21.0243 12.3218 20.5919 9.0604 19.7562 6.58507C19.3384 5.34781 18.8178 4.30069 18.1951 3.56104C17.5716 2.82053 16.8385 2.38047 16 2.38047V2.58047ZM20.8243 15.4804C20.8243 15.7133 20.6372 15.9004 20.4043 15.9004V16.1004C20.7477 16.1004 21.0243 15.8238 21.0243 15.4804H20.8243ZM20.4035 15.7039C20.3439 15.7038 20.285 15.6911 20.2307 15.6666L20.1485 15.849C20.2286 15.885 20.3154 15.9038 20.4033 15.9039L20.4035 15.7039ZM20.2307 15.6666C20.1763 15.6421 20.1278 15.6064 20.0882 15.5618L19.9386 15.6945C19.9969 15.7602 20.0684 15.8129 20.1485 15.849L20.2307 15.6666ZM20.0884 15.562C19.0523 14.3882 17.5628 13.7144 16 13.7144V13.9144C17.5053 13.9144 18.9402 14.5634 19.9384 15.6943L20.0884 15.562ZM16 13.7144C14.4373 13.7144 12.9478 14.3882 11.9117 15.562L12.0617 15.6943C13.0599 14.5634 14.4948 13.9144 16 13.9144V13.7144ZM11.9113 15.5624C11.855 15.627 11.7802 15.6727 11.697 15.6935L11.7454 15.8875C11.8683 15.8569 11.9788 15.7893 12.0621 15.6939L11.9113 15.5624ZM11.697 15.6935C11.6138 15.7142 11.5263 15.709 11.4462 15.6784L11.3749 15.8652C11.4932 15.9104 11.6225 15.9182 11.7454 15.8875L11.697 15.6935ZM11.4462 15.6784C11.3661 15.6478 11.2973 15.5934 11.2492 15.5225L11.0838 15.635C11.155 15.7397 11.2566 15.8201 11.3749 15.8652L11.4462 15.6784ZM11.2492 15.5225C11.201 15.4516 11.1757 15.3677 11.1767 15.282L10.9767 15.2796C10.9752 15.4062 11.0126 15.5303 11.0838 15.635L11.2492 15.5225ZM11.1767 15.2813C11.1933 12.1864 11.6349 8.99777 12.4629 6.58636C12.8771 5.38025 13.3858 4.37479 13.9814 3.67268C14.5763 2.97136 15.2505 2.58047 16 2.58047V2.38047C15.1728 2.38047 14.4475 2.81403 13.8288 3.5433C13.2109 4.27177 12.6921 5.30301 12.2738 6.52141C11.4368 8.95899 10.9934 12.1705 10.9767 15.2802L11.1767 15.2813ZM16 2.58047C16.7494 2.58047 17.4237 2.97131 18.0186 3.67254C18.6142 4.37456 19.123 5.37993 19.5371 6.58597C20.3652 8.99725 20.8068 12.1859 20.8234 15.2813L21.0234 15.2802C21.0067 12.17 20.5633 8.95847 19.7263 6.52101C19.3079 5.30268 18.7891 4.27154 18.1711 3.54315C17.5525 2.81396 16.8272 2.38047 16 2.38047V2.58047ZM20.8234 15.2814C20.8237 15.3367 20.8131 15.3916 20.7922 15.4429L20.9773 15.5186C21.0082 15.4429 21.0239 15.3619 21.0234 15.2802L20.8234 15.2814ZM20.7922 15.4429C20.7712 15.4941 20.7403 15.5407 20.7013 15.58L20.8431 15.721C20.9008 15.663 20.9463 15.5942 20.9773 15.5186L20.7922 15.4429ZM20.7013 15.58C20.6623 15.6192 20.6158 15.6504 20.5647 15.6717L20.6415 15.8563C20.717 15.8249 20.7855 15.7789 20.8431 15.721L20.7013 15.58ZM20.5647 15.6717C20.5136 15.6929 20.4588 15.7039 20.4034 15.7039L20.4034 15.9039C20.4851 15.9039 20.5661 15.8877 20.6415 15.8563L20.5647 15.6717ZM16 12.8744C17.38 12.8744 18.7108 13.3289 19.796 14.15L19.9167 13.9905C18.7971 13.1434 17.424 12.6744 16 12.6744V12.8744ZM19.9563 14.0662C19.8296 10.9204 19.2889 8.27154 18.5639 6.40586C18.2015 5.47347 17.7914 4.73206 17.3603 4.22185C16.931 3.71381 16.468 3.42047 16 3.42047V3.62047C16.3816 3.62047 16.7939 3.86143 17.2075 4.35093C17.6193 4.83828 18.0197 5.55768 18.3775 6.4783C19.0926 8.31865 19.6304 10.9447 19.7564 14.0742L19.9563 14.0662ZM16 3.42047C15.5319 3.42047 15.069 3.71373 14.6397 4.2217C14.2086 4.73183 13.7985 5.47314 13.4362 6.40547C12.7112 8.27103 12.1705 10.9198 12.0438 14.0662L12.2437 14.0742C12.3697 10.9442 12.9074 8.31813 13.6226 6.47791C13.9803 5.55736 14.3807 4.83805 14.7924 4.35079C15.206 3.86137 15.6183 3.62047 16 3.62047V3.42047ZM12.2041 14.1499C13.2968 13.3227 14.6296 12.8749 16.0001 12.8744L16 12.6744C14.586 12.6749 13.2108 13.137 12.0834 13.9905L12.2041 14.1499ZM15.58 3.00047V1.95994H15.38V3.00047H15.58ZM15.58 1.95994C15.58 1.84855 15.6242 1.74172 15.703 1.66296L15.5616 1.52153C15.4453 1.63781 15.38 1.79551 15.38 1.95994H15.58ZM15.703 1.66296C15.7818 1.58419 15.8886 1.53994 16 1.53994V1.33994C15.8355 1.33994 15.6778 1.40526 15.5616 1.52153L15.703 1.66296ZM16 1.53994C16.1114 1.53994 16.2182 1.58419 16.297 1.66296L16.4384 1.52153C16.3221 1.40526 16.1644 1.33994 16 1.33994V1.53994ZM16.297 1.66296C16.3757 1.74172 16.42 1.84855 16.42 1.95994H16.62C16.62 1.79551 16.5547 1.63781 16.4384 1.52153L16.297 1.66296ZM16.42 1.95994L16.42 3.00047L16.62 3.00047L16.62 1.95994L16.42 1.95994ZM10.7667 23C10.7667 20.1097 13.1097 17.7667 16 17.7667V17.5667C12.9993 17.5667 10.5667 19.9993 10.5667 23H10.7667ZM16 28.2333C13.1097 28.2333 10.7667 25.8903 10.7667 23H10.5667C10.5667 26.0007 12.9993 28.4333 16 28.4333V28.2333ZM21.2333 23C21.2333 25.8903 18.8903 28.2333 16 28.2333V28.4333C19.0007 28.4333 21.4333 26.0007 21.4333 23H21.2333ZM16 17.7667C18.8903 17.7667 21.2333 20.1097 21.2333 23H21.4333C21.4333 19.9993 19.0007 17.5667 16 17.5667V17.7667ZM16 16.5667C12.447 16.5667 9.56667 19.447 9.56667 23H9.76667C9.76667 19.5574 12.5574 16.7667 16 16.7667V16.5667ZM22.4333 23C22.4333 19.447 19.553 16.5667 16 16.5667V16.7667C19.4426 16.7667 22.2333 19.5574 22.2333 23H22.4333ZM16 29.4333C19.553 29.4333 22.4333 26.553 22.4333 23H22.2333C22.2333 26.4426 19.4426 29.2333 16 29.2333V29.4333ZM9.56667 23C9.56667 26.553 12.447 29.4333 16 29.4333V29.2333C12.5574 29.2333 9.76667 26.4426 9.76667 23H9.56667ZM16.596 20C16.596 19.6686 16.3273 19.4 15.996 19.4V19.6C16.2169 19.6 16.396 19.7791 16.396 20H16.596ZM16.596 20.1919V20H16.396V20.1919H16.596ZM16.6667 20.0919H16.496V20.2919H16.6667V20.0919ZM18.6 21.9144C18.6 20.8556 17.6804 20.0919 16.6667 20.0919V20.2919C17.5886 20.2919 18.4 20.9838 18.4 21.9144H18.6ZM18 22.5144C18.3314 22.5144 18.6 22.2458 18.6 21.9144H18.4C18.4 22.1354 18.2209 22.3144 18 22.3144V22.5144ZM17.4 21.9144C17.4 22.2458 17.6686 22.5144 18 22.5144V22.3144C17.7791 22.3144 17.6 22.1354 17.6 21.9144H17.4ZM16.6667 21.2919C17.1196 21.2919 17.4 21.6158 17.4 21.9144H17.6C17.6 21.4921 17.2162 21.0919 16.6667 21.0919V21.2919ZM16.496 21.2919H16.6667V21.0919H16.496V21.2919ZM16.596 22.7691V21.1919H16.396V22.7691H16.596ZM18.2211 23.4309C17.9742 23.1542 17.652 23.0191 17.38 22.9344L17.3205 23.1253C17.5803 23.2062 17.861 23.3277 18.0719 23.564L18.2211 23.4309ZM18.592 24.5202C18.592 24.0971 18.4828 23.7241 18.2211 23.4309L18.0719 23.564C18.2925 23.8112 18.392 24.132 18.392 24.5202H18.592ZM16.8343 26.1891C17.7561 26.1891 18.592 25.4917 18.592 24.5202H18.392C18.392 25.3647 17.663 25.9891 16.8343 25.9891V26.1891ZM16.496 26.1891H16.8343V25.9891H16.496V26.1891ZM16.596 26.2874V26.0891H16.396V26.2874H16.596ZM15.996 26.8874C16.3273 26.8874 16.596 26.6188 16.596 26.2874H16.396C16.396 26.5083 16.2169 26.6874 15.996 26.6874V26.8874ZM15.396 26.2874C15.396 26.6188 15.6646 26.8874 15.996 26.8874V26.6874C15.7751 26.6874 15.596 26.5083 15.596 26.2874H15.396ZM15.396 26.0891V26.2874H15.596V26.0891H15.396ZM15.3333 26.1891H15.496V25.9891H15.3333V26.1891ZM13.4 24.3665C13.4 25.4254 14.3196 26.1891 15.3333 26.1891V25.9891C14.4114 25.9891 13.6 25.2972 13.6 24.3665H13.4ZM14 23.7665C13.6686 23.7665 13.4 24.0352 13.4 24.3665H13.6C13.6 24.1456 13.7791 23.9665 14 23.9665V23.7665ZM14.6 24.3665C14.6 24.0352 14.3314 23.7665 14 23.7665V23.9665C14.2209 23.9665 14.4 24.1456 14.4 24.3665H14.6ZM15.3333 24.9891C14.8804 24.9891 14.6 24.6652 14.6 24.3665H14.4C14.4 24.7889 14.7838 25.1891 15.3333 25.1891V24.9891ZM15.496 24.9891H15.3333V25.1891H15.496V24.9891ZM15.396 23.5094V25.0891H15.596V23.5094H15.396ZM13.78 22.854C14.028 23.1303 14.3516 23.263 14.62 23.3466L14.6795 23.1556C14.4221 23.0755 14.1405 22.9562 13.9289 22.7204L13.78 22.854ZM13.408 21.7608C13.408 22.1857 13.5164 22.5603 13.78 22.854L13.9289 22.7204C13.707 22.4732 13.608 22.1514 13.608 21.7608H13.408ZM15.1657 20.0919C14.2412 20.0919 13.408 20.7987 13.408 21.7608H13.608C13.608 20.9249 14.3352 20.2919 15.1657 20.2919V20.0919ZM15.496 20.0919H15.1657V20.2919H15.496V20.0919ZM15.396 20V20.1919H15.596V20H15.396ZM15.996 19.4C15.6646 19.4 15.396 19.6686 15.396 20H15.596C15.596 19.7791 15.7751 19.6 15.996 19.6V19.4ZM15.1657 21.2919H15.496V21.0919H15.1657V21.2919ZM14.608 21.7608C14.608 21.5467 14.8153 21.2919 15.1657 21.2919V21.0919C14.7161 21.0919 14.408 21.4254 14.408 21.7608H14.608ZM14.6731 22.0525C14.659 22.0368 14.608 21.978 14.608 21.7608H14.408C14.408 22.0133 14.4689 22.1244 14.5242 22.1861L14.6731 22.0525ZM14.9756 22.2005C14.7736 22.1374 14.7024 22.0851 14.6731 22.0525L14.5242 22.1861C14.59 22.2594 14.7034 22.325 14.916 22.3914L14.9756 22.2005ZM15.5252 22.3682L14.975 22.2003L14.9166 22.3916L15.4668 22.5595L15.5252 22.3682ZM15.396 21.1919V22.4639H15.596V21.1919H15.396ZM16.596 25.0891V23.8146H16.396V25.0891H16.596ZM16.8343 24.9891H16.496V25.1891H16.8343V24.9891ZM17.392 24.5202C17.392 24.7389 17.1873 24.9891 16.8343 24.9891V25.1891C17.2858 25.1891 17.592 24.8609 17.592 24.5202H17.392ZM17.3258 24.2299C17.3418 24.2478 17.392 24.308 17.392 24.5202H17.592C17.592 24.2723 17.5316 24.1601 17.475 24.0967L17.3258 24.2299ZM17.0244 24.0805C17.2228 24.1424 17.2954 24.1958 17.3258 24.2299L17.475 24.0967C17.4085 24.0222 17.2943 23.9552 17.084 23.8896L17.0244 24.0805ZM16.4668 23.9103L17.025 24.0807L17.0834 23.8894L16.5252 23.719L16.4668 23.9103ZM17.3795 22.9342L16.5252 22.6735L16.4668 22.8647L17.3211 23.1255L17.3795 22.9342ZM14.6205 23.3468L15.4668 23.6051L15.5252 23.4138L14.6789 23.1555L14.6205 23.3468Z" fill="#1C6252"/>
</svg>