<svg width="32" height="32" viewBox="0 0 32 32" fill="none"
    xmlns="http://www.w3.org/2000/svg">
    <path d="M13.4451 3.94591C8.63249 5.01118 4.91388 9.02247 4.28332 13.9826C5.24549 13.3247 6.38645 12.9709 7.55741 12.972M13.4451 3.94591L7.55727 13.122M13.4451 3.94591C12.7186 4.98939 12.1488 6.46715 11.7362 8.16132C11.2992 9.95583 11.0355 12.0061 10.9527 14.0681M13.4451 3.94591L10.9527 14.0681M7.55741 12.972L7.55727 13.122M7.55741 12.972C7.55737 12.972 7.55732 12.972 7.55727 12.972V13.122M7.55741 12.972C8.79099 12.972 9.97359 13.3614 10.9527 14.0681M7.55727 13.122C8.79333 13.122 9.97665 13.5232 10.9459 14.2493C10.9481 14.1889 10.9503 14.1285 10.9527 14.0681M10.9805 15.9079L10.9805 15.9079C11.0563 15.998 11.1743 16.0554 11.2772 16.0902C11.3839 16.1262 11.5005 16.1465 11.5956 16.1465C11.7733 16.1465 11.9437 16.076 12.0693 15.9503C12.195 15.8247 12.2656 15.6542 12.2656 15.4765C12.2656 11.9656 12.7756 8.99297 13.5102 6.90327C13.8777 5.85766 14.2991 5.04012 14.7355 4.4871C15.1754 3.92969 15.6093 3.66656 16 3.66656C16.1777 3.66656 16.3481 3.59597 16.4737 3.47032C16.5994 3.34467 16.67 3.17426 16.67 2.99656C16.67 2.81887 16.5994 2.64845 16.4737 2.5228C16.3481 2.39715 16.1777 2.32656 16 2.32656C8.74843 2.32656 2.85 8.22499 2.85 15.4765C2.85 15.7899 3.10745 15.9981 3.35774 16.0789C3.60879 16.1598 3.93888 16.1419 4.13596 15.9081L4.13612 15.9079C4.98855 14.8934 6.23511 14.312 7.55831 14.312C8.88152 14.312 10.1281 14.8934 10.9805 15.9079Z" fill="#1C6252" stroke="#1C6252" stroke-width="0.3"/>
    <path d="M27.8643 15.9079L27.8645 15.9081C27.9275 15.9828 28.006 16.0429 28.0947 16.084C28.1833 16.1252 28.2798 16.1465 28.3775 16.1465H28.4804C28.6581 16.1465 28.8286 16.076 28.9542 15.9503C29.0799 15.8247 29.1504 15.6542 29.1504 15.4765C29.1504 8.22499 23.252 2.32656 16.0005 2.32656C15.8228 2.32656 15.6524 2.39715 15.5267 2.5228C15.4011 2.64845 15.3305 2.81887 15.3305 2.99656C15.3305 3.17426 15.4011 3.34467 15.5267 3.47032C15.6524 3.59597 15.8228 3.66656 16.0005 3.66656C16.3909 3.66656 16.8246 3.92966 17.2645 4.48709C17.7009 5.04012 18.1223 5.85767 18.4899 6.90328C19.2246 8.99299 19.7349 11.9656 19.7349 15.4765C19.7349 15.7898 19.9919 15.9981 20.242 16.0788C20.4929 16.1598 20.8227 16.1418 21.0198 15.9081L21.0199 15.9079C21.8724 14.8935 23.1189 14.312 24.4421 14.312C25.7653 14.312 27.0119 14.8935 27.8643 15.9079ZM24.4421 14.162C23.0745 14.162 21.786 14.7631 20.9051 15.8114C20.6201 16.1494 19.8849 15.9175 19.8849 15.4765C19.8849 8.42847 17.8371 3.51656 16.0005 3.51656C15.8626 3.51656 15.7303 3.46178 15.6328 3.36426C15.5353 3.26674 15.4805 3.13447 15.4805 2.99656C15.4805 2.85865 15.5353 2.72639 15.6328 2.62887C15.7303 2.53135 15.8626 2.47656 16.0005 2.47656C23.1692 2.47656 29.0004 8.30783 29.0004 15.4765C29.0004 15.6145 28.9457 15.7467 28.8481 15.8442C28.7506 15.9418 28.6184 15.9965 28.4804 15.9965H28.3775C28.3016 15.9965 28.2267 15.98 28.1579 15.948C28.0891 15.916 28.0281 15.8694 27.9792 15.8114C27.0983 14.7631 25.8097 14.162 24.4421 14.162ZM18.5551 3.94483C23.367 5.01005 27.0866 9.02148 27.7172 13.9808C26.7547 13.3235 25.614 12.97 24.4432 12.9709C23.2218 12.97 22.0339 13.355 21.0476 14.0671C20.9644 12.0051 20.7004 9.95504 20.2634 8.16067C19.8508 6.46649 19.2812 4.98868 18.5551 3.94483Z" fill="#1C6252" stroke="#1C6252" stroke-width="0.3"/>
    <path d="M28.0062 15.9503C28.1318 16.076 28.3023 16.1465 28.48 16.1465C28.6577 16.1465 28.8281 16.076 28.9537 15.9503C29.0794 15.8247 29.15 15.6542 29.15 15.4765C29.15 8.22499 23.2515 2.32656 16 2.32656C8.74843 2.32656 2.85 8.22499 2.85 15.4765C2.85 15.6542 2.92059 15.8247 3.04624 15.9503C3.17189 16.076 3.3423 16.1465 3.52 16.1465C3.69769 16.1465 3.86811 16.076 3.99376 15.9503C4.11941 15.8247 4.19 15.6542 4.19 15.4765C4.19 8.96475 9.48819 3.66656 16 3.66656C22.5118 3.66656 27.81 8.96475 27.81 15.4765C27.81 15.6542 27.8805 15.8247 28.0062 15.9503Z" fill="#1C6252" stroke="#1C6252" stroke-width="0.3"/>
    <path d="M19.9292 15.9503C20.0549 16.076 20.2253 16.1465 20.403 16.1465C20.7739 16.1465 21.073 15.8475 21.073 15.4765C21.073 12.3142 20.6402 9.04707 19.8022 6.56517C19.3834 5.32483 18.8603 4.27123 18.2319 3.52493C17.6025 2.77736 16.8566 2.32656 15.9986 2.32656C15.1406 2.32656 14.3947 2.77736 13.7653 3.52493C13.1369 4.27123 12.6138 5.32483 12.195 6.56517C11.357 9.04707 10.9242 12.3142 10.9242 15.4765C10.9242 15.6542 10.9948 15.8247 11.1205 15.9503C11.2461 16.076 11.4165 16.1465 11.5942 16.1465C11.7719 16.1465 11.9423 16.076 12.068 15.9503C12.1936 15.8247 12.2642 15.6542 12.2642 15.4765C12.2642 11.9656 12.7744 8.99298 13.5092 6.90328C13.8768 5.85767 14.2982 5.04012 14.7346 4.48709C15.1744 3.92966 15.6082 3.66656 15.9986 3.66656C16.389 3.66656 16.8228 3.92966 17.2626 4.48709C17.699 5.04012 18.1204 5.85767 18.488 6.90328C19.2228 8.99299 19.733 11.9656 19.733 15.4765C19.733 15.6542 19.8036 15.8247 19.9292 15.9503Z" fill="#1C6252" stroke="#1C6252" stroke-width="0.3"/>
    <path d="M20.4049 15.95H20.4047C20.3098 15.9499 20.2159 15.9296 20.1294 15.8906C20.0429 15.8516 19.9656 15.7948 19.9026 15.7237L19.9024 15.7235C18.9137 14.6033 17.4923 13.9605 16.0015 13.9605C14.5107 13.9605 13.0894 14.6033 12.1006 15.7235L11.9882 15.6242M20.4049 15.95L21.0749 15.276C21.0582 12.162 20.6143 8.94484 19.7751 6.50087C19.3556 5.27947 18.8343 4.24188 18.2108 3.5069C17.5862 2.77072 16.8481 2.32656 16.0015 2.32656C15.1549 2.32656 14.4168 2.77079 13.7922 3.50705C13.1687 4.24211 12.6474 5.2798 12.228 6.50126C11.3888 8.94526 10.9449 12.1622 10.9282 15.2756M20.4049 15.95C20.4932 15.95 20.5806 15.9325 20.6622 15.8986C20.7437 15.8647 20.8178 15.815 20.8801 15.7523C20.9423 15.6897 20.9916 15.6153 21.025 15.5336C21.0584 15.4519 21.0754 15.3643 21.0749 15.2761L20.4049 15.95ZM11.9882 15.6242L12.1012 15.7228C12.0112 15.826 11.8918 15.899 11.759 15.9322C11.6262 15.9653 11.4864 15.9569 11.3585 15.9081C11.2306 15.8592 11.1208 15.7724 11.0439 15.6592C10.967 15.5461 10.9266 15.4123 10.9282 15.2756M11.9882 15.6242C11.9184 15.7042 11.8257 15.7609 11.7227 15.7866C11.6196 15.8123 11.5112 15.8058 11.412 15.7679C11.3128 15.7301 11.2276 15.6627 11.1679 15.5749C11.1082 15.487 11.0769 15.383 11.0782 15.2769M11.9882 15.6242C13.0053 14.4719 14.4675 13.8105 16.0015 13.8105C17.5355 13.8105 18.9978 14.4719 20.0149 15.6242C20.0638 15.6794 20.1238 15.7236 20.191 15.7539L11.0782 15.2769M10.9282 15.2756C10.9282 15.2754 10.9282 15.2752 10.9282 15.2751L11.0782 15.2769M10.9282 15.2756C10.9282 15.2757 10.9282 15.2759 10.9282 15.2761L11.0782 15.2769M16.0015 12.6205H16.0015C14.6812 12.6209 13.3945 13.0208 12.3089 13.7636C12.4567 10.7738 12.9816 8.26531 13.6707 6.49212C14.0273 5.5745 14.4252 4.8607 14.8322 4.37916C15.2418 3.89438 15.6415 3.66656 16.0015 3.66656C16.3616 3.66656 16.7612 3.89443 17.1709 4.3793C17.5778 4.86092 17.9757 5.57482 18.3323 6.49251C19.0214 8.26583 19.5463 10.7743 19.6941 13.7637C18.6154 13.0258 17.3304 12.6205 16.0015 12.6205Z" fill="#1C6252" stroke="#1C6252" stroke-width="0.3"/>
    <path d="M15.5267 3.47126C15.6524 3.59691 15.8228 3.6675 16.0005 3.6675C16.1782 3.6675 16.3486 3.59691 16.4742 3.47126C16.5999 3.34561 16.6705 3.17519 16.6705 2.9975V1.9575C16.6705 1.7798 16.5999 1.60939 16.4742 1.48374C16.3486 1.35809 16.1782 1.2875 16.0005 1.2875C15.8228 1.2875 15.6524 1.35809 15.5267 1.48374C15.4011 1.60939 15.3305 1.7798 15.3305 1.9575V2.9975C15.3305 3.17519 15.4011 3.34561 15.5267 3.47126Z" fill="#1C6252" stroke="#1C6252" stroke-width="0.3"/>
    <path d="M16.0013 28.8307C19.223 28.8307 21.8346 26.2191 21.8346 22.9974C21.8346 19.7757 19.223 17.1641 16.0013 17.1641C12.7796 17.1641 10.168 19.7757 10.168 22.9974C10.168 26.2191 12.7796 28.8307 16.0013 28.8307Z" stroke="#1C6252" stroke-width="1.5" stroke-linecap="round" stroke-linejoin="round"/>
    <path d="M14 24.37C14 25.0476 14.5988 25.5925 15.3333 25.5925H16.8343C17.473 25.5925 17.992 25.1175 17.992 24.5236C17.992 23.8879 17.6727 23.6574 17.2016 23.5107L14.7984 22.7771C14.3273 22.6304 14.008 22.4069 14.008 21.7642C14.008 21.1773 14.5269 20.6953 15.1657 20.6953H16.6667C17.4012 20.6953 18 21.2402 18 21.9179" stroke="#1C6252" stroke-linecap="round" stroke-linejoin="round"/>
    <path d="M15.9961 20V26.2874" stroke="#1C6252" stroke-linecap="round" stroke-linejoin="round"/>
</svg>
