<svg width="21" height="31" viewBox="0 0 21 31" fill="none" xmlns="http://www.w3.org/2000/svg">
<g id="Group">
<path id="Vector" d="M10.1649 6.5176C9.17178 6.49103 8.18994 6.7333 7.32318 7.2188C6.45642 7.70429 5.73694 8.41495 5.24081 9.27567C4.67018 10.2633 4.4199 11.4035 4.52446 12.5394C4.62901 13.6752 5.08326 14.7506 5.8246 15.6174L4.97696 17.0847L5.31436 18.3415L4.0576 18.677L4.395 19.932L3.13824 20.2703L3.47564 21.5252L2.23359 21.8378L2.55629 23.1175L1.29952 23.454L0.839844 24.2511L1.74357 26.3647L4.02542 26.0889L9.00926 17.4561C9.66697 17.5734 10.3405 17.5696 10.9969 17.4451C10.2756 16.9384 9.68675 16.2656 9.28015 15.4834C8.87356 14.7013 8.66114 13.8328 8.66082 12.9513C8.66122 11.659 9.11555 10.4079 9.94447 9.41648C10.7734 8.42507 11.9242 7.75633 13.196 7.52705C13.0601 7.42976 12.92 7.33865 12.7759 7.254C11.9809 6.79382 11.0832 6.54124 10.1649 6.5176ZM14.1779 10.1932C13.9174 10.1928 13.662 10.2662 13.4415 10.405C13.221 10.5437 13.0443 10.7421 12.9318 10.9771C12.8194 11.2122 12.7759 11.4743 12.8062 11.733C12.8366 11.9918 12.9397 12.2366 13.1035 12.4392C13.2673 12.6419 13.4851 12.7939 13.7318 12.8778C13.9785 12.9617 14.2439 12.974 14.4972 12.9133C14.7506 12.8526 14.9816 12.7213 15.1634 12.5348C15.3453 12.3482 15.4706 12.1139 15.5248 11.8591C15.5162 11.5733 15.4855 11.2887 15.4328 11.0077C15.3245 10.7654 15.1484 10.5596 14.9257 10.4151C14.703 10.2705 14.4433 10.1935 14.1779 10.1932Z" fill="#609186" stroke="#1C6252" stroke-width="1.5" stroke-linecap="round" stroke-linejoin="round"/>
<path id="Vector_2" d="M14.1767 7.4375C12.8754 7.43741 11.616 7.89738 10.621 8.73611C9.62605 9.57483 8.95966 10.7383 8.73961 12.0209C8.51956 13.3034 8.76002 14.6225 9.4185 15.7449C10.077 16.8673 11.1111 17.7208 12.338 18.1545V19.8488L13.2573 20.7682L12.338 21.6876L13.2573 22.6069L12.338 23.5263L13.2573 24.4456L12.338 25.3374L13.2573 26.2843L12.338 27.2037V28.1231L14.1767 29.5021L16.0154 28.1231V18.1545C17.2417 17.7203 18.2751 16.8668 18.933 15.7446C19.591 14.6224 19.8312 13.3038 19.6112 12.0217C19.3912 10.7396 18.7252 9.57649 17.7308 8.73784C16.7363 7.89918 15.4775 7.43802 14.1767 7.4375ZM14.1767 10.1956C14.5424 10.1956 14.8932 10.3409 15.1518 10.5995C15.4104 10.8581 15.5557 11.2089 15.5557 11.5746C15.5557 11.9404 15.4104 12.2911 15.1518 12.5497C14.8932 12.8084 14.5424 12.9536 14.1767 12.9536C13.811 12.9536 13.4602 12.8084 13.2016 12.5497C12.9429 12.2911 12.7977 11.9404 12.7977 11.5746C12.7977 11.2089 12.9429 10.8581 13.2016 10.5995C13.4602 10.3409 13.811 10.1956 14.1767 10.1956Z" stroke="#1C6252" stroke-width="1.5" stroke-linecap="round" stroke-linejoin="round"/>
<path id="Vector_3" d="M6.50066 7.65789C6.27162 6.58699 6.36717 5.47212 6.77511 4.45579C7.18305 3.43946 7.88484 2.56784 8.79078 1.95235C9.69692 1.33654 10.7662 1.00497 11.8618 1.00006C12.9575 0.995142 14.0297 1.31711 14.9413 1.92477C15.8526 2.53216 16.562 3.39741 16.9789 4.40996C17.3959 5.42251 17.5014 6.53636 17.282 7.60917C17.0624 8.68213 16.5277 9.66523 15.7464 10.4328C14.9651 11.2004 13.9726 11.7176 12.8957 11.9182" stroke="#1C6252" stroke-width="1.5" stroke-linecap="round" stroke-linejoin="round"/>
</g>
</svg>
