<svg width="32" height="32" viewBox="0 0 32 32" fill="none" xmlns="http://www.w3.org/2000/svg">
<path d="M27.4398 2.85V2.85C28.2776 2.85598 29.0791 3.19338 29.6689 3.78847C30.2587 4.38356 30.589 5.18794 30.5875 6.02581M27.4398 2.85L30.4375 6.02554M27.4398 2.85H27.4387H9.05002C7.37296 2.85 6.00607 4.20169 6.00579 5.86148L6.00579 5.8609L6.15579 5.862M27.4398 2.85L6.00579 5.862M30.5875 6.02581L30.4375 6.02554M30.5875 6.02581V6.02554H30.4375M30.5875 6.02581V10.1143C30.5875 10.4359 30.3406 10.7487 29.9889 10.7487H25.4641M30.4375 6.02554V10.1143C30.4375 10.3684 30.2432 10.5987 29.9889 10.5987H25.4641V10.7487M25.4641 10.7487H25.3141V24.7614M25.4641 10.7487L25.4641 24.7606L25.3141 24.7614M25.3141 24.7614H25.4641V24.7609M25.3141 24.7614C25.3196 25.7933 24.915 26.7852 24.1893 27.519C23.4637 28.2528 22.4763 28.6683 21.4443 28.6743H21.4335C21.3953 28.6743 21.3593 28.6685 21.3194 28.6618V28.6743V28.8138M25.4641 24.7609L27.4387 3H9.05002C7.45413 3 6.15579 4.28631 6.15579 5.862M25.4641 24.7609C25.4697 25.8325 25.0495 26.8625 24.296 27.6245C23.5424 28.3865 22.517 28.8181 21.4452 28.8243L21.4443 28.8243L21.4335 28.8243C21.3919 28.8243 21.353 28.8192 21.3194 28.8138M25.4641 24.7609L6.00579 5.862M21.3194 28.8138C21.3115 28.8126 21.3038 28.8113 21.2965 28.8101L21.2904 28.8091C21.251 28.8025 21.2142 28.7966 21.1694 28.7944C21.1674 28.7943 21.1653 28.7942 21.1633 28.7942L21.1682 28.6743H21.0194H5.83421H5.68421V28.6476M21.3194 28.8138V28.8243H21.1694H5.68421H5.53421V28.7881M5.68421 28.6476C3.66941 28.554 2 26.8479 2 24.7619V22.5336C2 22.2792 2.19423 22.0543 2.44855 22.0543H6.0372M5.68421 28.6476H5.53421V28.6743V28.7881M5.68421 28.6476L5.68297 28.6743L5.67725 28.7974C5.62937 28.7952 5.58169 28.7921 5.53421 28.7881M6.0372 22.0543L6.15579 5.862M6.0372 22.0543V21.9043H5.8883M6.0372 22.0543L5.88721 22.0532L5.8883 21.9043M6.15579 5.862H6.00579M6.00579 5.862L5.8883 21.9043M5.8883 21.9043H2.44855C2.09878 21.9043 1.85 22.2096 1.85 22.5336V24.7619C1.85 26.879 3.50449 28.6189 5.53421 28.7881M18.0033 22.0543C18.1273 22.0586 18.2448 22.111 18.3308 22.2005C18.4167 22.29 18.4645 22.4095 18.4638 22.5336V24.7541C18.4619 25.5451 18.7734 26.3047 19.33 26.8668C19.8867 27.4288 20.6432 27.7475 21.4342 27.7533L18.0033 22.0543ZM18.0033 22.0543H7.10832H18.0033ZM21.4348 27.6033H21.4438C22.9968 27.6033 24.2431 26.3195 24.2431 24.761V6.03786C24.2431 5.29638 24.5168 4.6254 24.9431 4.07105H9.05002C8.04277 4.07105 7.22684 4.87903 7.22684 5.86534V5.86643H7.22684L7.10942 21.9043H18.0033H18.0085L18.0085 21.9044C18.1715 21.91 18.3259 21.979 18.4389 22.0966C18.5519 22.2141 18.6146 22.371 18.6138 22.534V22.5336L21.4348 27.6033ZM21.4348 27.6033C20.6836 27.5977 19.9652 27.2949 19.4366 26.7612C18.9079 26.2273 18.612 25.5058 18.6138 24.7545V24.7541L18.6138 22.5344L21.4348 27.6033ZM6.95941 21.9043L7.07684 5.86534C7.07684 4.79415 7.96197 3.92105 9.05002 3.92105L6.95941 21.9043ZM29.3664 6.02949V6.03021V6.03372V9.52763H25.4641V6.03711C25.4641 4.96676 26.3563 4.07105 27.4251 4.07105H27.4372C27.9522 4.07633 28.4441 4.28519 28.8056 4.65201C29.1673 5.019 29.3689 5.51425 29.3664 6.02949ZM5.88569 27.6033H5.88252C4.32932 27.6033 3.07105 26.3185 3.07105 24.7614V23.1253H17.3928L17.3928 24.7533L17.5428 24.7538H17.3928V24.7535C17.391 25.2864 17.4944 25.8144 17.6971 26.3072C17.8959 26.7905 18.1863 27.2306 18.5521 27.6033H5.88569Z" fill="#1C6252" stroke="#1C6252" stroke-width="0.3"/>
<path d="M19.3225 7.77631L19.3225 7.7763L19.3207 7.7754L15.7059 5.99712L15.6393 6.13155L15.7055 5.99696L15.7057 5.99702C15.6224 5.95588 15.5309 5.93447 15.438 5.93447C15.3452 5.93447 15.2537 5.95587 15.1704 5.99701C15.1704 5.99704 15.1703 5.99708 15.1702 5.99712L11.5623 7.77036L11.5623 7.77035L11.5604 7.7713C11.4592 7.8228 11.3747 7.90201 11.3168 7.99969C11.2593 8.09668 11.2303 8.20792 11.2333 8.32061V11.6079C11.2333 12.1339 11.3936 12.6995 11.6575 13.2041C11.9213 13.7087 12.2941 14.1629 12.7297 14.4599L15.1034 16.0828C15.1034 16.0829 15.1035 16.0829 15.1035 16.0829C15.2042 16.1523 15.3236 16.1894 15.4458 16.1894C15.5681 16.1894 15.6874 16.1523 15.7881 16.083C15.7882 16.0829 15.7883 16.0829 15.7883 16.0828L18.1549 14.4601C18.1549 14.4601 18.155 14.4601 18.155 14.4601C18.5906 14.1629 18.963 13.7087 19.2265 13.2041C19.49 12.6994 19.65 12.1338 19.65 11.6079V8.32532C19.6528 8.21263 19.6237 8.10144 19.5661 8.0045C19.5081 7.90692 19.4236 7.82779 19.3225 7.77631ZM17.4662 13.4511L17.4661 13.4512L15.4365 14.8393L13.415 13.4515L13.4147 13.4513C13.1537 13.2732 12.912 12.9765 12.7353 12.6358C12.5586 12.2952 12.4543 11.9249 12.4543 11.6079V8.69904L15.4415 7.2251L18.429 8.70336V11.6079C18.429 11.9248 18.3241 12.295 18.1469 12.6357C17.9695 12.9764 17.7272 13.2731 17.4662 13.4511Z" fill="#1C6252" stroke="#1C6252" stroke-width="0.3"/>
<path d="M14.9918 11.1833L16.4254 9.74966L16.4255 9.74963C16.5307 9.64451 16.6733 9.58549 16.8221 9.58555C16.9708 9.58561 17.1134 9.64474 17.2185 9.74995C17.3236 9.85515 17.3827 9.99781 17.3826 10.1465C17.3825 10.2953 17.3234 10.4379 17.2182 10.543M14.9918 11.1833L15.3155 12.305L15.3864 12.3755L17.2182 10.543M14.9918 11.1833L14.4609 10.6472L14.4609 10.6472C14.3562 10.5416 14.2138 10.4819 14.0651 10.4812C13.9164 10.4806 13.7735 10.539 13.6679 10.6437C13.5622 10.7484 13.5025 10.8908 13.5019 11.0395C13.5012 11.1882 13.5597 11.3311 13.6643 11.4367L14.9918 11.1833ZM17.2182 10.543L17.1475 10.4722L17.2182 10.5429L17.2182 10.543ZM14.9903 12.5413C15.139 12.5406 15.2815 12.481 15.3864 12.3756L13.6644 11.4368L14.5912 12.3731C14.5913 12.3732 14.5913 12.3732 14.5914 12.3733C14.6431 12.4261 14.7048 12.4681 14.7729 12.4969C14.841 12.5257 14.9142 12.5408 14.9881 12.5413H14.9887L14.9898 12.5413L14.9903 12.5413ZM21.1694 17.1768H10.1168C9.96812 17.1768 9.82554 17.2359 9.72042 17.341C9.6153 17.4461 9.55625 17.5887 9.55625 17.7373C9.55625 17.886 9.6153 18.0286 9.72042 18.1337C9.82554 18.2388 9.96812 18.2979 10.1168 18.2979H21.1694C21.3181 18.2979 21.4606 18.2388 21.5658 18.1337C21.6709 18.0286 21.7299 17.886 21.7299 17.7373C21.7299 17.5887 21.6709 17.4461 21.5658 17.341C21.4606 17.2359 21.3181 17.1768 21.1694 17.1768ZM21.1694 19.3067H10.1168C9.96812 19.3067 9.82554 19.3658 9.72042 19.4709C9.6153 19.576 9.55625 19.7186 9.55625 19.8673C9.55625 20.0159 9.6153 20.1585 9.72042 20.2636C9.82554 20.3687 9.96812 20.4278 10.1168 20.4278H21.1694C21.3181 20.4278 21.4606 20.3687 21.5658 20.2636C21.6709 20.1585 21.7299 20.0159 21.7299 19.8673C21.7299 19.7186 21.6709 19.576 21.5658 19.4709C21.4606 19.3658 21.3181 19.3067 21.1694 19.3067Z" fill="#1C6252" stroke="#1C6252" stroke-width="0.2"/>
</svg>
