<svg xmlns="http://www.w3.org/2000/svg" width="32" height="32" viewBox="0 0 32 32" fill="none">
    <mask id="path-1-outside-1_10612_56363" maskUnits="userSpaceOnUse" x="1" y="2" width="30" height="27" fill="black">
        <rect fill="white" x="1" y="2" width="30" height="27"/>
        <path d="M27.4387 3H9.05002C7.45413 3 6.15579 4.28631 6.15579 5.862L6.0372 22.0543H2.44855C2.19423 22.0543 2 22.2792 2 22.5336V24.7619C2 26.8479 3.66941 28.554 5.68421 28.6476V28.6743H21.1694V28.6443C21.2845 28.649 21.3543 28.6743 21.4335 28.6743H21.4443C22.4763 28.6683 23.4637 28.2528 24.1893 27.519C24.915 26.7852 25.3196 25.7933 25.3141 24.7614V10.5987H29.9889C30.2432 10.5987 30.4375 10.3684 30.4375 10.1143V6.02554C30.4389 5.22732 30.1243 4.46099 29.5623 3.89406C29.0004 3.32713 28.2369 3.00569 27.4387 3ZM5.88252 27.7533C4.24449 27.7533 2.92105 26.3993 2.92105 24.7614V22.9753H17.5428V24.7538C17.541 25.267 17.6406 25.7755 17.8358 26.2502C18.0311 26.7248 18.3181 27.1563 18.6805 27.5197C18.7585 27.598 18.8398 27.6382 18.9231 27.7533H5.88252ZM24.3931 24.761C24.3931 26.3995 23.0825 27.7533 21.4438 27.7533H21.4342C20.6432 27.7475 19.8867 27.4288 19.33 26.8668C18.7734 26.3047 18.4619 25.5451 18.4638 24.7541V22.5336C18.4645 22.4095 18.4167 22.29 18.3308 22.2005C18.2448 22.111 18.1273 22.0586 18.0033 22.0543H6.95831L7.07684 5.86534C7.07684 4.79415 7.96197 3.92105 9.05002 3.92105H25.2645C24.7397 4.49671 24.3931 5.22509 24.3931 6.03786V24.761ZM29.5164 9.67763H25.3141V6.03711C25.3141 4.88436 26.2731 3.92105 27.4251 3.92105H27.438C27.9928 3.92654 28.523 4.15149 28.9124 4.54672C29.3019 4.94195 29.5191 5.47532 29.5164 6.03021V9.67763Z"/>
        <path d="M12.8141 14.336L15.1884 15.9593C15.2641 16.0115 15.3539 16.0394 15.4458 16.0394C15.5377 16.0394 15.6275 16.0115 15.7032 15.9593L18.0703 14.3363C18.8926 13.7754 19.5 12.6024 19.5 11.6079V8.3234C19.5023 8.23832 19.4805 8.15431 19.4371 8.08114C19.3936 8.00796 19.3302 7.94862 19.2544 7.91002L15.6393 6.13158C15.5767 6.10061 15.5078 6.0845 15.438 6.0845C15.3682 6.0845 15.2993 6.10061 15.2367 6.13158L11.6284 7.90501C11.5525 7.94361 11.4892 8.00299 11.4458 8.07621C11.4024 8.14943 11.3807 8.23348 11.3832 8.31856V11.6079C11.3832 12.6024 11.992 13.7754 12.8141 14.336ZM12.3042 8.60581L15.4416 7.05781L18.5789 8.61025V11.6079C18.5789 12.3015 18.1241 13.184 17.5507 13.575L15.4363 15.0212L13.3301 13.5752C12.7565 13.1838 12.3042 12.3015 12.3042 11.6079V8.60581Z"/>
        <path d="M14.6626 12.3031C14.7052 12.3465 14.7559 12.3811 14.8119 12.4048C14.8678 12.4285 14.928 12.4409 14.9887 12.4412H14.9898C15.1122 12.4407 15.2293 12.3917 15.3155 12.3049L17.1475 10.4722C17.234 10.3858 17.2825 10.2687 17.2826 10.1465C17.2826 10.0243 17.2341 9.90704 17.1478 9.82059C17.0614 9.73415 16.9442 9.68556 16.822 9.68551C16.6998 9.68546 16.5826 9.73396 16.4962 9.82033L14.9914 11.325L14.3899 10.7176C14.3039 10.6308 14.1869 10.5817 14.0647 10.5812C13.9425 10.5806 13.8251 10.6287 13.7383 10.7147C13.6515 10.8007 13.6024 10.9177 13.6019 11.0399C13.6014 11.1621 13.6494 11.2795 13.7354 11.3663L14.6626 12.3031ZM21.1694 17.2768H10.1168C9.99464 17.2768 9.8775 17.3253 9.79113 17.4117C9.70477 17.498 9.65625 17.6152 9.65625 17.7373C9.65625 17.8594 9.70477 17.9766 9.79113 18.0629C9.8775 18.1493 9.99464 18.1978 10.1168 18.1978H21.1694C21.2915 18.1978 21.4087 18.1493 21.495 18.0629C21.5814 17.9766 21.6299 17.8594 21.6299 17.7373C21.6299 17.6152 21.5814 17.498 21.495 17.4117C21.4087 17.3253 21.2915 17.2768 21.1694 17.2768ZM21.1694 19.4067H10.1168C9.99464 19.4067 9.8775 19.4552 9.79113 19.5416C9.70477 19.628 9.65625 19.7451 9.65625 19.8672C9.65625 19.9894 9.70477 20.1065 9.79113 20.1929C9.8775 20.2792 9.99464 20.3278 10.1168 20.3278H21.1694C21.2915 20.3278 21.4087 20.2792 21.495 20.1929C21.5814 20.1065 21.6299 19.9894 21.6299 19.8672C21.6299 19.7451 21.5814 19.628 21.495 19.5416C21.4087 19.4552 21.2915 19.4067 21.1694 19.4067Z"/>
    </mask>
    <path d="M27.4387 3H9.05002C7.45413 3 6.15579 4.28631 6.15579 5.862L6.0372 22.0543H2.44855C2.19423 22.0543 2 22.2792 2 22.5336V24.7619C2 26.8479 3.66941 28.554 5.68421 28.6476V28.6743H21.1694V28.6443C21.2845 28.649 21.3543 28.6743 21.4335 28.6743H21.4443C22.4763 28.6683 23.4637 28.2528 24.1893 27.519C24.915 26.7852 25.3196 25.7933 25.3141 24.7614V10.5987H29.9889C30.2432 10.5987 30.4375 10.3684 30.4375 10.1143V6.02554C30.4389 5.22732 30.1243 4.46099 29.5623 3.89406C29.0004 3.32713 28.2369 3.00569 27.4387 3ZM5.88252 27.7533C4.24449 27.7533 2.92105 26.3993 2.92105 24.7614V22.9753H17.5428V24.7538C17.541 25.267 17.6406 25.7755 17.8358 26.2502C18.0311 26.7248 18.3181 27.1563 18.6805 27.5197C18.7585 27.598 18.8398 27.6382 18.9231 27.7533H5.88252ZM24.3931 24.761C24.3931 26.3995 23.0825 27.7533 21.4438 27.7533H21.4342C20.6432 27.7475 19.8867 27.4288 19.33 26.8668C18.7734 26.3047 18.4619 25.5451 18.4638 24.7541V22.5336C18.4645 22.4095 18.4167 22.29 18.3308 22.2005C18.2448 22.111 18.1273 22.0586 18.0033 22.0543H6.95831L7.07684 5.86534C7.07684 4.79415 7.96197 3.92105 9.05002 3.92105H25.2645C24.7397 4.49671 24.3931 5.22509 24.3931 6.03786V24.761ZM29.5164 9.67763H25.3141V6.03711C25.3141 4.88436 26.2731 3.92105 27.4251 3.92105H27.438C27.9928 3.92654 28.523 4.15149 28.9124 4.54672C29.3019 4.94195 29.5191 5.47532 29.5164 6.03021V9.67763Z" fill="#1C6252"/>
    <path d="M12.8141 14.336L15.1884 15.9593C15.2641 16.0115 15.3539 16.0394 15.4458 16.0394C15.5377 16.0394 15.6275 16.0115 15.7032 15.9593L18.0703 14.3363C18.8926 13.7754 19.5 12.6024 19.5 11.6079V8.3234C19.5023 8.23832 19.4805 8.15431 19.4371 8.08114C19.3936 8.00796 19.3302 7.94862 19.2544 7.91002L15.6393 6.13158C15.5767 6.10061 15.5078 6.0845 15.438 6.0845C15.3682 6.0845 15.2993 6.10061 15.2367 6.13158L11.6284 7.90501C11.5525 7.94361 11.4892 8.00299 11.4458 8.07621C11.4024 8.14943 11.3807 8.23348 11.3832 8.31856V11.6079C11.3832 12.6024 11.992 13.7754 12.8141 14.336ZM12.3042 8.60581L15.4416 7.05781L18.5789 8.61025V11.6079C18.5789 12.3015 18.1241 13.184 17.5507 13.575L15.4363 15.0212L13.3301 13.5752C12.7565 13.1838 12.3042 12.3015 12.3042 11.6079V8.60581Z" fill="#1C6252"/>
    <path d="M14.6626 12.3031C14.7052 12.3465 14.7559 12.3811 14.8119 12.4048C14.8678 12.4285 14.928 12.4409 14.9887 12.4412H14.9898C15.1122 12.4407 15.2293 12.3917 15.3155 12.3049L17.1475 10.4722C17.234 10.3858 17.2825 10.2687 17.2826 10.1465C17.2826 10.0243 17.2341 9.90704 17.1478 9.82059C17.0614 9.73415 16.9442 9.68556 16.822 9.68551C16.6998 9.68546 16.5826 9.73396 16.4962 9.82033L14.9914 11.325L14.3899 10.7176C14.3039 10.6308 14.1869 10.5817 14.0647 10.5812C13.9425 10.5806 13.8251 10.6287 13.7383 10.7147C13.6515 10.8007 13.6024 10.9177 13.6019 11.0399C13.6014 11.1621 13.6494 11.2795 13.7354 11.3663L14.6626 12.3031ZM21.1694 17.2768H10.1168C9.99464 17.2768 9.8775 17.3253 9.79113 17.4117C9.70477 17.498 9.65625 17.6152 9.65625 17.7373C9.65625 17.8594 9.70477 17.9766 9.79113 18.0629C9.8775 18.1493 9.99464 18.1978 10.1168 18.1978H21.1694C21.2915 18.1978 21.4087 18.1493 21.495 18.0629C21.5814 17.9766 21.6299 17.8594 21.6299 17.7373C21.6299 17.6152 21.5814 17.498 21.495 17.4117C21.4087 17.3253 21.2915 17.2768 21.1694 17.2768ZM21.1694 19.4067H10.1168C9.99464 19.4067 9.8775 19.4552 9.79113 19.5416C9.70477 19.628 9.65625 19.7451 9.65625 19.8672C9.65625 19.9894 9.70477 20.1065 9.79113 20.1929C9.8775 20.2792 9.99464 20.3278 10.1168 20.3278H21.1694C21.2915 20.3278 21.4087 20.2792 21.495 20.1929C21.5814 20.1065 21.6299 19.9894 21.6299 19.8672C21.6299 19.7451 21.5814 19.628 21.495 19.5416C21.4087 19.4552 21.2915 19.4067 21.1694 19.4067Z" fill="#1C6252"/>
    <path d="M27.4387 3H9.05002C7.45413 3 6.15579 4.28631 6.15579 5.862L6.0372 22.0543H2.44855C2.19423 22.0543 2 22.2792 2 22.5336V24.7619C2 26.8479 3.66941 28.554 5.68421 28.6476V28.6743H21.1694V28.6443C21.2845 28.649 21.3543 28.6743 21.4335 28.6743H21.4443C22.4763 28.6683 23.4637 28.2528 24.1893 27.519C24.915 26.7852 25.3196 25.7933 25.3141 24.7614V10.5987H29.9889C30.2432 10.5987 30.4375 10.3684 30.4375 10.1143V6.02554C30.4389 5.22732 30.1243 4.46099 29.5623 3.89406C29.0004 3.32713 28.2369 3.00569 27.4387 3ZM5.88252 27.7533C4.24449 27.7533 2.92105 26.3993 2.92105 24.7614V22.9753H17.5428V24.7538C17.541 25.267 17.6406 25.7755 17.8358 26.2502C18.0311 26.7248 18.3181 27.1563 18.6805 27.5197C18.7585 27.598 18.8398 27.6382 18.9231 27.7533H5.88252ZM24.3931 24.761C24.3931 26.3995 23.0825 27.7533 21.4438 27.7533H21.4342C20.6432 27.7475 19.8867 27.4288 19.33 26.8668C18.7734 26.3047 18.4619 25.5451 18.4638 24.7541V22.5336C18.4645 22.4095 18.4167 22.29 18.3308 22.2005C18.2448 22.111 18.1273 22.0586 18.0033 22.0543H6.95831L7.07684 5.86534C7.07684 4.79415 7.96197 3.92105 9.05002 3.92105H25.2645C24.7397 4.49671 24.3931 5.22509 24.3931 6.03786V24.761ZM29.5164 9.67763H25.3141V6.03711C25.3141 4.88436 26.2731 3.92105 27.4251 3.92105H27.438C27.9928 3.92654 28.523 4.15149 28.9124 4.54672C29.3019 4.94195 29.5191 5.47532 29.5164 6.03021V9.67763Z" stroke="#1C6252" stroke-width="0.4" mask="url(#path-1-outside-1_10612_56363)"/>
    <path d="M12.8141 14.336L15.1884 15.9593C15.2641 16.0115 15.3539 16.0394 15.4458 16.0394C15.5377 16.0394 15.6275 16.0115 15.7032 15.9593L18.0703 14.3363C18.8926 13.7754 19.5 12.6024 19.5 11.6079V8.3234C19.5023 8.23832 19.4805 8.15431 19.4371 8.08114C19.3936 8.00796 19.3302 7.94862 19.2544 7.91002L15.6393 6.13158C15.5767 6.10061 15.5078 6.0845 15.438 6.0845C15.3682 6.0845 15.2993 6.10061 15.2367 6.13158L11.6284 7.90501C11.5525 7.94361 11.4892 8.00299 11.4458 8.07621C11.4024 8.14943 11.3807 8.23348 11.3832 8.31856V11.6079C11.3832 12.6024 11.992 13.7754 12.8141 14.336ZM12.3042 8.60581L15.4416 7.05781L18.5789 8.61025V11.6079C18.5789 12.3015 18.1241 13.184 17.5507 13.575L15.4363 15.0212L13.3301 13.5752C12.7565 13.1838 12.3042 12.3015 12.3042 11.6079V8.60581Z" stroke="#1C6252" stroke-width="0.4" mask="url(#path-1-outside-1_10612_56363)"/>
    <path d="M14.6626 12.3031C14.7052 12.3465 14.7559 12.3811 14.8119 12.4048C14.8678 12.4285 14.928 12.4409 14.9887 12.4412H14.9898C15.1122 12.4407 15.2293 12.3917 15.3155 12.3049L17.1475 10.4722C17.234 10.3858 17.2825 10.2687 17.2826 10.1465C17.2826 10.0243 17.2341 9.90704 17.1478 9.82059C17.0614 9.73415 16.9442 9.68556 16.822 9.68551C16.6998 9.68546 16.5826 9.73396 16.4962 9.82033L14.9914 11.325L14.3899 10.7176C14.3039 10.6308 14.1869 10.5817 14.0647 10.5812C13.9425 10.5806 13.8251 10.6287 13.7383 10.7147C13.6515 10.8007 13.6024 10.9177 13.6019 11.0399C13.6014 11.1621 13.6494 11.2795 13.7354 11.3663L14.6626 12.3031ZM21.1694 17.2768H10.1168C9.99464 17.2768 9.8775 17.3253 9.79113 17.4117C9.70477 17.498 9.65625 17.6152 9.65625 17.7373C9.65625 17.8594 9.70477 17.9766 9.79113 18.0629C9.8775 18.1493 9.99464 18.1978 10.1168 18.1978H21.1694C21.2915 18.1978 21.4087 18.1493 21.495 18.0629C21.5814 17.9766 21.6299 17.8594 21.6299 17.7373C21.6299 17.6152 21.5814 17.498 21.495 17.4117C21.4087 17.3253 21.2915 17.2768 21.1694 17.2768ZM21.1694 19.4067H10.1168C9.99464 19.4067 9.8775 19.4552 9.79113 19.5416C9.70477 19.628 9.65625 19.7451 9.65625 19.8672C9.65625 19.9894 9.70477 20.1065 9.79113 20.1929C9.8775 20.2792 9.99464 20.3278 10.1168 20.3278H21.1694C21.2915 20.3278 21.4087 20.2792 21.495 20.1929C21.5814 20.1065 21.6299 19.9894 21.6299 19.8672C21.6299 19.7451 21.5814 19.628 21.495 19.5416C21.4087 19.4552 21.2915 19.4067 21.1694 19.4067Z" stroke="#1C6252" stroke-width="0.4" mask="url(#path-1-outside-1_10612_56363)"/>
</svg>