<svg width="32" height="32" viewBox="0 0 32 32" fill="none" xmlns="http://www.w3.org/2000/svg">
<g id="Property Icons">
<path id="Vector" d="M16 2C8.2685 2 2 8.2685 2 16C2 23.7315 8.2685 30 16 30C23.7315 30 30 23.7315 30 16C30 8.2685 23.7315 2 16 2ZM16 28.25C9.245 28.25 3.75 22.755 3.75 16C3.75 9.245 9.245 3.75 16 3.75C22.755 3.75 28.25 9.245 28.25 16C28.25 22.755 22.755 28.25 16 28.25ZM14.3585 11.5707C14.3585 10.8602 14.0762 10.1787 13.5738 9.67623C13.0713 9.17378 12.3898 8.8915 11.6792 8.8915C10.9687 8.8915 10.2872 9.17378 9.78473 9.67623C9.28228 10.1787 9 10.8602 9 11.5707C9 12.2813 9.28228 12.9628 9.78473 13.4653C10.2872 13.9677 10.9687 14.25 11.6792 14.25C12.3898 14.25 13.0713 13.9677 13.5738 13.4653C14.0762 12.9628 14.3585 12.2813 14.3585 11.5707ZM10.75 11.5707C10.7462 11.4463 10.7675 11.3223 10.8126 11.2062C10.8576 11.0901 10.9256 10.9842 11.0123 10.8948C11.099 10.8054 11.2029 10.7344 11.3176 10.6859C11.4323 10.6374 11.5556 10.6125 11.6801 10.6125C11.8047 10.6126 11.928 10.6377 12.0426 10.6863C12.1573 10.7349 12.261 10.806 12.3477 10.8954C12.4344 10.9849 12.5022 11.0908 12.5471 11.207C12.5921 11.3231 12.6133 11.4471 12.6094 11.5716C12.6018 11.8133 12.5005 12.0425 12.3269 12.2107C12.1533 12.3789 11.921 12.4729 11.6793 12.4728C11.4375 12.4727 11.2053 12.3784 11.0319 12.2101C10.8584 12.0417 10.7573 11.8124 10.75 11.5707ZM20.3207 17.6415C19.6102 17.6415 18.9287 17.9238 18.4262 18.4262C17.9238 18.9287 17.6415 19.6102 17.6415 20.3207C17.6415 21.0313 17.9238 21.7128 18.4262 22.2153C18.9287 22.7177 19.6102 23 20.3207 23C21.0313 23 21.7128 22.7177 22.2153 22.2153C22.7177 21.7128 23 21.0313 23 20.3207C23 19.6102 22.7177 18.9287 22.2153 18.4262C21.7128 17.9238 21.0313 17.6415 20.3207 17.6415ZM20.3207 21.25C20.1963 21.2538 20.0723 21.2325 19.9562 21.1874C19.8401 21.1424 19.7342 21.0744 19.6448 20.9877C19.5554 20.9009 19.4844 20.7971 19.4359 20.6824C19.3874 20.5677 19.3625 20.4444 19.3625 20.3199C19.3626 20.1953 19.3877 20.072 19.4363 19.9574C19.4849 19.8427 19.556 19.739 19.6454 19.6523C19.7349 19.5656 19.8408 19.4978 19.957 19.4529C20.0731 19.4079 20.1971 19.3867 20.3216 19.3906C20.5633 19.3982 20.7925 19.4995 20.9607 19.6731C21.1289 19.8467 21.2229 20.079 21.2228 20.3207C21.2227 20.5625 21.1284 20.7947 20.9601 20.9681C20.7917 21.1416 20.5624 21.2427 20.3207 21.25ZM21.8695 10.1305C21.7054 9.96646 21.4829 9.87431 21.2509 9.87431C21.0189 9.87431 20.7963 9.96646 20.6322 10.1305L10.1322 20.6305C10.0509 20.7117 9.98634 20.8082 9.94227 20.9144C9.8982 21.0206 9.87547 21.1344 9.87539 21.2494C9.87522 21.4816 9.96731 21.7043 10.1314 21.8686C10.2954 22.0329 10.5181 22.1253 10.7503 22.1255C10.9824 22.1257 11.2052 22.0336 11.3695 21.8695L21.8695 11.3695C22.2108 11.0265 22.2108 10.4735 21.8695 10.1305Z" fill="#1C6252"/>
</g>
</svg>
