<svg width="32" height="32" viewBox="0 0 32 32" fill="none" xmlns="http://www.w3.org/2000/svg">
<g id="Property Icons">
<path id="Rectangle 10" d="M24.668 29.3307H26.668C28.1407 29.3307 29.3346 28.1368 29.3346 26.6641V5.33073C29.3346 3.85797 28.1407 2.66406 26.668 2.66406H12.5013M18.0013 29.3307H5.33463C3.86187 29.3307 2.66797 28.1368 2.66797 26.6641V23.9976M12.5013 2.66406H5.33464C3.86188 2.66406 2.66797 3.85797 2.66797 5.33073V16.4976M12.5013 2.66406V10.9976H9.50134M6.00134 10.9976H2.66797M2.66797 16.4976C9.50134 16.4976 12.0013 19.4976 12.0013 23.9976H2.66797M2.66797 16.4976V22.4976V23.9976" stroke="#1C6252" stroke-width="1.5" stroke-linecap="round" stroke-linejoin="round"/>
<path id="Vector 6" d="M18.5 2.66406V6.99756M28.3333 13.4976H18.5V10.4976" stroke="#1C6252" stroke-width="1.5" stroke-linecap="round" stroke-linejoin="round"/>
</g>
</svg>
