<svg width="38" height="24" viewBox="0 0 38 24" fill="none" xmlns="http://www.w3.org/2000/svg">
<g id="Group 4076040" opacity="0.5">
<path id="Vector 2455" d="M31.459 3.02371V9.50421H34.3243C36.0008 9.50421 37.3598 10.8633 37.3598 12.5398V18.5586C37.3598 19.1174 36.9068 19.5704 36.348 19.5704H2.01186C1.45302 19.5704 1 19.1174 1 18.5586V2.01186C1 1.45302 1.45302 1 2.01186 1H29.4353C30.5529 1 31.459 1.90605 31.459 3.02371Z" stroke="#33CB98" stroke-width="1.01186"/>
<circle id="Ellipse 14929" cx="7.50683" cy="19.7432" r="3.22551" fill="#E9FEF7" stroke="#33CB98" stroke-width="1.01186"/>
<circle id="Ellipse 14930" cx="30.7705" cy="19.7432" r="3.22551" fill="#E9FEF7" stroke="#33CB98" stroke-width="1.01186"/>
<path id="Vector 2456" d="M31.4638 4.73096H7.73014C6.41217 4.73096 5.34375 5.79938 5.34375 7.11734V7.11734C5.34375 8.43531 6.41217 9.50373 7.73014 9.50373H31.4638" stroke="#33CB98" stroke-width="1.01186"/>
<path id="Vector 2457" d="M14.625 4.73096V19.4832" stroke="#33CB98" stroke-width="1.01186"/>
<path id="Vector 2458" d="M22.873 4.73096V19.4832" stroke="#33CB98" stroke-width="1.01186"/>
</g>
</svg>
