<svg width="32" height="32" viewBox="0 0 32 32" fill="none" xmlns="http://www.w3.org/2000/svg">
<path d="M20.189 12.0952C17.6838 12.0952 15.4355 12.6671 13.8048 13.6183C12.1782 14.5672 11.1281 15.9205 11.1281 17.4849V20.7891V24.0932C11.1281 25.6576 12.1782 27.0109 13.8048 27.9598C15.4355 28.911 17.6838 29.4829 20.189 29.4829C22.6943 29.4829 24.9425 28.911 26.5732 27.9598C28.1999 27.0109 29.25 25.6576 29.25 24.0932V20.7891V17.4849C29.25 15.9205 28.1999 14.5672 26.5732 13.6183C24.9425 12.6671 22.6943 12.0952 20.189 12.0952ZM28.0157 24.0932C28.0157 25.1732 27.2067 26.208 25.7777 26.9874C24.3585 27.7615 22.382 28.2486 20.189 28.2486C17.996 28.2486 16.0195 27.7615 14.6003 26.9874C13.1714 26.208 12.3623 25.1732 12.3623 24.0932V23.5512C13.9336 25.1557 16.8431 26.1788 20.189 26.1788C23.5349 26.1788 26.4444 25.1557 28.0157 23.5512V24.0932ZM28.0157 20.7891C28.0157 21.8691 27.2067 22.9039 25.7777 23.6833C24.3585 24.4574 22.382 24.9445 20.189 24.9445C17.996 24.9445 16.0195 24.4574 14.6003 23.6833C13.1714 22.9039 12.3623 21.8691 12.3623 20.7891V20.2471C13.9336 21.8516 16.8431 22.8747 20.189 22.8747C23.5349 22.8747 26.4444 21.8516 28.0157 20.2471V20.7891ZM20.189 21.6404C17.996 21.6404 16.0195 21.1533 14.6003 20.3792C13.1714 19.5998 12.3623 18.565 12.3623 17.4849C12.3623 16.4049 13.1714 15.3701 14.6003 14.5907C16.0195 13.8166 17.996 13.3295 20.189 13.3295C22.382 13.3295 24.3585 13.8166 25.7777 14.5907C27.2067 15.3701 28.0157 16.4049 28.0157 17.4849C28.0157 18.565 27.2067 19.5998 25.7777 20.3792C24.3585 21.1533 22.382 21.6404 20.189 21.6404Z" fill="#1C6252" stroke="#1C6252" stroke-width="0.5"/>
<path d="M20.108 16.343C20.0674 14.9183 20.0836 12.6479 20.2761 10.683M21.2386 7.02521C20.7214 5.23231 21.0009 1.81362 26.1251 2.19667C26.3117 2.21062 26.4714 2.34464 26.5037 2.52894C26.835 4.41544 26.2064 7.54478 21.2386 7.02521ZM21.2386 7.02521C20.737 7.5323 20.4415 8.99489 20.2761 10.683M20.2761 10.683L18.9773 9.53992M18.9773 9.53992C19.1969 8.20792 18.7768 5.71178 15.4391 6.07097C15.2551 6.09077 15.1059 6.23052 15.0825 6.41411C14.8928 7.90327 15.4303 10.223 18.9773 9.53992Z" stroke="#1C6252" stroke-width="1.5" stroke-linecap="round"/>
<circle cx="9.54242" cy="21.5231" r="7.34247" fill="white" stroke="#1C6252" stroke-width="1.5"/>
<path d="M5.47131 20.5084C5.74049 19.4287 6.42756 18.5001 7.38137 17.927C8.33519 17.3538 9.47761 17.1831 10.5573 17.4523" stroke="#1C6252" stroke-width="1.5" stroke-linecap="round"/>
<path d="M13.5952 22.6094C13.4526 23.1416 13.2066 23.6405 12.8711 24.0776C12.5357 24.5148 12.1175 24.8815 11.6403 25.157C11.1631 25.4325 10.6364 25.6113 10.0901 25.6832C9.54384 25.7552 8.98876 25.7188 8.45654 25.5762" stroke="#1C6252" stroke-width="1.5" stroke-linecap="round"/>
</svg>
