<svg preserveAspectRatio="none" width="100%" height="100%" overflow="visible" style="display: block;" viewBox="0 0 32.1025 32.1034" fill="none" xmlns="http://www.w3.org/2000/svg">
<g id="Frame 116047456">
<circle id="Ellipse 14979" cx="16.0513" cy="16.0513" r="15.1595" fill="var(--fill-0, #D9D9D9)" stroke="var(--stroke-0, #767676)" stroke-width="1.78347"/>
<g id="Group 4076075">
<path id="Vector 2518" d="M4.03393 13.4599V17.2817L4.50103 17.8337L10.7432 15.4133V12.3559L7.89813 11.1669L4.03393 13.4599Z" fill="var(--fill-0, #989898)"/>
<path id="Vector 2519" d="M10.7432 13.5873L8.45014 12.5682V15.5407L10.7432 16.1776V13.5873Z" fill="var(--fill-0, white)"/>
<path id="Vector 2524" d="M24.2891 10.8696L20.6372 11.8463L20.2975 30.4878L23.0152 29.5961L28.1533 24.3731L30.786 19.7445V14.0969L24.2891 10.8696Z" fill="var(--fill-0, #B4B4B4)"/>
<path id="Vector 2525" d="M24.8411 12.3134L30.1491 15.0735V21.6979L24.8411 28.577V12.3134Z" fill="var(--fill-0, white)"/>
<path id="Vector 2522" d="M27.856 17.3666V23.5663L25.6479 27.2182L17.6223 31.1673V16.6447L22.5056 14.9037L27.856 17.3666Z" fill="var(--fill-0, #7C7C82)"/>
<path id="Vector 2523" d="M23.0152 28.2797V16.3474L26.752 18.0884V25.0949L25.7329 26.6661L23.0152 28.2797Z" fill="var(--fill-0, white)"/>
<path id="Vector 2520" d="M10.7432 9.42587V29.4262L16.773 31.0399L21.1892 29.4262V9.42587L15.9237 6.28356L10.7432 9.42587Z" fill="var(--fill-0, #BFBFBF)"/>
<path id="Vector 2521" d="M16.5182 30.6577V7.8972L20.2125 10.0204V29.5537L16.5182 30.6577Z" fill="var(--fill-0, white)"/>
<path id="Vector 2516" d="M9.08709 14.8188L1.86827 18.3433L1.35871 20.4664L4.92566 26.7086L10.7432 29.4263V15.4133L9.08709 14.8188Z" fill="var(--fill-0, #B4B4B4)"/>
<path id="Vector 2517" d="M9.59662 16.0927L10.7431 16.6023V29.5537L9.59662 28.8742V16.0927Z" fill="var(--fill-0, white)"/>
</g>
<circle id="Ellipse 14981" cx="16.0513" cy="16.0513" r="15.1595" stroke="var(--stroke-0, #767676)" stroke-width="1.78347"/>
</g>
</svg>
